<svg width="62" height="62" viewBox="0 0 62 62" fill="none" xmlns="http://www.w3.org/2000/svg">
<rect y="0.000244141" width="62" height="62" rx="15" fill="#4A61E4"/>
<path d="M45.5834 39.3335V35.1669C45.5834 29.2744 45.5834 26.328 43.7527 24.4975C41.9221 22.6669 38.9759 22.6669 33.0834 22.6669H28.9167C23.0241 22.6669 20.0779 22.6669 18.2473 24.4975C16.4167 26.328 16.4167 29.2744 16.4167 35.1669V39.3335C16.4167 45.226 16.4167 48.1723 18.2473 50.0029C20.0779 51.8335 23.0241 51.8335 28.9167 51.8335H33.0834C38.9759 51.8335 41.9221 51.8335 43.7527 50.0029C45.5834 48.1723 45.5834 45.226 45.5834 39.3335Z" stroke="white" stroke-width="3" stroke-linejoin="round"/>
<path d="M45.5833 43.5002C48.5296 43.5002 50.0027 43.5002 50.9181 42.585C51.8333 41.6696 51.8333 40.1965 51.8333 37.2502C51.8333 34.304 51.8333 32.8309 50.9181 31.9155C50.0027 31.0002 48.5296 31.0002 45.5833 31.0002" stroke="white" stroke-width="3" stroke-linejoin="round"/>
<path d="M16.4167 43.5002C13.4704 43.5002 11.9973 43.5002 11.082 42.585C10.1667 41.6696 10.1667 40.1965 10.1667 37.2502C10.1667 34.304 10.1667 32.8309 11.082 31.9155C11.9973 31.0002 13.4704 31.0002 16.4167 31.0002" stroke="white" stroke-width="3" stroke-linejoin="round"/>
<path d="M34.125 13.2919C34.125 15.0178 32.7258 16.4169 31 16.4169C29.2742 16.4169 27.875 15.0178 27.875 13.2919C27.875 11.566 29.2742 10.1669 31 10.1669C32.7258 10.1669 34.125 11.566 34.125 13.2919Z" stroke="white" stroke-width="3"/>
<path d="M31 16.4169V22.6669" stroke="white" stroke-width="3" stroke-linecap="round" stroke-linejoin="round"/>
<path d="M24.75 33.0836V35.167" stroke="white" stroke-width="3" stroke-linecap="round" stroke-linejoin="round"/>
<path d="M37.25 33.0836V35.167" stroke="white" stroke-width="3" stroke-linecap="round" stroke-linejoin="round"/>
<path d="M26.8333 42.4586C26.8333 42.4586 28.2223 43.5003 31 43.5003C33.7777 43.5003 35.1666 42.4586 35.1666 42.4586" stroke="white" stroke-width="3" stroke-linecap="round"/>
</svg>
