<svg width="24" height="25" viewBox="0 0 24 25" fill="none" xmlns="http://www.w3.org/2000/svg">
<path d="M2 10.5C2 6.99335 2 5.24003 2.90796 4.05992C3.07418 3.84388 3.25989 3.64579 3.46243 3.46849C4.56878 2.5 6.21252 2.5 9.5 2.5H14.5C17.7875 2.5 19.4312 2.5 20.5376 3.46849C20.7401 3.64579 20.9258 3.84388 21.092 4.05992C22 5.24003 22 6.99335 22 10.5C22 14.0066 22 15.76 21.092 16.9401C20.9258 17.1561 20.7401 17.3542 20.5376 17.5315C19.4312 18.5 17.7875 18.5 14.5 18.5H9.5C6.21252 18.5 4.56878 18.5 3.46243 17.5315C3.25989 17.3542 3.07418 17.1561 2.90796 16.9401C2 15.76 2 14.0066 2 10.5Z" stroke="#141B34" stroke-width="1.5"/>
<path d="M17 22.5L12.8333 18.5M7 22.5L11.1667 18.5" stroke="#141B34" stroke-width="1.5" stroke-linecap="round" stroke-linejoin="round"/>
<path d="M12 18.5V23.5" stroke="#141B34" stroke-width="1.5" stroke-linecap="round" stroke-linejoin="round"/>
<path d="M12 13C13.6569 13 15 11.6569 15 10C15 8.34315 13.6569 7 12 7C10.3431 7 9 8.34315 9 10C9 11.6569 10.3431 13 12 13Z" stroke="#141B34" stroke-width="1.5"/>
</svg>
