<svg width="1112" height="797" viewBox="0 0 1112 797" fill="none" xmlns="http://www.w3.org/2000/svg">
<path d="M686.757 670.368C671.709 678.17 632.464 683.856 590.823 687.692C575.401 689.125 559.626 690.289 544.685 691.241C507.807 693.531 475.662 694.351 464.681 693.892C464.161 693.858 463.564 693.792 462.965 693.69L462.928 693.693C461.356 693.443 459.504 692.918 457.378 692.192C432.725 683.604 374.15 645.205 357.064 631.086C341.24 618.016 304.893 574.819 304.893 574.819C303.175 563.413 328.486 558.306 354.917 584.434C356.596 586.082 379.379 597.807 394.539 605.565C394.845 605.69 395.153 605.851 395.461 606.013C396.69 606.622 397.846 607.237 398.924 607.783C403.732 610.228 407.152 611.927 407.885 612.315C407.254 611.808 404.906 610.101 401.503 607.66C400.72 607.091 399.898 606.489 399.036 605.852C398.762 605.651 398.485 605.413 398.174 605.215C387.052 597.076 369.58 584.206 362.976 578.57C353.289 570.322 321.495 533.027 327.616 529.381C343.966 519.743 364.468 541.331 384.965 558.962C392.086 565.076 426.096 581.938 438.099 590.01C430.449 583.27 414.528 568.915 409.543 562.194C402.904 553.196 391.574 530.17 395.953 528.432C403.959 525.271 411.824 530.959 431.263 552.183C447.677 570.089 485.733 578.914 495.52 584.086C515.166 594.423 552.393 583.121 612.669 577.794C638.443 575.473 661.036 580.522 673.788 603.038C684.121 621.283 685.542 645.332 692.822 661.624C694.247 664.806 691.918 667.72 686.757 670.368Z" fill="#FFCFBF"/>
<path d="M445.042 567.933C445.042 567.933 426.694 537.026 442.992 541.007C459.291 544.989 492.493 589.206 527.891 587.828L508.34 601.76L445.042 567.933Z" fill="#FFCFBF"/>
<path d="M786.239 799.25L623.075 811.67C615.546 795.344 582.189 709.316 577.981 705.532L577.942 705.498C577.781 705.325 577.662 705.223 577.504 705.087C576.436 704.17 575.537 703.536 574.799 703.074C573.366 702.222 572.541 702.063 572.501 702.029C564.793 697.439 555.169 693.919 544.686 691.241L544.646 691.207C504.628 680.904 452.689 682.565 452.531 682.429C440.567 670.028 463.819 654.829 497.94 642.063L502.527 639.015C522.337 631.591 535.797 627.897 554.112 622.694C556.609 621.986 567.02 621.759 569.336 621.102C569.373 621.099 569.373 621.099 569.373 621.099C571.328 620.544 573.248 620.028 575.095 619.518C586.288 616.447 608.15 622.337 612.06 622.214C666.709 620.499 666.713 614.466 674.495 621.492L674.498 621.528C676.799 623.572 677.832 625.009 677.832 625.009C677.18 627.13 784.909 796.837 786.239 799.25Z" fill="#FFCFBF"/>
<path d="M614.557 699.767C581.686 709.549 522.712 706.92 488.705 700.112C479.824 698.334 470.511 697.842 462.572 693.481C455.436 689.561 449.655 683.625 444.001 677.767C427.147 660.31 410.387 642.762 393.722 625.125C389.1 620.233 384.619 611.843 389.95 607.735C391.868 606.256 394.45 606.063 396.869 605.928C412.137 605.075 428.758 604.596 441.154 613.549C449.367 619.481 454.555 628.831 462.584 635.009C472.256 642.451 485.831 644.484 497.258 640.202L614.557 699.767Z" fill="#FFCFBF"/>
<path d="M592.229 699.087C568.732 706.002 544.091 706.731 519.85 704.262C507.418 702.996 495.21 700.615 482.886 698.638C476.7 697.646 470.387 696.655 464.694 693.902C459.059 691.176 454.234 686.928 449.814 682.566C440.604 673.479 431.79 663.957 422.848 654.607C413.691 645.031 404.533 635.453 395.459 625.798C392.381 622.523 387.482 616.778 389.148 611.833C390.113 608.969 393.095 608.226 395.787 607.986C398.86 607.712 401.971 607.628 405.055 607.541C416.164 607.228 428.128 607.753 437.941 613.565C448.625 619.893 454.13 631.948 464.591 638.556C474.5 644.813 486.957 646.035 497.94 642.064C499.41 641.533 498.345 639.344 496.883 639.872C485.491 643.991 472.287 641.887 462.82 634.296C453.836 627.091 448.341 616.378 437.954 610.793C427.745 605.303 415.771 604.773 404.43 605.141C399.893 605.288 393.516 604.619 389.611 607.372C386.031 609.895 385.981 614.302 387.383 618.077C389.393 623.482 393.685 627.463 397.557 631.552C402.386 636.653 407.223 641.746 412.068 646.831C421.758 657.003 431.479 667.144 441.232 677.255C449.696 686.03 458.244 695.184 470.356 698.597C476.376 700.293 482.624 700.962 488.761 702.091C495.182 703.273 501.611 704.385 508.079 705.286C536.225 709.206 565.21 709.564 592.687 701.477C594.173 701.039 593.734 698.644 592.229 699.087Z" fill="#EF9F8A"/>
<path d="M654.248 650.261C653.219 632.859 633.575 626.723 619.502 623.405C602.521 619.402 584.832 618.301 567.482 620.105C557.788 621.113 548.2 623.037 538.861 625.824C537.437 626.249 538.219 628.425 539.643 627.999C555.54 623.257 572.16 621.129 588.74 621.654C597.019 621.916 605.277 622.862 613.405 624.454C621.323 626.006 629.527 627.913 636.839 631.409C644.438 635.044 651.416 641.54 651.943 650.436C652.031 651.922 654.336 651.747 654.248 650.261Z" fill="#EF9F8A"/>
<path d="M662.301 681.145C664.162 686.855 666.941 692.292 670.484 697.143C671.482 698.51 672.545 699.831 673.663 701.102C673.933 701.409 674.198 701.644 674.616 701.726C674.985 701.798 675.461 701.717 675.765 701.486C676.356 701.038 676.708 700.018 676.149 699.383C674.206 697.174 672.436 694.815 670.864 692.327C670.084 691.092 669.352 689.827 668.671 688.535C668.632 688.461 668.408 688.03 668.557 688.321C668.47 688.151 668.384 687.981 668.299 687.811C668.128 687.47 667.962 687.128 667.798 686.784C667.48 686.114 667.176 685.439 666.885 684.758C666.237 683.239 665.658 681.692 665.146 680.123C664.901 679.371 663.952 678.908 663.213 679.211C662.436 679.529 662.038 680.339 662.301 681.145Z" fill="#F18E7B"/>
<path d="M1010.57 806.515C1050.57 770.615 1072.93 717.02 1071.83 663.413C1071.52 648.231 1069.29 633.173 1065.17 618.56C1064.61 616.583 1067.64 615.564 1068.2 617.546C1083.02 670.056 1073.12 728.273 1043.08 773.676C1034.55 786.572 1024.45 798.327 1012.94 808.657C1011.43 810.016 1009.04 807.89 1010.57 806.515Z" fill="#4C99AF"/>
<path d="M1059.73 741.49C1063.76 741.504 1067.79 741.522 1071.8 741.152C1075.46 740.814 1081.12 740.522 1084.14 738.166C1085.89 737.746 1086.29 736.454 1085.34 734.288C1083.79 733.971 1082.27 734.064 1080.76 734.568C1078.53 735.191 1076.47 736.382 1074.41 737.422C1070.3 739.499 1066.21 741.619 1062.12 743.716C1060.3 744.645 1058.54 741.981 1060.37 741.044C1064.62 738.866 1087.24 723.773 1089.99 734.604C1092.7 745.297 1065.17 744.698 1059.93 744.679C1057.88 744.671 1057.67 741.482 1059.73 741.49Z" fill="#4C99AF"/>
<path d="M1066.28 718.618C1072.57 717.191 1078.83 715.587 1085 713.667C1089.52 712.26 1098.72 709.781 1100.59 704.717C1101.98 703.447 1101.3 702.657 1098.55 702.345C1097.78 702.305 1097.01 702.264 1096.24 702.223C1094.58 702.344 1092.94 702.991 1091.42 703.641C1088.52 704.885 1085.74 706.504 1083.09 708.219C1077.74 711.687 1073.02 715.916 1068.84 720.714C1067.48 722.263 1065.11 720.124 1066.46 718.571C1072.2 712.006 1078.98 706.458 1086.71 702.412C1091.29 700.017 1099.68 696.301 1103.78 701.751C1107.26 706.373 1097.38 712.092 1094.26 713.596C1085.91 717.624 1076.29 719.609 1067.3 721.648C1065.3 722.1 1064.28 719.073 1066.28 718.618Z" fill="#4C99AF"/>
<path d="M1072.73 688.859C1079.25 687.769 1085.6 685.937 1091.65 683.282C1094.61 681.985 1097.48 680.493 1100.25 678.83C1101.58 678.03 1102.89 677.196 1104.17 676.314C1104.79 675.897 1105.4 675.462 1106 675.009C1109.33 672.902 1109.48 671.291 1106.45 670.176C1104.34 668.679 1103.83 668.613 1101.53 668.953C1099.77 669.212 1098.04 669.673 1096.37 670.283C1093.33 671.397 1090.48 672.991 1087.88 674.914C1082.55 678.842 1078.36 684.04 1074.47 689.334C1073.25 690.989 1070.89 688.838 1072.1 687.191C1077.58 679.732 1083.82 672.585 1092.32 668.535C1096.71 666.446 1107.71 662.497 1111.01 668.125C1115.08 675.056 1103.8 680.59 1099.31 683.049C1091.07 687.562 1082.19 690.5 1072.94 692.048C1070.91 692.387 1070.73 689.195 1072.73 688.859Z" fill="#4C99AF"/>
<path d="M1073.79 656.926C1078.18 652.468 1083.46 649.344 1088.64 645.914C1093.99 642.364 1104.88 634.328 1101.78 626.755C1101.67 624.984 1100.72 624.298 1098.93 624.697C1097.76 624.7 1096.63 624.895 1095.51 625.281C1093.69 625.887 1091.94 626.968 1090.54 628.278C1087.67 630.978 1086.01 634.683 1084.74 638.346C1082.45 644.943 1081.33 651.779 1077.55 657.776C1076.47 659.5 1073.61 658.059 1074.71 656.315C1079.9 648.072 1079.93 637.694 1085.36 629.592C1088.85 624.374 1097.61 618.381 1103.94 622.792C1109.66 626.779 1102.76 637.58 1099.56 641.105C1092.86 648.475 1083.12 651.991 1076.16 659.069C1074.73 660.53 1072.35 658.398 1073.79 656.926Z" fill="#4C99AF"/>
<path d="M1066.16 620.43C1070.15 614.63 1072.41 608.104 1073.4 601.156C1074.36 594.434 1074.93 585.705 1071.12 579.671C1070.44 577.647 1069.31 577.371 1067.74 578.841C1066.11 578.858 1065.37 579.556 1065.52 580.935C1064.88 582.468 1065.16 585.271 1065.1 586.923C1064.98 590.137 1065.05 593.359 1065.28 596.566C1065.82 603.94 1067.32 611.154 1069.59 618.183C1070.23 620.142 1067.2 621.155 1066.56 619.197C1063.38 609.356 1061.7 599.089 1061.87 588.732C1061.94 584.312 1061.43 571.586 1069.29 573.961C1076.64 576.182 1077.35 588.326 1077.17 594.404C1076.88 604.13 1074.56 613.805 1069 621.892C1067.85 623.561 1064.99 622.125 1066.16 620.43Z" fill="#4C99AF"/>
<path d="M1070.15 656.178C1068.38 650.92 1065.65 646.22 1062.38 641.758C1060.92 639.767 1059.38 637.838 1057.81 635.929C1057.14 635.104 1055.87 632.85 1054.88 632.446C1051.6 632.894 1050.41 634.005 1051.32 635.78C1051.58 636.514 1051.87 637.233 1052.21 637.936C1053.45 640.662 1055.15 644.03 1057.5 646C1059.48 647.666 1062.13 648.085 1064.43 649.128C1068.57 651.003 1071.89 654.005 1074.51 657.678C1075.71 659.355 1073.03 661.099 1071.84 659.427C1068.81 655.181 1065.03 652.761 1060.21 650.925C1057.55 649.912 1055.5 648.786 1053.67 646.54C1050.67 642.85 1044.57 633.688 1049.14 629.145C1053.65 624.661 1058.41 631.624 1060.96 634.751C1066.02 640.973 1070.6 647.504 1073.18 655.163C1073.84 657.116 1070.81 658.127 1070.15 656.178Z" fill="#4C99AF"/>
<path d="M1069.24 692.361C1067.34 689.005 1065.44 685.607 1063.1 682.522C1061.59 680.526 1056.19 673.533 1053.18 674.269C1051.24 674.741 1055.68 683.567 1056.65 684.76C1059.47 688.199 1064.45 689.056 1068.56 690.213C1070.52 690.768 1069.89 693.899 1067.9 693.34C1062.62 691.852 1056.44 690.625 1053.32 685.641C1051.43 682.62 1047.71 675.476 1049.79 671.887C1051.93 668.192 1056.97 672.182 1059.27 673.962C1064.87 678.296 1068.48 684.561 1071.92 690.612C1072.93 692.393 1070.26 694.152 1069.24 692.361Z" fill="#4C99AF"/>
<path d="M1063.17 724.312C1057.86 720.326 1053.22 715.545 1049.55 710.006C1047.51 706.921 1042.71 700.956 1047.87 698.343C1052.82 695.835 1057.44 700.793 1060.01 704.398C1063.56 709.377 1065.53 715.201 1066.14 721.256C1066.35 723.307 1063.15 723.499 1062.95 721.457C1062.53 717.291 1061.43 713.244 1059.44 709.541C1058.61 707.979 1057.63 706.474 1056.54 705.078C1055.84 704.191 1055.08 703.266 1054.22 702.536C1052.54 701.128 1049.16 701.061 1049.73 704.09C1050.32 707.221 1054.28 711.277 1056.3 713.621C1058.99 716.739 1062.02 719.472 1065.31 721.943C1066.95 723.176 1064.8 725.541 1063.17 724.312Z" fill="#4C99AF"/>
<path d="M1054.53 744.55C1050.3 739.653 1046.45 734.394 1043.45 728.642C1042.08 726.015 1039.76 721.15 1043.14 718.946C1046.54 716.726 1050.27 720.739 1051.93 723.376C1055.09 728.372 1056.11 734.885 1057.24 740.566C1057.64 742.56 1054.62 743.592 1054.21 741.581C1053.52 738.129 1052.78 734.673 1051.78 731.295C1051.26 729.537 1050.7 727.762 1049.84 726.136C1048.96 724.468 1048.15 722.197 1046.12 723.441C1044.81 723.641 1044.53 724.225 1045.29 725.194C1045.76 726.211 1046.27 727.206 1046.83 728.178C1047.65 729.673 1048.54 731.133 1049.46 732.569C1051.63 735.948 1054.05 739.143 1056.67 742.18C1058 743.715 1055.87 746.107 1054.53 744.55Z" fill="#4C99AF"/>
<path d="M949.544 821.47C980.787 765.881 985.411 697.262 963.889 637.42C957.727 620.287 949.361 604.075 939.055 589.072C937.052 586.156 941.732 583.276 943.734 586.189C980.769 640.101 991.779 710.122 975.046 773.178C970.333 790.935 963.393 808.041 954.393 824.054C952.663 827.133 947.807 824.56 949.544 821.47Z" fill="#F28A75"/>
<path d="M980.758 728.857C985.685 727.205 990.656 725.572 995.36 723.343C997.311 722.418 1007.6 717.564 1007.52 715.09C1007.32 708.769 997.264 719.283 996.173 720.404C992.401 724.277 988.641 728.162 984.875 732.04C982.417 734.573 978.414 730.805 980.886 728.259C984.672 724.36 1007.07 696.308 1013.53 710.727C1015.78 715.746 1010.43 720.278 1006.91 722.897C999.633 728.308 990.861 731.263 982.359 734.113C979 735.24 977.405 729.981 980.758 728.857Z" fill="#F28A75"/>
<path d="M979.181 700.558C985.088 696.932 990.895 693.152 996.546 689.138C999.812 686.819 1003.1 684.459 1005.95 681.632C1007.85 679.746 1012.13 675.67 1011.78 672.82C1012.53 671.431 1012.05 671.038 1010.36 671.643C1009.25 671.46 1008.23 671.679 1007.3 672.302C1005.16 673.152 1003.44 674.776 1001.78 676.329C999.366 678.601 997.135 681.161 995.087 683.765C990.391 689.739 986.737 696.296 983.833 703.305C982.48 706.569 977.64 703.963 978.984 700.72C983.321 690.256 989.565 680.406 997.796 672.548C1002.1 668.437 1010.09 662.812 1016.08 667.466C1021.85 671.949 1013.3 682.067 1009.94 685.413C1001.96 693.359 991.599 699.385 982.063 705.237C979.051 707.085 976.158 702.413 979.181 700.558Z" fill="#F28A75"/>
<path d="M974.64 664.715C981.299 661.131 987.555 656.93 993.191 651.87C995.708 649.609 998.101 647.217 1000.36 644.699C1002.03 642.845 1007.63 637.799 1007.6 635.283C1006.76 633.761 1005.92 632.239 1005.08 630.717C1004.01 631.022 1002.97 631.424 1001.97 631.924C1000.39 632.633 998.893 633.454 997.46 634.429C994.599 636.377 992.039 638.815 989.853 641.497C984.276 648.34 981.073 656.687 978.431 665.009C977.368 668.359 971.998 667.177 973.068 663.806C976.468 653.093 980.795 642.276 989.02 634.305C993.505 629.959 1004.92 621.009 1011.29 626.575C1018.53 632.915 1009.26 642.899 1005.03 647.725C997.268 656.577 987.871 663.824 977.523 669.394C974.424 671.063 971.515 666.398 974.64 664.715Z" fill="#F28A75"/>
<path d="M963.643 628.28C967.671 620.063 974.048 613.707 979.16 606.217C981.27 603.125 983.139 599.77 984.261 596.185C985.217 593.13 986.915 585.888 983.713 583.82C980.123 581.501 975.024 587.046 973.337 589.888C970.849 594.081 970.4 599.16 970.4 603.924C970.402 612.278 971.632 620.412 969.687 628.657C968.874 632.102 963.512 630.898 964.324 627.454C967.22 615.178 962.312 602.064 967.156 590.109C969.81 583.559 977.702 575.485 985.617 577.912C993.371 580.29 990.991 593.789 988.945 599.353C984.541 611.329 974.048 619.53 968.492 630.865C966.934 634.042 962.087 631.454 963.643 628.28Z" fill="#F28A75"/>
<path d="M940.916 590.197C943.343 581.558 943.186 572.73 941.253 564C939.9 557.892 936.709 544.363 929.621 542.32C927.64 540.645 926.632 541.731 926.597 545.579C926.749 546.229 926.901 546.878 927.053 547.528C927.249 549.443 928.075 551.467 928.64 553.318C929.809 557.147 931.183 560.914 932.771 564.588C936.127 572.353 940.509 579.598 945.552 586.375C947.662 589.21 942.975 592.082 940.873 589.258C933.745 579.679 928.102 569.109 924.303 557.778C922.479 552.341 916.336 535.786 927.668 536.002C937.229 536.184 942.684 549.122 944.999 556.67C948.455 567.94 949.491 579.964 946.278 591.4C945.325 594.796 939.958 593.605 940.916 590.197Z" fill="#F28A75"/>
<path d="M959.099 629.653C954.917 624.217 949.721 619.878 944.085 616.013C941.779 614.431 939.405 612.949 937.028 611.478C936.295 611.025 934.554 609.463 933.697 609.462C932.804 608.664 932.26 609.118 932.068 610.824C930.507 612.341 930.829 613.665 933.033 614.795C935.03 616.933 937.341 619.199 939.837 620.734C943.32 622.876 946.912 622.408 950.784 622.776C956.216 623.292 961.11 625.334 965.533 628.465C968.381 630.481 965.832 635.355 962.949 633.315C957.058 629.144 951.676 628.64 944.709 628.043C940.813 627.709 937.922 626.221 934.853 623.862C930.28 620.349 921.349 612.962 925.204 606.126C929.229 598.988 937.862 605.486 942.28 608.292C950.381 613.436 957.884 619.108 963.778 626.77C965.93 629.57 961.24 632.437 959.099 629.653Z" fill="#F28A75"/>
<path d="M972.042 671.078C968.043 667.526 964.041 663.913 959.435 661.15C957.194 659.806 948.931 654.928 946.271 657.004C946.706 656.188 947.141 655.372 947.576 654.557C947.501 658.863 953.247 664.354 956.603 666.212C960.929 668.608 966.443 667.82 971.279 667.567C974.819 667.382 975.026 672.874 971.495 673.058C964.292 673.436 956.647 674.245 950.895 669.075C947.68 666.186 940.769 659.387 942.116 654.418C943.598 648.957 951.537 651.703 955.111 652.988C963.1 655.862 969.573 661.538 975.823 667.089C978.466 669.436 974.689 673.429 972.042 671.078Z" fill="#F28A75"/>
<path d="M978.287 709.936C970.455 707.335 963.197 703.673 956.646 698.621C952.821 695.671 945.194 690.516 950.062 685.157C960.336 673.844 977.254 695.819 980.894 703.697C982.359 706.866 977.7 709.792 976.215 706.579C974.35 702.543 972.078 698.855 968.973 695.63C967.481 694.081 954.882 684.689 955.505 689.357C955.966 692.817 963.188 696.708 965.887 698.345C970.188 700.954 974.715 702.987 979.49 704.573C982.82 705.679 981.641 711.051 978.287 709.936Z" fill="#F28A75"/>
<path d="M975.595 735.849C970.284 732.71 944.986 718.458 953.083 709.691C956.163 706.357 961.44 708.644 964.42 710.731C970.723 715.145 974.727 722.857 978.491 729.347C980.262 732.4 975.593 735.3 973.812 732.229C971.94 729.001 970.028 725.784 967.916 722.705C966.595 720.779 965.244 718.79 963.564 717.152C962.463 716.077 959.686 712.344 959.441 715.443C959.214 718.324 964.437 721.417 966.601 723.14C970.267 726.058 974.149 728.618 978.18 731.001C981.214 732.794 978.647 737.653 975.595 735.849Z" fill="#F28A75"/>
<path d="M174.199 815.311C138.068 794.751 112.353 757.916 104.367 717.215C102.105 705.689 101.315 693.94 102.03 682.216C102.127 680.631 99.6703 680.358 99.5735 681.948C97.0012 724.077 114.058 766.453 144.23 795.833C152.8 804.178 162.362 811.404 172.76 817.32C174.127 818.099 175.584 816.099 174.199 815.311Z" fill="#4C99AF"/>
<path d="M126.351 774.242C123.312 774.915 120.265 775.592 117.172 775.971C114.352 776.317 110.029 777.026 107.351 775.743C105.964 775.713 105.45 774.802 105.807 773.01C106.927 772.515 108.097 772.334 109.315 772.468C111.109 772.571 112.859 773.133 114.586 773.581C118.033 774.476 121.472 775.406 124.915 776.318C126.438 776.721 127.336 774.417 125.798 774.01C122.225 773.063 102.644 765.374 102.348 774.012C102.055 782.541 122.771 777.561 126.723 776.686C128.271 776.343 127.905 773.898 126.351 774.242Z" fill="#4C99AF"/>
<path d="M117.64 758.032C112.648 757.988 107.653 757.804 102.679 757.366C99.0308 757.046 91.6641 756.686 89.4241 753.164C88.1606 752.434 88.5439 751.725 90.5738 751.037C91.1488 750.88 91.7239 750.722 92.2994 750.565C93.5734 750.383 94.923 750.602 96.175 750.844C98.5733 751.308 100.939 752.075 103.222 752.936C107.838 754.677 112.1 757.098 116.053 760.036C117.33 760.985 118.772 758.978 117.493 758.027C112.082 754.007 106.045 750.928 99.5316 749.141C95.6768 748.084 88.7238 746.655 86.5212 751.448C84.653 755.514 93.0629 758.211 95.6666 758.835C102.642 760.507 110.24 760.426 117.372 760.489C118.951 760.503 119.23 758.046 117.64 758.032Z" fill="#4C99AF"/>
<path d="M107.87 736.598C102.766 736.845 97.6639 736.505 92.6513 735.493C90.2012 734.999 87.7885 734.343 85.4216 733.541C84.2834 733.156 83.1557 732.741 82.0442 732.284C81.5057 732.071 80.9739 731.843 80.4494 731.598C77.5868 730.552 77.2082 729.359 79.3141 728.019C80.6594 726.541 81.0342 726.407 82.8349 726.286C84.2028 726.193 85.5892 726.256 86.9473 726.443C89.4318 726.785 91.847 727.522 94.1328 728.547C98.8021 730.641 102.828 733.88 106.637 737.243C107.827 738.294 109.261 736.279 108.076 735.234C102.71 730.496 96.8125 726.12 89.7208 724.457C86.0629 723.599 77.1008 722.421 75.528 727.219C73.591 733.127 83.0318 735.455 86.8298 736.575C93.8001 738.632 100.992 739.393 108.242 739.042C109.831 738.964 109.444 736.522 107.87 736.598Z" fill="#4C99AF"/>
<path d="M101.82 712.634C97.7737 709.985 93.2649 708.492 88.79 706.75C84.1594 704.947 74.6083 700.663 75.7011 694.43C75.4991 693.073 76.1047 692.398 77.5175 692.406C78.4011 692.216 79.2949 692.176 80.1985 692.285C81.6771 692.443 83.1795 692.972 84.4484 693.733C87.0665 695.301 88.9275 697.83 90.4914 700.389C93.3082 704.999 95.2748 709.983 99.1169 713.894C100.222 715.019 102.142 713.461 101.025 712.323C95.7434 706.946 94.0203 699.105 88.5838 693.873C85.0829 690.505 77.4759 687.415 73.4174 691.789C69.7493 695.743 76.7451 702.773 79.7448 704.91C86.0166 709.381 93.9566 710.437 100.38 714.643C101.706 715.511 103.156 713.508 101.82 712.634Z" fill="#4C99AF"/>
<path d="M101.59 683.792C97.622 680.064 94.8383 675.503 92.9476 670.414C91.118 665.49 89.249 658.986 91.1363 653.799C91.3188 652.158 92.126 651.763 93.5579 652.616C94.7959 652.36 95.4694 652.766 95.5793 653.834C96.3131 654.888 96.5665 657.051 96.8827 658.291C97.4976 660.701 97.978 663.147 98.3299 665.61C99.1384 671.271 99.1897 676.971 98.6257 682.658C98.4682 684.243 100.925 684.51 101.083 682.926C101.873 674.964 101.455 666.927 99.6217 659.127C98.8391 655.798 97.1326 646.095 91.5823 649.182C86.3923 652.069 87.8497 661.366 88.9871 665.93C90.8069 673.234 94.1504 680.166 99.6824 685.364C100.824 686.437 102.75 684.882 101.59 683.792Z" fill="#4C99AF"/>
<path d="M104.447 711.47C104.922 707.205 106.218 703.202 107.955 699.292C108.731 697.547 109.578 695.836 110.447 694.135C110.822 693.4 111.406 691.489 112.092 691.02C114.645 690.82 115.724 691.465 115.328 692.956C115.256 693.553 115.151 694.145 115.014 694.731C114.525 696.995 113.788 699.821 112.341 701.696C111.118 703.281 109.183 704.034 107.612 705.201C104.79 707.298 102.778 710.113 101.4 713.32C100.771 714.784 103.081 715.662 103.709 714.203C105.302 710.495 107.755 708.045 111.102 705.864C112.947 704.661 114.307 703.474 115.32 701.475C116.983 698.193 120.086 690.265 115.888 687.582C111.745 684.933 109.287 690.98 107.877 693.762C105.074 699.297 102.681 704.988 101.99 711.202C101.814 712.785 104.271 713.052 104.447 711.47Z" fill="#4C99AF"/>
<path d="M111.083 738.67C111.974 735.82 112.849 732.939 114.108 730.224C114.924 728.466 117.853 722.293 120.254 722.353C121.794 722.392 119.894 729.793 119.352 730.855C117.788 733.918 114.164 735.384 111.25 736.934C109.854 737.676 110.851 739.938 112.258 739.19C116.007 737.196 120.476 735.253 122.016 730.973C122.95 728.378 124.587 722.367 122.424 719.996C120.196 717.555 117.046 721.399 115.599 723.123C112.079 727.32 110.382 732.648 108.775 737.788C108.301 739.301 110.607 740.192 111.083 738.67Z" fill="#4C99AF"/>
<path d="M120.931 761.823C124.286 757.937 127.005 753.561 128.869 748.771C129.907 746.103 132.555 740.804 128.224 739.677C124.068 738.597 121.393 743.103 120.045 746.25C118.181 750.597 117.649 755.323 118.183 760.001C118.363 761.585 120.806 761.206 120.626 759.628C120.259 756.41 120.422 753.172 121.316 750.045C121.693 748.727 122.183 747.429 122.779 746.194C123.158 745.409 123.581 744.584 124.117 743.891C125.153 742.551 127.698 741.944 127.764 744.327C127.832 746.791 125.509 750.508 124.366 752.612C122.846 755.411 121.002 757.975 118.922 760.383C117.883 761.586 119.896 763.02 120.931 761.823Z" fill="#4C99AF"/>
<path d="M130.786 775.7C133.18 771.302 135.221 766.695 136.542 761.854C137.146 759.643 138.103 755.584 135.187 754.473C132.25 753.354 130.094 757 129.266 759.268C127.7 763.564 128.005 768.653 128.081 773.134C128.107 774.707 130.564 774.99 130.538 773.403C130.492 770.68 130.488 767.946 130.685 765.228C130.787 763.814 130.921 762.38 131.302 761.009C131.694 759.604 131.936 757.753 133.67 758.361C134.697 758.296 135.001 758.692 134.585 759.55C134.398 760.395 134.175 761.231 133.916 762.057C133.54 763.323 133.108 764.572 132.647 765.809C131.563 768.72 130.262 771.532 128.777 774.26C128.026 775.639 130.025 777.098 130.786 775.7Z" fill="#4C99AF"/>
<path d="M40.2936 800.952C21.9124 768.247 19.192 727.877 31.8544 692.669C35.4796 682.589 40.4013 673.051 46.4652 664.225C47.6437 662.509 44.8902 660.814 43.7125 662.529C21.9234 694.247 15.4458 735.443 25.2906 772.541C28.0632 782.988 32.1459 793.052 37.4412 802.473C38.4589 804.284 41.3155 802.77 40.2936 800.952Z" fill="#F28A75"/>
<path d="M21.9297 746.465C19.0315 745.493 16.1069 744.532 13.339 743.22C12.1906 742.676 6.13652 739.821 6.18278 738.365C6.30076 734.646 12.2182 740.832 12.8603 741.491C15.0795 743.77 17.2914 746.055 19.5072 748.337C20.9536 749.827 23.3086 747.611 21.8542 746.113C19.6269 743.818 6.45227 727.315 2.64838 735.798C1.32425 738.751 4.47543 741.417 6.54607 742.958C10.8249 746.142 15.986 747.88 20.9876 749.557C22.964 750.22 23.9023 747.126 21.9297 746.465Z" fill="#F28A75"/>
<path d="M22.8574 729.815C19.382 727.683 15.966 725.458 12.6408 723.096C10.7196 721.732 8.78601 720.344 7.10751 718.681C5.98752 717.571 3.4704 715.172 3.67623 713.497C3.23698 712.679 3.51624 712.448 4.51358 712.804C5.16843 712.696 5.76852 712.825 6.3143 713.191C7.57053 713.692 8.58611 714.647 9.55841 715.561C10.981 716.898 12.2941 718.403 13.4985 719.935C16.2618 723.45 18.411 727.309 20.12 731.432C20.9162 733.352 23.7635 731.819 22.9728 729.911C20.4209 723.754 16.7473 717.959 11.9053 713.336C9.37253 710.918 4.67146 707.608 1.14724 710.346C-2.24838 712.984 2.78414 718.937 4.76057 720.906C9.45443 725.58 15.551 729.126 21.1611 732.569C22.9334 733.655 24.6361 730.906 22.8574 729.815Z" fill="#F28A75"/>
<path d="M25.5288 708.727C21.6112 706.619 17.9304 704.147 14.6145 701.17C13.1334 699.84 11.7257 698.433 10.396 696.952C9.41692 695.861 6.12189 692.892 6.13929 691.412C6.63287 690.517 7.12601 689.621 7.61959 688.726C8.25109 688.905 8.86011 689.142 9.44663 689.436C10.3765 689.853 11.2597 690.336 12.1025 690.91C13.7861 692.056 15.2923 693.49 16.5782 695.068C19.8597 699.094 21.744 704.005 23.2982 708.901C23.9237 710.872 27.083 710.177 26.4536 708.193C24.453 701.891 21.9074 695.526 17.0684 690.837C14.4299 688.28 7.71296 683.014 3.96891 686.289C-0.295464 690.019 5.16146 695.893 7.65057 698.732C12.2158 703.94 17.7445 708.204 23.8325 711.48C25.6562 712.462 27.3678 709.717 25.5288 708.727Z" fill="#F28A75"/>
<path d="M31.9986 687.291C29.6288 682.457 25.8771 678.718 22.8694 674.311C21.628 672.492 20.5284 670.518 19.868 668.409C19.3057 666.612 18.3062 662.351 20.1905 661.134C22.3028 659.77 25.3024 663.032 26.2947 664.704C27.7589 667.171 28.0228 670.159 28.0224 672.962C28.0216 677.877 27.298 682.663 28.4421 687.513C28.92 689.54 32.0754 688.832 31.5976 686.806C29.894 679.583 32.7812 671.868 29.9318 664.834C28.3704 660.98 23.727 656.23 19.0705 657.658C14.5082 659.057 15.9092 666.999 17.1128 670.273C19.7033 677.319 25.8767 682.144 29.1458 688.812C30.0625 690.682 32.914 689.159 31.9986 687.291Z" fill="#F28A75"/>
<path d="M45.3692 664.886C43.9411 659.804 44.034 654.61 45.171 649.474C45.9668 645.88 47.8443 637.921 52.0144 636.719C53.1799 635.733 53.7727 636.373 53.7935 638.636C53.704 639.018 53.6148 639.4 53.5253 639.783C53.4103 640.909 52.9239 642.1 52.5916 643.189C51.9041 645.442 51.0952 647.658 50.1611 649.82C48.1868 654.388 45.6086 658.65 42.6416 662.637C41.4002 664.305 44.158 665.995 45.3942 664.333C49.5877 658.698 52.9078 652.479 55.1431 645.813C56.2156 642.614 59.8297 632.874 53.1628 633.001C47.5383 633.108 44.3286 640.72 42.9667 645.161C40.9334 651.791 40.3235 658.865 42.2138 665.594C42.7753 667.592 45.9324 666.891 45.3692 664.886Z" fill="#F28A75"/>
<path d="M34.6722 688.1C37.132 684.902 40.189 682.349 43.5048 680.075C44.8616 679.145 46.2583 678.272 47.6571 677.407C48.0879 677.14 49.1128 676.221 49.617 676.22C50.1424 675.751 50.462 676.018 50.5753 677.022C51.4933 677.915 51.304 678.693 50.0071 679.359C48.8319 680.616 47.473 681.949 46.0041 682.853C43.9551 684.113 41.8416 683.838 39.5639 684.054C36.3677 684.358 33.4886 685.559 30.8861 687.401C29.211 688.587 30.7104 691.455 32.4068 690.254C35.8728 687.801 39.0393 687.504 43.1381 687.153C45.4299 686.956 47.1309 686.081 48.9367 684.693C51.627 682.626 56.8815 678.28 54.6135 674.258C52.2454 670.059 47.1665 673.882 44.5671 675.533C39.8006 678.559 35.3865 681.896 31.9196 686.404C30.6527 688.05 33.4122 689.738 34.6722 688.1Z" fill="#F28A75"/>
<path d="M27.058 712.471C29.4109 710.382 31.765 708.255 34.4748 706.63C35.793 705.839 40.6549 702.969 42.2192 704.191C41.9633 703.711 41.7074 703.231 41.4519 702.751C41.4961 705.285 38.1153 708.515 36.1414 709.608C33.5959 711.018 30.3522 710.554 27.5066 710.405C25.4236 710.296 25.3022 713.527 27.3797 713.636C31.6177 713.858 36.1151 714.334 39.4997 711.293C41.3908 709.593 45.457 705.593 44.6642 702.669C43.7929 699.457 39.122 701.072 37.0191 701.829C32.3189 703.519 28.5107 706.858 24.8337 710.124C23.2783 711.505 25.5004 713.855 27.058 712.471Z" fill="#F28A75"/>
<path d="M23.3833 735.333C27.991 733.802 32.2613 731.648 36.1153 728.676C38.3659 726.941 42.8526 723.907 39.9888 720.754C33.9441 714.099 23.9911 727.027 21.8487 731.662C20.9867 733.526 23.7279 735.248 24.6018 733.358C25.6993 730.983 27.0357 728.813 28.8631 726.916C29.7408 726.005 37.1534 720.479 36.7867 723.225C36.5151 725.26 32.266 727.55 30.6787 728.513C28.148 730.048 25.4845 731.244 22.6754 732.177C20.7164 732.829 21.4098 735.988 23.3833 735.333Z" fill="#F28A75"/>
<path d="M24.9669 750.578C28.0917 748.731 42.975 740.346 38.2111 735.188C36.3994 733.226 33.2945 734.572 31.5413 735.8C27.8329 738.397 25.477 742.934 23.2629 746.752C22.221 748.548 24.9677 750.254 26.0156 748.448C27.1169 746.548 28.242 744.656 29.4842 742.844C30.2613 741.711 31.0566 740.541 32.0446 739.577C32.6927 738.944 34.3262 736.748 34.4705 738.571C34.6042 740.266 31.5319 742.086 30.2587 743.1C28.1015 744.817 25.8178 746.323 23.4463 747.724C21.6608 748.78 23.1713 751.639 24.9669 750.578Z" fill="#F28A75"/>
<path d="M502.761 337.766C579.224 337.766 641.209 279.557 641.209 207.754C641.209 135.95 579.224 77.7412 502.761 77.7412C426.299 77.7412 364.314 135.95 364.314 207.754C364.314 279.557 426.299 337.766 502.761 337.766Z" fill="white"/>
<path d="M642.281 332.688C695.986 332.688 739.522 296.995 739.522 252.965C739.522 208.935 695.986 173.241 642.281 173.241C588.576 173.241 545.04 208.935 545.04 252.965C545.04 296.995 588.576 332.688 642.281 332.688Z" fill="#4A61E4" fill-opacity="0.05"/>
<path d="M373.61 332.688C427.315 332.688 470.851 296.995 470.851 252.965C470.851 208.935 427.315 173.241 373.61 173.241C319.905 173.241 276.369 208.935 276.369 252.965C276.369 296.995 319.905 332.688 373.61 332.688Z" fill="white"/>
<path d="M403.213 219.768C403.213 163.861 443.655 114.468 505.416 114.468C560.894 114.468 605.867 159.789 605.867 215.696C605.867 271.602 560.894 316.923 505.416 316.923C449.939 316.923 403.213 275.674 403.213 219.768Z" fill="#4A61E4"/>
<path d="M561.855 272.684H451.043C448.417 272.684 446.289 270.539 446.289 267.893V247.36C446.289 244.714 448.417 242.569 451.043 242.569C453.669 242.569 455.798 244.714 455.798 247.36V258.31C455.798 260.956 457.926 263.101 460.552 263.101H552.346C554.971 263.101 557.1 260.956 557.1 258.31V247.36C557.1 244.714 559.229 242.569 561.855 242.569H561.855C564.481 242.569 566.61 244.714 566.61 247.36V267.893C566.609 270.539 564.48 272.684 561.855 272.684Z" fill="white"/>
<path d="M521.359 204.982V146.802C521.359 144.591 519.58 142.799 517.386 142.799H497.399C495.204 142.799 493.426 144.591 493.426 146.802V204.982C493.426 207.193 491.647 208.985 489.453 208.985H479.394C475.887 208.985 474.1 213.232 476.539 215.772L504.352 244.742C505.938 246.394 508.575 246.364 510.124 244.676L536.706 215.706C539.059 213.143 537.254 208.985 533.789 208.985H525.33C523.137 208.985 521.359 207.193 521.359 204.982Z" fill="white"/>
<path d="M415.409 160.73C422.093 144.622 434.112 131.909 449.597 124.146C451.793 123.045 449.864 119.731 447.673 120.83C431.238 129.07 418.805 142.669 411.734 159.708C410.789 161.986 414.475 162.98 415.409 160.73Z" fill="#FF8D67"/>
<path d="M609.436 230.966C608.837 236.77 607.378 242.344 605.169 247.733C604.234 250.015 607.92 251.01 608.844 248.754C611.193 243.021 612.611 237.129 613.247 230.966C613.501 228.51 609.688 228.528 609.436 230.966Z" fill="#FF8D67"/>
<path d="M375.342 5.67044C375.342 5.67044 354.918 -5.93349 342.246 5.67554C329.573 17.2846 353.463 34.727 320.453 32.3431C287.443 29.9593 281.286 50.6572 293.464 56.6629C305.642 62.6686 394.188 61.5456 399.218 57.2889C404.247 53.0322 396.119 51.5086 391.98 44.3418C387.841 37.1749 408.098 45.2954 407.584 32.3291C407.071 19.3629 379.994 23.1651 380.064 16.6004C380.134 10.0354 380.346 7.9605 375.342 5.67044Z" fill="#4A61E4" fill-opacity="0.2"/>
<path d="M286.732 40.0861C286.624 40.1129 286.508 40.1133 286.394 40.0823C286.047 39.9877 285.85 39.6371 285.953 39.2993C287.426 34.4777 301.67 24.6702 315.611 27.2905C323.467 28.767 329.763 27.8838 332.452 24.9287C333.852 23.3911 334.172 21.3442 333.378 19.0092C330.857 11.5958 334.902 4.85968 335.075 4.57703C335.261 4.27316 335.662 4.16961 335.972 4.34532C336.282 4.52017 336.383 4.90849 336.198 5.21194C336.158 5.27645 332.291 11.7409 334.622 18.5945C335.57 21.3824 335.157 23.8601 333.428 25.7601C330.377 29.1116 323.786 30.1242 315.342 28.5369C302.318 26.089 288.542 35.2713 287.207 39.6414C287.138 39.8688 286.952 40.0322 286.732 40.0861Z" fill="#4A61E4" fill-opacity="0.2"/>
<path d="M324.944 65.1544C324.908 65.1633 324.871 65.1693 324.833 65.1723C323.972 65.2393 303.63 66.7824 294.614 64.4707C285.291 62.0805 284.222 54.7545 284.182 54.4443C284.136 54.0975 284.392 53.7763 284.748 53.7253C285.107 53.6753 285.434 53.9159 285.48 54.2626C285.52 54.5504 286.514 61.0755 294.967 63.2429C303.769 65.4999 324.541 63.9232 324.75 63.9071C325.11 63.8791 325.421 64.1397 325.444 64.4894C325.465 64.8013 325.248 65.0793 324.944 65.1544Z" fill="#4A61E4" fill-opacity="0.2"/>
<path d="M838.114 139.977C838.114 139.977 821.781 130.697 811.646 139.981C801.511 149.265 820.617 163.214 794.218 161.308C767.819 159.401 762.896 175.954 772.634 180.757C782.373 185.56 853.186 184.662 857.208 181.258C861.23 177.854 854.729 176.635 851.419 170.904C848.109 165.172 864.309 171.666 863.899 161.297C863.488 150.927 841.834 153.968 841.89 148.718C841.946 143.468 842.116 141.808 838.114 139.977Z" fill="#4A61E4" fill-opacity="0.2"/>
<path d="M767.25 167.501C767.164 167.522 767.071 167.522 766.98 167.497C766.703 167.422 766.545 167.141 766.627 166.871C767.806 163.015 779.197 155.172 790.346 157.268C796.628 158.448 801.663 157.742 803.814 155.379C804.933 154.15 805.189 152.513 804.555 150.645C802.538 144.716 805.773 139.329 805.912 139.103C806.06 138.86 806.381 138.778 806.629 138.918C806.877 139.058 806.958 139.368 806.81 139.611C806.778 139.663 803.685 144.832 805.55 150.313C806.308 152.543 805.978 154.525 804.595 156.044C802.155 158.724 796.884 159.534 790.131 158.265C779.716 156.307 768.699 163.651 767.631 167.145C767.575 167.327 767.426 167.457 767.25 167.501Z" fill="#4A61E4" fill-opacity="0.2"/>
<path d="M797.809 187.547C797.78 187.555 797.751 187.559 797.721 187.561C797.032 187.615 780.764 188.849 773.554 187C766.098 185.089 765.243 179.23 765.211 178.982C765.174 178.704 765.379 178.447 765.664 178.407C765.95 178.367 766.212 178.559 766.249 178.836C766.28 179.066 767.076 184.285 773.836 186.018C780.875 187.823 797.487 186.562 797.654 186.55C797.942 186.527 798.191 186.735 798.209 187.015C798.226 187.265 798.053 187.487 797.809 187.547Z" fill="#4A61E4" fill-opacity="0.2"/>
<path d="M231.875 320.469C231.875 320.469 203.239 301.222 183.399 316.829C163.558 332.435 196.627 360.616 148.541 353.486C100.455 346.356 89.1567 375.993 106.331 386.132C123.505 396.27 253.321 404.384 261.157 398.704C268.992 393.024 257.255 389.896 251.982 378.943C246.709 367.99 275.485 382.116 276.162 363.068C276.839 344.02 236.762 346.605 237.587 336.997C238.412 327.39 238.952 324.375 231.875 320.469Z" fill="#4A61E4" fill-opacity="0.2"/>
<path d="M98.2966 361.112C98.1354 361.139 97.9656 361.127 97.8018 361.069C97.3048 360.892 97.0544 360.357 97.2424 359.873C99.9314 352.974 121.875 340.179 142.006 345.553C153.349 348.581 162.668 347.982 166.933 343.95C169.152 341.853 169.847 338.89 168.942 335.383C166.065 324.246 172.732 314.826 173.017 314.431C173.323 314.006 173.923 313.899 174.358 314.19C174.792 314.481 174.897 315.06 174.592 315.485C174.527 315.575 168.15 324.617 170.809 334.912C171.891 339.1 171.013 342.684 168.27 345.276C163.433 349.849 153.667 350.605 141.475 347.35C122.669 342.329 101.479 354.26 99.0427 360.514C98.9162 360.838 98.6247 361.057 98.2966 361.112Z" fill="#4A61E4" fill-opacity="0.2"/>
<path d="M151.503 402.039C151.449 402.048 151.395 402.053 151.338 402.053C150.069 402.056 120.105 402.074 107.155 397.694C93.7623 393.166 93.0052 382.318 92.9797 381.859C92.9508 381.346 93.3608 380.903 93.8883 380.868C94.4188 380.835 94.8721 381.223 94.9014 381.736C94.9277 382.161 95.664 391.828 107.807 395.935C120.449 400.211 151.048 400.191 151.355 400.19C151.887 400.188 152.314 400.605 152.309 401.119C152.305 401.579 151.956 401.963 151.503 402.039Z" fill="#4A61E4" fill-opacity="0.2"/>
</svg>
