<svg width="32" height="33" viewBox="0 0 32 33" fill="none" xmlns="http://www.w3.org/2000/svg">
<path d="M22.6004 16.7423C22.9307 17.5853 22.0101 18.5968 20.1689 20.6199C18.2269 22.7536 17.2267 23.8205 15.9999 23.8333C14.7731 23.8205 13.773 22.7536 11.831 20.6199C9.98977 18.5968 9.06916 17.5853 9.39944 16.7423C9.41149 16.7115 9.4246 16.6812 9.43872 16.6513C9.79896 15.8893 10.9929 15.8372 13.3332 15.8336V7.16664C13.3332 6.54668 13.3332 6.23671 13.4014 5.98239C13.5863 5.29219 14.1254 4.75307 14.8157 4.56815C15.0699 4.5 15.3799 4.5 15.9999 4.5C16.6198 4.5 16.9298 4.5 17.1842 4.56815C17.8743 4.75307 18.4135 5.29219 18.5985 5.98239C18.6666 6.23671 18.6666 6.54668 18.6666 7.16664V15.8336C21.0069 15.8372 22.2009 15.8893 22.5611 16.6513C22.5753 16.6812 22.5883 16.7115 22.6004 16.7423Z" stroke="white" stroke-width="1.5" stroke-linecap="round" stroke-linejoin="round"/>
<path d="M6.66675 28.5H25.3335" stroke="white" stroke-width="1.5" stroke-linecap="round" stroke-linejoin="round"/>
</svg>
