<svg width="62" height="62" viewBox="0 0 62 62" fill="none" xmlns="http://www.w3.org/2000/svg">
<rect y="0.000244141" width="62" height="62" rx="15" fill="#4A61E4"/>
<path d="M47.6667 33.0833V28.2017C47.6667 26.4986 47.6667 25.647 47.3496 24.8813C47.0323 24.1156 46.4302 23.5135 45.2259 22.3092L35.3582 12.4414C34.3188 11.402 33.7992 10.8824 33.1552 10.5744C33.0213 10.5104 32.8842 10.4535 32.7442 10.4041C32.0711 10.1666 31.3363 10.1666 29.8663 10.1666C23.1059 10.1666 19.7257 10.1666 17.4361 12.0126C16.9736 12.3855 16.5523 12.8069 16.1794 13.2694C14.3334 15.5589 14.3334 18.9392 14.3334 25.6996V33.0833M33.0834 11.2083V12.25C33.0834 18.1425 33.0834 21.0888 34.914 22.9194C36.7446 24.75 39.6909 24.75 45.5834 24.75H46.625" stroke="white" stroke-width="3.125" stroke-linecap="round" stroke-linejoin="round"/>
<path d="M47.6667 41.4167C47.6667 40.2661 46.734 39.3334 45.5834 39.3334H41.4167C40.2661 39.3334 39.3334 40.2661 39.3334 41.4167V49.75C39.3334 50.9007 40.2661 51.8334 41.4167 51.8334H45.5834C46.734 51.8334 47.6667 50.9007 47.6667 49.75V46.625H44.889M14.3334 47.6667V48.1875C14.3334 50.2011 15.9657 51.8334 17.9792 51.8334C19.9927 51.8334 21.625 50.2011 21.625 48.1875V39.3334M26.8334 51.8334V45.5834M26.8334 45.5834V41.4167C26.8334 40.2661 27.7661 39.3334 28.9167 39.3334H31C32.7259 39.3334 34.125 40.7325 34.125 42.4584C34.125 44.1842 32.7259 45.5834 31 45.5834H26.8334Z" stroke="white" stroke-width="3.125" stroke-linecap="round" stroke-linejoin="round"/>
</svg>
