<svg width="44" height="44" viewBox="0 0 44 44" fill="none" xmlns="http://www.w3.org/2000/svg">
<rect x="1" y="1" width="42" height="42" rx="9" stroke="#4A61E4" stroke-width="2"/>
<path d="M25.5 18.0404C25.4588 16.8797 25.3216 16.1545 24.8645 15.5867C24.2114 14.7754 23.0944 14.5206 20.8605 14.0112L19.8591 13.7829C16.4649 13.0088 14.7678 12.6218 13.6339 13.5132C12.5 14.4045 12.5 16.1257 12.5 19.568V24.432C12.5 27.8743 12.5 29.5955 13.6339 30.4868C14.7678 31.3782 16.4649 30.9912 19.8591 30.2171L20.8605 29.9888C23.0944 29.4794 24.2114 29.2246 24.8645 28.4133C25.3216 27.8455 25.4588 27.1203 25.5 25.9595" stroke="#4A61E4" stroke-width="1.5" stroke-linecap="round" stroke-linejoin="round"/>
<path d="M28.5 19.0117C28.5 19.0117 31.5 21.2212 31.5 22.0117C31.5 22.8023 28.5 25.0117 28.5 25.0117M31 22.0117H18.5" stroke="#4A61E4" stroke-width="1.5" stroke-linecap="round" stroke-linejoin="round"/>
</svg>
