<svg width="440" height="595" viewBox="0 0 440 595" fill="none" xmlns="http://www.w3.org/2000/svg">
<path d="M305.56 517.294C296.398 522.045 272.502 525.507 247.148 527.843C237.758 528.715 228.153 529.423 219.055 530.004C196.601 531.398 177.028 531.897 170.342 531.618C170.026 531.597 169.662 531.557 169.297 531.495L169.275 531.496C168.318 531.344 167.19 531.025 165.896 530.583C150.885 525.354 115.219 501.973 104.816 493.376C95.1814 485.418 73.0504 459.116 73.0504 459.116C72.0039 452.171 87.4154 449.062 103.509 464.971C104.531 465.974 118.404 473.113 127.634 477.837C127.82 477.913 128.008 478.011 128.195 478.11C128.944 478.48 129.648 478.855 130.304 479.187C133.232 480.676 135.314 481.711 135.76 481.947C135.376 481.638 133.946 480.599 131.874 479.113C131.398 478.766 130.897 478.399 130.372 478.011C130.205 477.889 130.036 477.744 129.847 477.624C123.076 472.668 112.437 464.831 108.416 461.4C102.517 456.378 83.1591 433.67 86.8857 431.45C96.8411 425.581 109.324 438.726 121.805 449.461C126.141 453.184 146.849 463.451 154.157 468.365C149.499 464.262 139.805 455.521 136.77 451.429C132.727 445.95 125.829 431.93 128.495 430.872C133.37 428.947 138.159 432.41 149.995 445.334C159.989 456.236 183.161 461.609 189.119 464.758C201.081 471.053 223.749 464.171 260.449 460.927C276.143 459.514 289.899 462.589 297.664 476.298C303.955 487.407 304.82 502.05 309.253 511.97C310.121 513.908 308.703 515.682 305.56 517.294Z" fill="#FFCFBF"/>
<path d="M158.385 454.923C158.385 454.923 147.213 436.105 157.137 438.529C167.061 440.954 187.277 467.876 208.83 467.037L196.926 475.52L158.385 454.923Z" fill="#FFCFBF"/>
<path d="M366.133 595.768L266.786 603.33C262.201 593.389 241.891 541.009 239.329 538.704L239.305 538.684C239.207 538.578 239.135 538.516 239.038 538.434C238.388 537.875 237.841 537.489 237.391 537.208C236.519 536.689 236.016 536.592 235.992 536.572C231.299 533.777 225.439 531.633 219.056 530.003L219.032 529.982C194.665 523.709 163.041 524.72 162.944 524.638C155.66 517.087 169.818 507.833 190.593 500.059L193.386 498.204C205.448 493.683 213.644 491.434 224.795 488.266C226.316 487.835 232.654 487.697 234.065 487.297C234.088 487.295 234.088 487.295 234.088 487.295C235.278 486.957 236.447 486.643 237.572 486.332C244.387 484.462 257.698 488.048 260.079 487.974C293.354 486.93 293.356 483.256 298.095 487.534L298.096 487.556C299.497 488.8 300.126 489.676 300.126 489.676C299.729 490.967 365.323 594.298 366.133 595.768Z" fill="#FFCFBF"/>
<path d="M261.599 535.194C241.585 541.15 205.677 539.55 184.971 535.404C179.563 534.322 173.892 534.022 169.058 531.367C164.713 528.98 161.194 525.366 157.751 521.799C147.489 511.17 137.284 500.485 127.137 489.746C124.322 486.767 121.594 481.659 124.84 479.157C126.008 478.257 127.58 478.139 129.053 478.057C138.349 477.538 148.469 477.246 156.018 482.698C161.018 486.31 164.177 492.003 169.066 495.764C174.955 500.295 183.22 501.533 190.178 498.926L261.599 535.194Z" fill="#FFCFBF"/>
<path d="M248.004 534.78C233.697 538.99 218.694 539.434 203.934 537.931C196.364 537.16 188.931 535.71 181.427 534.507C177.661 533.902 173.816 533.299 170.35 531.623C166.919 529.963 163.981 527.376 161.29 524.721C155.682 519.187 150.315 513.39 144.871 507.697C139.295 501.866 133.719 496.035 128.194 490.156C126.32 488.162 123.337 484.663 124.351 481.653C124.939 479.909 126.755 479.457 128.394 479.311C130.265 479.144 132.16 479.092 134.037 479.039C140.801 478.849 148.086 479.168 154.061 482.707C160.566 486.56 163.918 493.901 170.288 497.923C176.321 501.734 183.906 502.477 190.593 500.06C191.488 499.736 190.84 498.403 189.949 498.725C183.014 501.233 174.974 499.952 169.21 495.33C163.739 490.943 160.393 484.42 154.069 481.019C147.853 477.677 140.562 477.354 133.657 477.578C130.894 477.668 127.012 477.26 124.634 478.936C122.454 480.473 122.423 483.156 123.277 485.454C124.501 488.746 127.114 491.169 129.472 493.659C132.412 496.765 135.357 499.866 138.307 502.962C144.207 509.156 150.127 515.33 156.065 521.487C161.218 526.83 166.423 532.403 173.798 534.482C177.463 535.515 181.268 535.922 185.004 536.609C188.914 537.329 192.829 538.006 196.767 538.554C213.904 540.941 231.553 541.159 248.283 536.235C249.188 535.969 248.921 534.51 248.004 534.78Z" fill="#EF9F8A"/>
<path d="M285.767 505.051C285.14 494.455 273.179 490.719 264.61 488.699C254.271 486.261 243.5 485.591 232.936 486.689C227.034 487.303 221.196 488.475 215.51 490.171C214.642 490.43 215.118 491.755 215.986 491.496C225.665 488.608 235.785 487.313 245.88 487.632C250.921 487.792 255.949 488.368 260.898 489.338C265.719 490.282 270.714 491.443 275.167 493.573C279.793 495.785 284.042 499.741 284.363 505.158C284.417 506.062 285.82 505.955 285.767 505.051Z" fill="#EF9F8A"/>
<path d="M290.67 523.856C291.803 527.333 293.495 530.643 295.652 533.597C296.26 534.429 296.907 535.233 297.588 536.007C297.753 536.194 297.914 536.337 298.168 536.387C298.393 536.431 298.683 536.381 298.868 536.241C299.228 535.968 299.442 535.347 299.102 534.961C297.918 533.615 296.841 532.179 295.884 530.664C295.409 529.912 294.963 529.142 294.548 528.356C294.524 528.311 294.388 528.048 294.479 528.225C294.426 528.122 294.374 528.018 294.322 527.915C294.218 527.707 294.116 527.499 294.017 527.289C293.823 526.882 293.638 526.47 293.461 526.056C293.066 525.131 292.714 524.189 292.402 523.233C292.253 522.775 291.675 522.494 291.225 522.678C290.752 522.872 290.51 523.365 290.67 523.856Z" fill="#F18E7B"/>
<path d="M398.536 598.201C411.724 586.363 419.098 568.69 418.737 551.014C418.635 546.008 417.899 541.042 416.539 536.224C416.355 535.572 417.354 535.236 417.538 535.889C422.427 553.204 419.161 572.401 409.255 587.373C406.441 591.625 403.113 595.501 399.318 598.907C398.819 599.355 398.031 598.654 398.536 598.201Z" fill="#4C99AF"/>
<path d="M414.746 576.759C416.073 576.764 417.403 576.769 418.726 576.647C419.932 576.536 421.797 576.44 422.796 575.663C423.371 575.524 423.502 575.098 423.191 574.384C422.68 574.279 422.176 574.31 421.681 574.476C420.943 574.682 420.265 575.074 419.586 575.417C418.232 576.102 416.883 576.801 415.532 577.493C414.934 577.799 414.351 576.921 414.955 576.612C416.357 575.894 423.817 570.917 424.723 574.488C425.618 578.014 416.538 577.817 414.812 577.81C414.137 577.808 414.067 576.756 414.746 576.759Z" fill="#4C99AF"/>
<path d="M416.906 569.218C418.981 568.747 421.045 568.218 423.077 567.585C424.568 567.121 427.604 566.304 428.218 564.634C428.678 564.215 428.454 563.954 427.546 563.852C427.292 563.838 427.039 563.825 426.785 563.811C426.238 563.851 425.695 564.065 425.196 564.279C424.239 564.689 423.323 565.223 422.45 565.789C420.685 566.932 419.129 568.326 417.748 569.908C417.302 570.419 416.52 569.714 416.966 569.202C418.856 567.037 421.092 565.208 423.643 563.874C425.153 563.084 427.92 561.859 429.271 563.656C430.418 565.18 427.159 567.066 426.131 567.561C423.377 568.89 420.205 569.544 417.24 570.217C416.584 570.366 416.245 569.368 416.906 569.218Z" fill="#4C99AF"/>
<path d="M419.034 559.405C421.182 559.045 423.276 558.441 425.273 557.566C426.248 557.138 427.194 556.646 428.107 556.098C428.546 555.834 428.978 555.559 429.4 555.268C429.605 555.131 429.806 554.987 430.002 554.838C431.1 554.143 431.149 553.612 430.151 553.244C429.457 552.75 429.288 552.729 428.527 552.841C427.949 552.926 427.377 553.078 426.829 553.279C425.825 553.647 424.885 554.172 424.026 554.806C422.271 556.102 420.887 557.815 419.606 559.561C419.205 560.107 418.426 559.398 418.824 558.855C420.63 556.395 422.69 554.038 425.493 552.703C426.939 552.014 430.566 550.712 431.656 552.568C432.998 554.853 429.276 556.678 427.795 557.489C425.078 558.977 422.151 559.946 419.1 560.456C418.431 560.568 418.371 559.515 419.034 559.405Z" fill="#4C99AF"/>
<path d="M419.383 548.874C420.828 547.404 422.571 546.374 424.277 545.243C426.043 544.073 429.633 541.423 428.613 538.926C428.574 538.342 428.261 538.116 427.673 538.247C427.287 538.248 426.912 538.312 426.545 538.44C425.943 538.639 425.366 538.996 424.906 539.428C423.958 540.318 423.411 541.54 422.992 542.748C422.236 544.923 421.868 547.177 420.622 549.155C420.264 549.723 419.323 549.248 419.685 548.673C421.398 545.955 421.405 542.533 423.196 539.861C424.349 538.141 427.238 536.164 429.324 537.619C431.211 538.934 428.933 542.495 427.878 543.657C425.67 546.088 422.459 547.247 420.164 549.581C419.691 550.063 418.906 549.36 419.383 548.874Z" fill="#4C99AF"/>
<path d="M416.865 536.841C418.18 534.928 418.927 532.776 419.253 530.485C419.569 528.268 419.759 525.39 418.503 523.4C418.278 522.733 417.906 522.642 417.387 523.127C416.848 523.132 416.604 523.363 416.655 523.817C416.445 524.323 416.535 525.247 416.516 525.792C416.478 526.852 416.5 527.914 416.576 528.971C416.752 531.403 417.247 533.782 417.998 536.099C418.207 536.745 417.207 537.079 416.999 536.434C415.948 533.189 415.394 529.803 415.451 526.388C415.475 524.931 415.307 520.734 417.898 521.517C420.322 522.25 420.557 526.254 420.497 528.258C420.4 531.466 419.636 534.656 417.802 537.322C417.424 537.873 416.481 537.399 416.865 536.841Z" fill="#4C99AF"/>
<path d="M418.183 548.628C417.599 546.894 416.696 545.344 415.618 543.873C415.137 543.217 414.629 542.58 414.113 541.951C413.891 541.679 413.474 540.936 413.146 540.802C412.064 540.95 411.673 541.317 411.973 541.902C412.058 542.144 412.155 542.381 412.265 542.613C412.674 543.512 413.237 544.622 414.009 545.272C414.662 545.821 415.537 545.959 416.297 546.303C417.662 546.921 418.755 547.911 419.619 549.122C420.014 549.675 419.131 550.25 418.738 549.699C417.739 548.299 416.494 547.501 414.903 546.896C414.025 546.562 413.351 546.19 412.748 545.45C411.758 544.233 409.747 541.212 411.253 539.714C412.739 538.235 414.311 540.531 415.15 541.563C416.819 543.614 418.331 545.768 419.182 548.293C419.399 548.937 418.399 549.271 418.183 548.628Z" fill="#4C99AF"/>
<path d="M417.883 560.559C417.254 559.453 416.628 558.332 415.858 557.315C415.359 556.657 413.579 554.351 412.585 554.594C411.947 554.749 413.409 557.66 413.731 558.053C414.66 559.187 416.302 559.47 417.656 559.851C418.305 560.034 418.095 561.067 417.441 560.882C415.699 560.391 413.661 559.987 412.631 558.344C412.007 557.347 410.781 554.992 411.467 553.808C412.174 552.59 413.834 553.905 414.593 554.492C416.44 555.922 417.629 557.987 418.764 559.983C419.099 560.57 418.219 561.15 417.883 560.559Z" fill="#4C99AF"/>
<path d="M415.879 571.095C414.129 569.78 412.601 568.204 411.39 566.377C410.716 565.36 409.133 563.393 410.835 562.531C412.468 561.704 413.99 563.339 414.837 564.528C416.007 566.17 416.657 568.09 416.859 570.087C416.927 570.763 415.875 570.826 415.807 570.153C415.668 568.78 415.307 567.445 414.652 566.224C414.375 565.709 414.054 565.213 413.693 564.752C413.464 564.46 413.214 564.155 412.928 563.914C412.375 563.45 411.259 563.428 411.448 564.426C411.643 565.459 412.947 566.796 413.614 567.569C414.5 568.598 415.501 569.499 416.586 570.313C417.127 570.72 416.418 571.5 415.879 571.095Z" fill="#4C99AF"/>
<path d="M413.031 577.768C411.635 576.153 410.368 574.419 409.379 572.522C408.927 571.656 408.161 570.052 409.275 569.325C410.397 568.593 411.625 569.916 412.175 570.786C413.217 572.433 413.551 574.581 413.925 576.454C414.057 577.112 413.059 577.452 412.926 576.789C412.699 575.651 412.453 574.511 412.124 573.397C411.954 572.817 411.768 572.232 411.485 571.696C411.195 571.146 410.926 570.397 410.259 570.807C409.825 570.873 409.734 571.066 409.986 571.385C410.14 571.721 410.308 572.049 410.491 572.369C410.762 572.862 411.056 573.344 411.36 573.817C412.075 574.931 412.872 575.985 413.737 576.987C414.175 577.492 413.474 578.281 413.031 577.768Z" fill="#4C99AF"/>
<path d="M378.412 603.132C388.714 584.802 390.239 562.175 383.142 542.443C381.11 536.793 378.352 531.447 374.953 526.5C374.293 525.539 375.836 524.589 376.496 525.55C388.708 543.327 392.339 566.416 386.821 587.208C385.267 593.064 382.979 598.704 380.011 603.984C379.441 605 377.84 604.151 378.412 603.132Z" fill="#F28A75"/>
<path d="M388.705 572.594C390.329 572.049 391.968 571.511 393.519 570.776C394.163 570.471 397.556 568.87 397.53 568.054C397.464 565.97 394.148 569.437 393.788 569.807C392.544 571.084 391.304 572.365 390.062 573.644C389.252 574.479 387.932 573.236 388.747 572.397C389.995 571.111 397.379 561.861 399.511 566.616C400.254 568.271 398.487 569.765 397.327 570.629C394.929 572.413 392.036 573.387 389.233 574.327C388.125 574.699 387.599 572.965 388.705 572.594Z" fill="#F28A75"/>
<path d="M388.185 563.262C390.133 562.066 392.047 560.82 393.911 559.496C394.988 558.731 396.071 557.953 397.012 557.021C397.64 556.399 399.05 555.055 398.935 554.115C399.181 553.657 399.025 553.528 398.466 553.727C398.099 553.667 397.762 553.739 397.456 553.944C396.752 554.225 396.183 554.76 395.638 555.272C394.841 556.022 394.105 556.866 393.43 557.724C391.881 559.694 390.677 561.857 389.719 564.168C389.273 565.244 387.677 564.385 388.12 563.315C389.55 559.865 391.609 556.617 394.323 554.026C395.742 552.67 398.377 550.815 400.353 552.35C402.256 553.828 399.435 557.165 398.327 558.268C395.697 560.888 392.28 562.875 389.135 564.805C388.142 565.414 387.188 563.873 388.185 563.262Z" fill="#F28A75"/>
<path d="M386.688 551.444C388.883 550.262 390.946 548.876 392.805 547.208C393.635 546.462 394.424 545.674 395.169 544.843C395.718 544.232 397.565 542.568 397.555 541.738C397.278 541.236 397.002 540.735 396.725 540.233C396.371 540.333 396.03 540.466 395.701 540.631C395.18 540.864 394.685 541.135 394.213 541.457C393.269 542.099 392.425 542.903 391.704 543.787C389.865 546.044 388.809 548.796 387.938 551.54C387.587 552.645 385.816 552.255 386.169 551.144C387.291 547.611 388.717 544.044 391.429 541.416C392.908 539.983 396.673 537.032 398.771 538.867C401.161 540.957 398.103 544.25 396.708 545.841C394.149 548.76 391.05 551.15 387.638 552.986C386.616 553.537 385.657 551.998 386.688 551.444Z" fill="#F28A75"/>
<path d="M383.061 539.429C384.389 536.719 386.492 534.623 388.178 532.154C388.874 531.134 389.49 530.028 389.86 528.846C390.175 527.838 390.735 525.45 389.679 524.768C388.495 524.004 386.814 525.832 386.258 526.769C385.437 528.152 385.289 529.827 385.289 531.398C385.29 534.152 385.695 536.834 385.054 539.553C384.786 540.689 383.018 540.292 383.286 539.157C384.241 535.109 382.622 530.784 384.22 526.842C385.095 524.682 387.697 522.02 390.307 522.82C392.864 523.605 392.079 528.056 391.404 529.89C389.952 533.839 386.492 536.544 384.66 540.281C384.146 541.329 382.548 540.475 383.061 539.429Z" fill="#F28A75"/>
<path d="M375.567 526.871C376.368 524.022 376.316 521.112 375.678 518.233C375.232 516.219 374.18 511.758 371.843 511.084C371.189 510.532 370.857 510.89 370.846 512.159C370.896 512.373 370.946 512.587 370.996 512.801C371.06 513.433 371.333 514.1 371.519 514.711C371.905 515.973 372.358 517.215 372.882 518.427C373.988 520.987 375.433 523.376 377.096 525.611C377.792 526.546 376.246 527.493 375.553 526.561C373.203 523.403 371.342 519.917 370.089 516.181C369.488 514.389 367.462 508.93 371.199 509.001C374.351 509.061 376.15 513.327 376.913 515.816C378.053 519.532 378.395 523.497 377.335 527.268C377.021 528.388 375.251 527.995 375.567 526.871Z" fill="#F28A75"/>
<path d="M381.563 539.882C380.184 538.09 378.471 536.659 376.612 535.384C375.852 534.863 375.069 534.374 374.285 533.889C374.044 533.739 373.469 533.224 373.187 533.224C372.892 532.961 372.713 533.111 372.649 533.673C372.135 534.174 372.241 534.61 372.968 534.983C373.626 535.688 374.388 536.435 375.211 536.941C376.36 537.647 377.544 537.493 378.821 537.614C380.612 537.785 382.226 538.458 383.685 539.49C384.623 540.155 383.783 541.762 382.832 541.089C380.89 539.714 379.115 539.548 376.818 539.351C375.533 539.241 374.58 538.75 373.568 537.973C372.06 536.814 369.115 534.378 370.386 532.124C371.714 529.771 374.56 531.913 376.017 532.838C378.688 534.535 381.162 536.405 383.106 538.931C383.815 539.855 382.269 540.8 381.563 539.882Z" fill="#F28A75"/>
<path d="M385.831 553.542C384.512 552.37 383.193 551.179 381.674 550.268C380.935 549.825 378.21 548.216 377.333 548.901C377.476 548.632 377.62 548.363 377.763 548.094C377.738 549.514 379.633 551.325 380.74 551.937C382.166 552.727 383.985 552.467 385.579 552.384C386.747 552.323 386.815 554.134 385.65 554.195C383.275 554.319 380.754 554.586 378.858 552.881C377.798 551.929 375.519 549.687 375.963 548.048C376.451 546.248 379.069 547.153 380.248 547.577C382.882 548.524 385.017 550.396 387.077 552.226C387.949 553 386.704 554.317 385.831 553.542Z" fill="#F28A75"/>
<path d="M387.89 566.355C385.308 565.497 382.914 564.289 380.754 562.624C379.493 561.651 376.978 559.951 378.583 558.184C381.971 554.454 387.549 561.7 388.75 564.297C389.233 565.342 387.697 566.307 387.207 565.248C386.592 563.917 385.843 562.701 384.819 561.637C384.327 561.127 380.172 558.029 380.378 559.569C380.53 560.71 382.911 561.993 383.801 562.533C385.22 563.393 386.712 564.063 388.287 564.586C389.385 564.951 388.996 566.722 387.89 566.355Z" fill="#F28A75"/>
<path d="M387.002 574.9C385.251 573.865 376.909 569.165 379.579 566.274C380.595 565.175 382.335 565.929 383.317 566.617C385.396 568.073 386.716 570.616 387.957 572.755C388.541 573.762 387.002 574.719 386.414 573.706C385.797 572.642 385.166 571.581 384.47 570.565C384.035 569.93 383.589 569.274 383.035 568.734C382.672 568.38 381.756 567.149 381.676 568.171C381.601 569.121 383.323 570.141 384.036 570.709C385.245 571.671 386.526 572.515 387.855 573.301C388.855 573.892 388.009 575.494 387.002 574.9Z" fill="#F28A75"/>
<path d="M153.051 607.129C130.432 594.258 114.334 571.199 109.335 545.72C107.919 538.504 107.424 531.15 107.872 523.81C107.933 522.818 106.395 522.647 106.334 523.642C104.724 550.016 115.402 576.544 134.29 594.936C139.655 600.16 145.641 604.683 152.149 608.387C153.006 608.874 153.917 607.622 153.051 607.129Z" fill="#4C99AF"/>
<path d="M123.097 581.419C121.194 581.841 119.287 582.264 117.351 582.502C115.586 582.718 112.879 583.162 111.203 582.359C110.335 582.34 110.013 581.77 110.237 580.648C110.938 580.338 111.67 580.225 112.432 580.309C113.555 580.373 114.651 580.725 115.732 581.006C117.89 581.566 120.042 582.148 122.198 582.719C123.152 582.971 123.713 581.529 122.751 581.274C120.514 580.681 108.256 575.868 108.071 581.275C107.888 586.615 120.856 583.497 123.33 582.95C124.299 582.735 124.07 581.204 123.097 581.419Z" fill="#4C99AF"/>
<path d="M117.644 571.271C114.519 571.243 111.392 571.128 108.278 570.854C105.994 570.654 101.383 570.428 99.9803 568.224C99.1894 567.766 99.4293 567.322 100.7 566.892C101.06 566.793 101.42 566.695 101.78 566.597C102.578 566.483 103.423 566.62 104.206 566.771C105.708 567.062 107.189 567.542 108.618 568.081C111.508 569.171 114.175 570.686 116.651 572.526C117.45 573.12 118.352 571.863 117.552 571.268C114.165 568.751 110.385 566.824 106.308 565.705C103.895 565.043 99.5419 564.149 98.1631 567.149C96.9935 569.694 102.258 571.383 103.888 571.774C108.255 572.82 113.011 572.769 117.476 572.809C118.464 572.818 118.639 571.28 117.644 571.271Z" fill="#4C99AF"/>
<path d="M111.528 557.853C108.333 558.008 105.139 557.795 102.001 557.161C100.467 556.852 98.9564 556.441 97.4748 555.939C96.7622 555.698 96.0563 555.438 95.3605 555.152C95.0233 555.019 94.6905 554.876 94.3621 554.723C92.5701 554.068 92.3331 553.322 93.6514 552.482C94.4936 551.557 94.7282 551.474 95.8555 551.397C96.7117 551.339 97.5797 551.379 98.4299 551.496C99.9851 551.71 101.497 552.171 102.928 552.813C105.851 554.124 108.371 556.152 110.755 558.257C111.501 558.915 112.398 557.653 111.657 556.999C108.297 554.033 104.606 551.294 100.166 550.252C97.8762 549.715 92.2659 548.978 91.2813 551.982C90.0687 555.68 95.9787 557.137 98.3563 557.839C102.72 559.126 107.222 559.603 111.761 559.383C112.756 559.334 112.513 557.805 111.528 557.853Z" fill="#4C99AF"/>
<path d="M107.74 542.851C105.207 541.193 102.385 540.259 99.5836 539.168C96.6848 538.039 90.7057 535.357 91.3898 531.456C91.2633 530.606 91.6424 530.183 92.5269 530.188C93.08 530.07 93.6395 530.044 94.2052 530.113C95.1308 530.211 96.0713 530.543 96.8657 531.019C98.5047 532.001 99.6697 533.584 100.649 535.186C102.412 538.072 103.643 541.192 106.048 543.64C106.74 544.344 107.942 543.369 107.243 542.656C103.936 539.29 102.858 534.382 99.4545 531.107C97.2629 528.998 92.5008 527.064 89.9602 529.802C87.6639 532.278 92.0434 536.678 93.9212 538.016C97.8474 540.815 102.818 541.476 106.839 544.109C107.669 544.652 108.577 543.398 107.74 542.851Z" fill="#4C99AF"/>
<path d="M107.597 524.796C105.112 522.462 103.37 519.607 102.186 516.421C101.041 513.339 99.8709 509.268 101.052 506.02C101.167 504.993 101.672 504.746 102.568 505.28C103.343 505.12 103.765 505.374 103.834 506.042C104.293 506.702 104.452 508.057 104.65 508.832C105.035 510.341 105.335 511.873 105.556 513.414C106.062 516.958 106.094 520.526 105.741 524.086C105.642 525.079 107.181 525.246 107.279 524.254C107.774 519.27 107.512 514.239 106.364 509.356C105.874 507.272 104.806 501.198 101.332 503.13C98.0826 504.938 98.995 510.757 99.707 513.615C100.846 518.187 102.939 522.527 106.402 525.781C107.117 526.452 108.322 525.478 107.597 524.796Z" fill="#4C99AF"/>
<path d="M109.385 542.123C109.682 539.453 110.494 536.947 111.581 534.499C112.067 533.407 112.597 532.336 113.141 531.271C113.376 530.811 113.741 529.614 114.171 529.321C115.769 529.195 116.444 529.599 116.197 530.533C116.152 530.906 116.086 531.277 116 531.644C115.694 533.061 115.233 534.831 114.327 536.004C113.561 536.996 112.35 537.468 111.366 538.198C109.6 539.511 108.34 541.273 107.478 543.281C107.084 544.198 108.53 544.747 108.923 543.833C109.92 541.512 111.456 539.979 113.551 538.613C114.706 537.86 115.557 537.117 116.192 535.866C117.233 533.811 119.175 528.848 116.547 527.168C113.954 525.51 112.415 529.296 111.532 531.037C109.778 534.502 108.279 538.065 107.847 541.955C107.737 542.946 109.275 543.113 109.385 542.123Z" fill="#4C99AF"/>
<path d="M113.539 559.151C114.097 557.367 114.645 555.563 115.433 553.863C115.943 552.763 117.777 548.899 119.28 548.936C120.245 548.961 119.055 553.594 118.716 554.258C117.737 556.176 115.468 557.094 113.644 558.064C112.77 558.529 113.394 559.945 114.275 559.476C116.621 558.228 119.419 557.012 120.383 554.332C120.968 552.708 121.993 548.945 120.639 547.461C119.244 545.933 117.272 548.339 116.366 549.418C114.163 552.045 113.1 555.381 112.094 558.599C111.798 559.546 113.241 560.103 113.539 559.151Z" fill="#4C99AF"/>
<path d="M119.704 573.644C121.805 571.212 123.506 568.472 124.673 565.474C125.323 563.804 126.981 560.487 124.27 559.781C121.668 559.105 119.994 561.926 119.149 563.896C117.983 566.617 117.65 569.575 117.984 572.504C118.097 573.495 119.626 573.258 119.514 572.271C119.284 570.256 119.385 568.229 119.945 566.272C120.181 565.446 120.488 564.634 120.861 563.86C121.098 563.369 121.363 562.853 121.698 562.419C122.347 561.58 123.941 561.2 123.982 562.692C124.024 564.234 122.57 566.561 121.855 567.878C120.903 569.63 119.749 571.236 118.447 572.743C117.796 573.496 119.057 574.394 119.704 573.644Z" fill="#4C99AF"/>
<path d="M125.873 582.332C127.372 579.579 128.65 576.695 129.477 573.664C129.855 572.28 130.454 569.739 128.629 569.043C126.79 568.343 125.44 570.625 124.922 572.045C123.942 574.734 124.133 577.92 124.18 580.726C124.196 581.71 125.735 581.887 125.718 580.894C125.689 579.189 125.687 577.477 125.81 575.776C125.874 574.891 125.958 573.994 126.197 573.135C126.442 572.256 126.594 571.097 127.679 571.477C128.321 571.436 128.512 571.685 128.251 572.222C128.134 572.751 127.995 573.274 127.833 573.791C127.597 574.584 127.327 575.366 127.039 576.14C126.36 577.963 125.545 579.723 124.616 581.43C124.146 582.293 125.397 583.207 125.873 582.332Z" fill="#4C99AF"/>
<path d="M69.2243 598.14C57.7175 577.666 56.0145 552.394 63.9413 530.353C66.2107 524.043 69.2918 518.072 73.0878 512.547C73.8256 511.473 72.1019 510.412 71.3646 511.485C57.7244 531.341 53.6694 557.13 59.8323 580.354C61.568 586.894 64.1238 593.194 67.4387 599.092C68.0758 600.225 69.8641 599.278 69.2243 598.14Z" fill="#F28A75"/>
<path d="M57.7284 564.03C55.914 563.421 54.0833 562.82 52.3505 561.999C51.6316 561.658 47.8417 559.871 47.8706 558.96C47.9445 556.631 51.6488 560.504 52.0508 560.917C53.44 562.343 54.8248 563.774 56.2119 565.202C57.1173 566.135 58.5916 564.747 57.6811 563.81C56.2868 562.373 48.0393 552.042 45.6581 557.352C44.8291 559.201 46.8018 560.87 48.0981 561.835C50.7766 563.828 54.0075 564.916 57.1386 565.966C58.3758 566.381 58.9632 564.444 57.7284 564.03Z" fill="#F28A75"/>
<path d="M58.309 553.607C56.1333 552.272 53.9949 550.879 51.9133 549.401C50.7106 548.547 49.5001 547.678 48.4494 546.637C47.7482 545.942 46.1725 544.441 46.3014 543.391C46.0264 542.88 46.2012 542.735 46.8255 542.958C47.2355 542.89 47.6112 542.971 47.9528 543.2C48.7392 543.514 49.375 544.112 49.9837 544.684C50.8742 545.521 51.6962 546.463 52.4502 547.422C54.18 549.622 55.5255 552.038 56.5953 554.619C57.0938 555.821 58.8762 554.861 58.3812 553.667C56.7837 549.813 54.484 546.185 51.4529 543.291C49.8673 541.777 46.9244 539.705 44.7182 541.419C42.5925 543.071 45.7429 546.797 46.9802 548.03C49.9186 550.956 53.735 553.176 57.2471 555.331C58.3565 556.011 59.4224 554.29 58.309 553.607Z" fill="#F28A75"/>
<path d="M59.9813 540.406C57.5289 539.086 55.2246 537.539 53.1489 535.675C52.2217 534.842 51.3404 533.961 50.508 533.034C49.8951 532.351 47.8324 530.493 47.8433 529.566C48.1523 529.006 48.461 528.445 48.77 527.885C49.1653 527.997 49.5465 528.145 49.9137 528.329C50.4958 528.59 51.0487 528.893 51.5763 529.252C52.6303 529.969 53.5732 530.867 54.3782 531.855C56.4324 534.375 57.612 537.45 58.5849 540.515C58.9765 541.749 60.9542 541.313 60.5602 540.071C59.3078 536.126 57.7143 532.142 54.685 529.206C53.0333 527.606 48.8284 524.309 46.4846 526.359C43.8151 528.694 47.2312 532.371 48.7894 534.149C51.6473 537.409 55.1083 540.078 58.9194 542.129C60.061 542.744 61.1325 541.026 59.9813 540.406Z" fill="#F28A75"/>
<path d="M64.0314 526.987C62.5479 523.96 60.1993 521.62 58.3164 518.861C57.5393 517.722 56.8509 516.487 56.4375 515.166C56.0855 514.041 55.4598 511.374 56.6394 510.612C57.9617 509.758 59.8395 511.8 60.4607 512.847C61.3773 514.391 61.5425 516.262 61.5423 518.016C61.5417 521.093 61.0888 524.089 61.805 527.126C62.1042 528.395 64.0795 527.951 63.7803 526.683C62.7139 522.161 64.5213 517.331 62.7376 512.928C61.7601 510.516 58.8533 507.542 55.9383 508.436C53.0823 509.312 53.9593 514.283 54.7127 516.333C56.3344 520.744 60.199 523.764 62.2455 527.939C62.8194 529.109 64.6045 528.156 64.0314 526.987Z" fill="#F28A75"/>
<path d="M72.4015 512.961C71.5075 509.779 71.5656 506.528 72.2774 503.313C72.7755 501.063 73.9509 496.08 76.5615 495.328C77.291 494.711 77.6622 495.111 77.6752 496.528C77.6191 496.768 77.5633 497.007 77.5073 497.246C77.4353 497.951 77.1308 498.697 76.9228 499.379C76.4924 500.789 75.986 502.176 75.4012 503.529C74.1653 506.389 72.5513 509.057 70.694 511.553C69.9169 512.597 71.6432 513.655 72.4171 512.615C75.0423 509.087 77.1207 505.194 78.52 501.021C79.1914 499.019 81.4539 492.921 77.2804 493.001C73.7593 493.068 71.75 497.833 70.8975 500.613C69.6246 504.763 69.2428 509.192 70.4261 513.404C70.7776 514.655 72.754 514.216 72.4015 512.961Z" fill="#F28A75"/>
<path d="M65.7054 527.493C67.2453 525.491 69.159 523.893 71.2347 522.469C72.0841 521.887 72.9584 521.341 73.8341 520.799C74.1037 520.632 74.7454 520.057 75.061 520.056C75.3899 519.762 75.59 519.93 75.6609 520.558C76.2356 521.117 76.1171 521.604 75.3052 522.021C74.5695 522.808 73.7188 523.643 72.7993 524.208C71.5166 524.997 70.1935 524.825 68.7676 524.96C66.7668 525.15 64.9644 525.903 63.3353 527.056C62.2866 527.798 63.2253 529.593 64.2872 528.841C66.457 527.306 68.4392 527.12 71.0052 526.9C72.4398 526.777 73.5046 526.229 74.6351 525.36C76.3192 524.066 79.6086 521.346 78.1888 518.828C76.7064 516.199 73.527 518.592 71.8997 519.626C68.9158 521.52 66.1525 523.609 63.9822 526.431C63.1892 527.462 64.9166 528.518 65.7054 527.493Z" fill="#F28A75"/>
<path d="M60.9386 542.75C62.4115 541.441 63.8853 540.11 65.5816 539.093C66.4068 538.598 69.4504 536.801 70.4297 537.566C70.2695 537.266 70.1093 536.965 69.9494 536.665C69.977 538.251 67.8606 540.273 66.6249 540.957C65.0314 541.84 63.0008 541.55 61.2194 541.456C59.9155 541.388 59.8395 543.411 61.14 543.479C63.7931 543.618 66.6085 543.916 68.7273 542.012C69.9111 540.948 72.4566 538.444 71.9603 536.614C71.4148 534.603 68.4908 535.614 67.1744 536.087C64.232 537.145 61.848 539.236 59.5462 541.28C58.5725 542.145 59.9636 543.616 60.9386 542.75Z" fill="#F28A75"/>
<path d="M58.6383 557.062C61.5228 556.103 64.196 554.755 66.6087 552.894C68.0176 551.808 70.8263 549.909 69.0335 547.935C65.2495 543.769 59.0188 551.862 57.6776 554.763C57.138 555.931 58.854 557.008 59.4011 555.825C60.0881 554.338 60.9247 552.98 62.0687 551.792C62.6182 551.222 67.2585 547.763 67.029 549.482C66.8589 550.756 64.199 552.19 63.2053 552.792C61.6211 553.753 59.9537 554.502 58.1952 555.086C56.9688 555.494 57.4029 557.472 58.6383 557.062Z" fill="#F28A75"/>
<path d="M59.6297 566.605C61.5859 565.449 70.9029 560.2 67.9207 556.971C66.7865 555.743 64.8428 556.585 63.7453 557.354C61.4238 558.98 59.949 561.82 58.563 564.21C57.9107 565.334 59.6302 566.403 60.2862 565.272C60.9756 564.083 61.6799 562.898 62.4576 561.764C62.944 561.054 63.4419 560.322 64.0604 559.718C64.4661 559.323 65.4887 557.947 65.579 559.089C65.6627 560.15 63.7394 561.289 62.9424 561.924C61.592 562.999 60.1623 563.942 58.6777 564.819C57.56 565.48 58.5056 567.269 59.6297 566.605Z" fill="#F28A75"/>
<path d="M229.63 196.452C274.17 196.452 310.277 162.545 310.277 120.718C310.277 78.8922 274.17 44.9854 229.63 44.9854C185.091 44.9854 148.984 78.8922 148.984 120.718C148.984 162.545 185.091 196.452 229.63 196.452Z" fill="white"/>
<path d="M310.901 193.494C342.185 193.494 367.545 172.703 367.545 147.055C367.545 121.407 342.185 100.615 310.901 100.615C279.618 100.615 254.258 121.407 254.258 147.055C254.258 172.703 279.618 193.494 310.901 193.494Z" fill="#4A61E4" fill-opacity="0.05"/>
<path d="M154.398 193.494C185.682 193.494 211.042 172.703 211.042 147.055C211.042 121.407 185.682 100.615 154.398 100.615C123.115 100.615 97.7549 121.407 97.7549 147.055C97.7549 172.703 123.115 193.494 154.398 193.494Z" fill="white"/>
<path d="M171.643 127.717C171.643 95.1509 195.201 66.3789 231.177 66.3789C263.493 66.3789 289.69 92.7788 289.69 125.345C289.69 157.911 263.493 184.311 231.177 184.311C198.861 184.311 171.643 160.283 171.643 127.717Z" fill="#4A61E4"/>
<path d="M264.052 158.541H199.504C197.974 158.541 196.734 157.291 196.734 155.75V143.79C196.734 142.248 197.974 140.999 199.504 140.999C201.033 140.999 202.273 142.248 202.273 143.79V150.168C202.273 151.71 203.514 152.959 205.043 152.959H258.513C260.043 152.959 261.283 151.71 261.283 150.168V143.79C261.283 142.248 262.523 140.999 264.052 140.999H264.053C265.582 140.999 266.822 142.248 266.822 143.79V155.75C266.822 157.291 265.582 158.541 264.052 158.541Z" fill="white"/>
<path d="M240.463 119.104V85.2138C240.463 83.9258 239.427 82.8818 238.149 82.8818H226.506C225.228 82.8818 224.192 83.9258 224.192 85.2138V119.104C224.192 120.392 223.156 121.436 221.878 121.436H216.019C213.976 121.436 212.935 123.91 214.356 125.389L230.557 142.265C231.481 143.227 233.017 143.209 233.919 142.226L249.403 125.351C250.774 123.858 249.723 121.436 247.704 121.436H242.777C241.499 121.436 240.463 120.392 240.463 119.104Z" fill="white"/>
<path d="M178.747 93.3263C182.64 83.9437 189.641 76.5381 198.661 72.0161C199.941 71.3748 198.817 69.4443 197.541 70.0843C187.967 74.8843 180.725 82.8058 176.606 92.7315C176.056 94.0581 178.203 94.6371 178.747 93.3263Z" fill="#FF8D67"/>
<path d="M291.769 134.24C291.42 137.621 290.57 140.867 289.283 144.007C288.738 145.336 290.885 145.916 291.424 144.601C292.792 141.262 293.618 137.83 293.989 134.24C294.136 132.809 291.915 132.82 291.769 134.24Z" fill="#FF8D67"/>
<path d="M155.407 3.00328C155.407 3.00328 143.51 -3.75609 136.129 3.00626C128.747 9.7686 142.663 19.9289 123.434 18.5403C104.206 17.1517 100.619 29.2084 107.713 32.7068C114.807 36.2051 166.386 35.551 169.315 33.0714C172.245 30.5918 167.51 29.7043 165.099 25.5296C162.688 21.3549 174.488 26.0851 174.189 18.5322C173.89 10.9792 158.117 13.194 158.158 9.37009C158.199 5.54591 158.322 4.33726 155.407 3.00328Z" fill="#4A61E4" fill-opacity="0.2"/>
<path d="M103.791 23.0508C103.728 23.0663 103.661 23.0666 103.594 23.0485C103.393 22.9934 103.277 22.7892 103.338 22.5924C104.196 19.7838 112.493 14.0709 120.614 15.5972C125.19 16.4573 128.857 15.9428 130.424 14.2214C131.239 13.3258 131.426 12.1335 130.963 10.7733C129.494 6.45491 131.851 2.5311 131.952 2.36645C132.06 2.18944 132.294 2.12913 132.474 2.23147C132.655 2.33333 132.714 2.55953 132.606 2.73629C132.583 2.77386 130.33 6.53945 131.688 10.5317C132.24 12.1557 132 13.599 130.992 14.7057C129.215 16.658 125.376 17.2479 120.457 16.3233C112.871 14.8973 104.846 20.2461 104.068 22.7917C104.028 22.9242 103.92 23.0194 103.791 23.0508Z" fill="#4A61E4" fill-opacity="0.2"/>
<path d="M126.05 37.6536C126.029 37.6587 126.008 37.6622 125.986 37.6639C125.484 37.703 113.635 38.6019 108.383 37.2553C102.952 35.863 102.33 31.5955 102.306 31.4148C102.279 31.2128 102.428 31.0257 102.636 30.996C102.845 30.9669 103.035 31.107 103.062 31.309C103.085 31.4766 103.664 35.2776 108.589 36.5401C113.716 37.8548 125.816 36.9364 125.937 36.927C126.147 36.9107 126.328 37.0625 126.342 37.2662C126.354 37.4479 126.227 37.6098 126.05 37.6536Z" fill="#4A61E4" fill-opacity="0.2"/>
<path d="M424.976 81.2377C424.976 81.2377 415.462 75.8321 409.558 81.2402C403.654 86.6483 414.784 94.7738 399.406 93.6633C384.029 92.5528 381.161 102.195 386.833 104.992C392.506 107.79 433.755 107.267 436.098 105.284C438.441 103.301 434.654 102.591 432.726 99.2528C430.798 95.9142 440.235 99.6971 439.996 93.6568C439.756 87.6166 427.143 89.3877 427.175 86.3296C427.208 83.2713 427.307 82.3047 424.976 81.2377Z" fill="#4A61E4" fill-opacity="0.2"/>
<path d="M383.697 97.2705C383.646 97.2829 383.592 97.2831 383.539 97.2686C383.378 97.2246 383.286 97.0611 383.334 96.9039C384.02 94.6577 390.656 90.0889 397.15 91.3097C400.81 91.9974 403.742 91.586 404.996 90.2095C405.648 89.4934 405.797 88.5399 405.427 87.4521C404.252 83.9985 406.137 80.8606 406.217 80.7288C406.304 80.5872 406.491 80.5392 406.635 80.6208C406.78 80.7024 406.827 80.8831 406.74 81.0245C406.722 81.0547 404.92 84.066 406.007 87.2588C406.448 88.5576 406.256 89.7119 405.45 90.5969C404.029 92.1581 400.959 92.6298 397.025 91.8906C390.958 90.7502 384.541 95.0278 383.919 97.0636C383.886 97.1692 383.799 97.2453 383.697 97.2705Z" fill="#4A61E4" fill-opacity="0.2"/>
<path d="M401.498 108.948C401.481 108.952 401.464 108.955 401.446 108.956C401.045 108.987 391.569 109.706 387.369 108.629C383.026 107.516 382.528 104.103 382.509 103.958C382.488 103.796 382.607 103.647 382.773 103.623C382.939 103.6 383.092 103.712 383.114 103.873C383.132 104.007 383.595 107.047 387.533 108.057C391.633 109.108 401.31 108.374 401.407 108.366C401.575 108.353 401.72 108.475 401.731 108.638C401.741 108.783 401.639 108.913 401.498 108.948Z" fill="#4A61E4" fill-opacity="0.2"/>
<path d="M71.8367 186.376C71.8367 186.376 55.1563 175.165 43.5992 184.256C32.0418 193.347 51.3049 209.762 23.2944 205.609C-4.7162 201.456 -11.2976 218.72 -1.29325 224.625C8.71084 230.531 84.3292 235.258 88.8936 231.949C93.4579 228.64 86.6207 226.818 83.5493 220.438C80.4779 214.058 97.2401 222.286 97.6344 211.191C98.0287 200.095 74.6834 201.601 75.1642 196.004C75.6446 190.408 75.959 188.652 71.8367 186.376Z" fill="#4A61E4" fill-opacity="0.2"/>
<path d="M-5.97354 210.051C-6.06748 210.067 -6.16636 210.059 -6.26178 210.025C-6.55127 209.922 -6.69713 209.611 -6.58761 209.329C-5.02125 205.31 7.76129 197.857 19.4875 200.988C26.0948 202.752 31.5232 202.402 34.0077 200.054C35.3004 198.832 35.7051 197.106 35.1778 195.063C33.5022 188.576 37.3854 183.089 37.5518 182.859C37.7298 182.611 38.0791 182.549 38.3325 182.718C38.5857 182.888 38.647 183.225 38.4692 183.473C38.4314 183.525 34.7167 188.792 36.2655 194.789C36.8957 197.229 36.3842 199.316 34.7867 200.826C31.9689 203.49 26.28 203.931 19.178 202.034C8.22358 199.11 -4.11967 206.06 -5.53894 209.702C-5.61261 209.891 -5.78244 210.019 -5.97354 210.051Z" fill="#4A61E4" fill-opacity="0.2"/>
<path d="M25.0196 233.891C24.9885 233.896 24.9566 233.899 24.9237 233.899C24.1845 233.901 6.73011 233.911 -0.813437 231.36C-8.61458 228.722 -9.05562 222.404 -9.07045 222.136C-9.08726 221.837 -8.84846 221.579 -8.54117 221.559C-8.23215 221.539 -7.96811 221.765 -7.95106 222.064C-7.93573 222.312 -7.50681 227.943 -0.43347 230.335C6.93084 232.826 24.7546 232.814 24.9338 232.814C25.2434 232.813 25.4921 233.055 25.4891 233.355C25.4871 233.623 25.2839 233.846 25.0196 233.891Z" fill="#4A61E4" fill-opacity="0.2"/>
</svg>
