<svg width="24" height="25" viewBox="0 0 24 25" fill="none" xmlns="http://www.w3.org/2000/svg">
<path d="M5.25 21.5H18.75C18.9822 21.5 19.0983 21.5 19.196 21.4904C20.1456 21.3968 20.8968 20.6456 20.9904 19.696C21 19.5983 21 19.4822 21 19.25C21 19.0178 21 18.9017 20.9904 18.804C20.8968 17.8544 20.1456 17.1032 19.196 17.0096C19.0983 17 18.9822 17 18.75 17H17.0607C16.8324 17 16.7182 17 16.6087 17.0121C16.2317 17.0538 15.8742 17.2018 15.5781 17.439C15.4921 17.5079 15.4114 17.5886 15.25 17.75C15.0886 17.9114 15.0079 17.9921 14.9219 18.061C14.6258 18.2982 14.2683 18.4462 13.8913 18.4879C13.7818 18.5 13.6676 18.5 13.4393 18.5H10.5607C10.3324 18.5 10.2182 18.5 10.1087 18.4879C9.73165 18.4462 9.37423 18.2982 9.07814 18.061C8.99213 17.9921 8.91142 17.9114 8.75 17.75C8.58858 17.5886 8.50787 17.5079 8.42186 17.439C8.12577 17.2018 7.76835 17.0538 7.3913 17.0121C7.28177 17 7.16763 17 6.93934 17H5.25C5.01783 17 4.90175 17 4.80397 17.0096C3.85441 17.1032 3.10315 17.8544 3.00963 18.804C3 18.9017 3 19.0178 3 19.25C3 19.4822 3 19.5983 3.00963 19.696C3.10315 20.6456 3.85441 21.3968 4.80397 21.4904C4.90175 21.5 5.01783 21.5 5.25 21.5Z" stroke="#141B34" stroke-width="1.5" stroke-linecap="round" stroke-linejoin="round"/>
<path d="M16.5 7.99996C16.5 7.99996 13.1858 3.50001 12 3.5C10.8141 3.49999 7.5 8 7.5 8M12 4.5V15.5" stroke="#141B34" stroke-width="1.5" stroke-linecap="round" stroke-linejoin="round"/>
</svg>
