<svg width="440" height="234" viewBox="0 0 440 234" fill="none" xmlns="http://www.w3.org/2000/svg">
<path d="M229.63 196.452C274.17 196.452 310.277 162.545 310.277 120.718C310.277 78.8922 274.17 44.9854 229.63 44.9854C185.091 44.9854 148.984 78.8922 148.984 120.718C148.984 162.545 185.091 196.452 229.63 196.452Z" fill="white"/>
<path d="M310.901 193.494C342.185 193.494 367.545 172.703 367.545 147.055C367.545 121.407 342.185 100.615 310.901 100.615C279.618 100.615 254.258 121.407 254.258 147.055C254.258 172.703 279.618 193.494 310.901 193.494Z" fill="#4A61E4" fill-opacity="0.05"/>
<path d="M154.398 193.494C185.682 193.494 211.042 172.703 211.042 147.055C211.042 121.407 185.682 100.615 154.398 100.615C123.115 100.615 97.7549 121.407 97.7549 147.055C97.7549 172.703 123.115 193.494 154.398 193.494Z" fill="white"/>
<path d="M171.643 127.717C171.643 95.1509 195.201 66.3789 231.177 66.3789C263.493 66.3789 289.69 92.7788 289.69 125.345C289.69 157.911 263.493 184.311 231.177 184.311C198.861 184.311 171.643 160.283 171.643 127.717Z" fill="#4A61E4"/>
<path d="M264.052 158.541H199.504C197.974 158.541 196.734 157.291 196.734 155.75V143.79C196.734 142.248 197.974 140.999 199.504 140.999C201.033 140.999 202.273 142.248 202.273 143.79V150.168C202.273 151.71 203.514 152.959 205.043 152.959H258.513C260.043 152.959 261.283 151.71 261.283 150.168V143.79C261.283 142.248 262.523 140.999 264.052 140.999H264.053C265.582 140.999 266.822 142.248 266.822 143.79V155.75C266.822 157.291 265.582 158.541 264.052 158.541Z" fill="white"/>
<path d="M240.463 119.104V85.2138C240.463 83.9258 239.427 82.8818 238.149 82.8818H226.506C225.228 82.8818 224.192 83.9258 224.192 85.2138V119.104C224.192 120.392 223.156 121.436 221.878 121.436H216.019C213.976 121.436 212.935 123.91 214.356 125.389L230.557 142.265C231.481 143.227 233.017 143.209 233.919 142.226L249.403 125.351C250.774 123.858 249.723 121.436 247.704 121.436H242.777C241.499 121.436 240.463 120.392 240.463 119.104Z" fill="white"/>
<path d="M178.747 93.3263C182.64 83.9437 189.641 76.5381 198.661 72.0161C199.941 71.3748 198.817 69.4443 197.541 70.0843C187.967 74.8843 180.725 82.8058 176.606 92.7315C176.056 94.0581 178.203 94.6371 178.747 93.3263Z" fill="#FF8D67"/>
<path d="M291.769 134.24C291.42 137.621 290.57 140.867 289.283 144.007C288.738 145.336 290.885 145.916 291.424 144.601C292.792 141.262 293.618 137.83 293.989 134.24C294.136 132.809 291.915 132.82 291.769 134.24Z" fill="#FF8D67"/>
<path d="M155.407 3.00328C155.407 3.00328 143.51 -3.75609 136.129 3.00626C128.747 9.7686 142.663 19.9289 123.434 18.5403C104.206 17.1517 100.619 29.2084 107.713 32.7068C114.807 36.2051 166.386 35.551 169.315 33.0714C172.245 30.5918 167.51 29.7043 165.099 25.5296C162.688 21.3549 174.488 26.0851 174.189 18.5322C173.89 10.9792 158.117 13.194 158.158 9.37009C158.199 5.54591 158.322 4.33726 155.407 3.00328Z" fill="#4A61E4" fill-opacity="0.2"/>
<path d="M103.791 23.0508C103.728 23.0663 103.661 23.0666 103.594 23.0485C103.393 22.9934 103.277 22.7892 103.338 22.5924C104.196 19.7838 112.493 14.0709 120.614 15.5972C125.19 16.4573 128.857 15.9428 130.424 14.2214C131.239 13.3258 131.426 12.1335 130.963 10.7733C129.494 6.45491 131.851 2.5311 131.952 2.36645C132.06 2.18944 132.294 2.12913 132.474 2.23147C132.655 2.33333 132.714 2.55953 132.606 2.73629C132.583 2.77386 130.33 6.53945 131.688 10.5317C132.24 12.1557 132 13.599 130.992 14.7057C129.215 16.658 125.376 17.2479 120.457 16.3233C112.871 14.8973 104.846 20.2461 104.068 22.7917C104.028 22.9242 103.92 23.0194 103.791 23.0508Z" fill="#4A61E4" fill-opacity="0.2"/>
<path d="M126.05 37.6536C126.029 37.6587 126.008 37.6622 125.986 37.6639C125.484 37.703 113.635 38.6019 108.383 37.2553C102.952 35.863 102.33 31.5955 102.306 31.4148C102.279 31.2128 102.428 31.0257 102.636 30.996C102.845 30.9669 103.035 31.107 103.062 31.309C103.085 31.4766 103.664 35.2776 108.589 36.5401C113.716 37.8548 125.816 36.9364 125.937 36.927C126.147 36.9107 126.328 37.0625 126.342 37.2662C126.354 37.4479 126.227 37.6098 126.05 37.6536Z" fill="#4A61E4" fill-opacity="0.2"/>
<path d="M424.976 81.2377C424.976 81.2377 415.462 75.8321 409.558 81.2402C403.654 86.6483 414.784 94.7738 399.406 93.6633C384.029 92.5528 381.161 102.195 386.833 104.992C392.506 107.79 433.755 107.267 436.098 105.284C438.441 103.301 434.654 102.591 432.726 99.2528C430.798 95.9142 440.235 99.6971 439.996 93.6568C439.756 87.6166 427.143 89.3877 427.175 86.3296C427.208 83.2713 427.307 82.3047 424.976 81.2377Z" fill="#4A61E4" fill-opacity="0.2"/>
<path d="M383.697 97.2705C383.646 97.2829 383.592 97.2831 383.539 97.2686C383.378 97.2246 383.286 97.0611 383.334 96.9039C384.02 94.6577 390.656 90.0889 397.15 91.3097C400.81 91.9974 403.742 91.586 404.996 90.2095C405.648 89.4934 405.797 88.5399 405.427 87.4521C404.252 83.9985 406.137 80.8606 406.217 80.7288C406.304 80.5872 406.491 80.5392 406.635 80.6208C406.78 80.7024 406.827 80.8831 406.74 81.0245C406.722 81.0547 404.92 84.066 406.007 87.2588C406.448 88.5576 406.256 89.7119 405.45 90.5969C404.029 92.1581 400.959 92.6298 397.025 91.8906C390.958 90.7502 384.541 95.0278 383.919 97.0636C383.886 97.1692 383.799 97.2453 383.697 97.2705Z" fill="#4A61E4" fill-opacity="0.2"/>
<path d="M401.498 108.948C401.481 108.952 401.464 108.955 401.446 108.956C401.045 108.987 391.569 109.706 387.369 108.629C383.026 107.516 382.528 104.103 382.509 103.958C382.488 103.796 382.607 103.647 382.773 103.623C382.939 103.6 383.092 103.712 383.114 103.873C383.132 104.007 383.595 107.047 387.533 108.057C391.633 109.108 401.31 108.374 401.407 108.366C401.575 108.353 401.72 108.475 401.731 108.638C401.741 108.783 401.639 108.913 401.498 108.948Z" fill="#4A61E4" fill-opacity="0.2"/>
<path d="M71.8367 186.376C71.8367 186.376 55.1563 175.165 43.5992 184.256C32.0418 193.347 51.3049 209.762 23.2944 205.609C-4.7162 201.456 -11.2976 218.72 -1.29325 224.625C8.71084 230.531 84.3292 235.258 88.8936 231.949C93.4579 228.64 86.6207 226.818 83.5493 220.438C80.4779 214.058 97.2401 222.286 97.6344 211.191C98.0287 200.095 74.6834 201.601 75.1642 196.004C75.6446 190.408 75.959 188.652 71.8367 186.376Z" fill="#4A61E4" fill-opacity="0.2"/>
<path d="M-5.97354 210.051C-6.06748 210.067 -6.16636 210.059 -6.26178 210.025C-6.55127 209.922 -6.69713 209.611 -6.58761 209.329C-5.02125 205.31 7.76129 197.857 19.4875 200.988C26.0948 202.752 31.5232 202.402 34.0077 200.054C35.3004 198.832 35.7051 197.106 35.1778 195.063C33.5022 188.576 37.3854 183.089 37.5518 182.859C37.7298 182.611 38.0791 182.549 38.3325 182.718C38.5857 182.888 38.647 183.225 38.4692 183.473C38.4314 183.525 34.7167 188.792 36.2655 194.789C36.8957 197.229 36.3842 199.316 34.7867 200.826C31.9689 203.49 26.28 203.931 19.178 202.034C8.22358 199.11 -4.11967 206.06 -5.53894 209.702C-5.61261 209.891 -5.78244 210.019 -5.97354 210.051Z" fill="#4A61E4" fill-opacity="0.2"/>
<path d="M25.0196 233.891C24.9885 233.896 24.9566 233.899 24.9237 233.899C24.1845 233.901 6.73011 233.911 -0.813437 231.36C-8.61458 228.722 -9.05562 222.404 -9.07045 222.136C-9.08726 221.837 -8.84846 221.579 -8.54117 221.559C-8.23215 221.539 -7.96811 221.765 -7.95106 222.064C-7.93573 222.312 -7.50681 227.943 -0.43347 230.335C6.93084 232.826 24.7546 232.814 24.9338 232.814C25.2434 232.813 25.4921 233.055 25.4891 233.355C25.4871 233.623 25.2839 233.846 25.0196 233.891Z" fill="#4A61E4" fill-opacity="0.2"/>
</svg>
