<svg width="1440" height="1024" viewBox="0 0 1440 1024" fill="none" xmlns="http://www.w3.org/2000/svg">
<g clip-path="url(#clip0_522_1076)">
<rect width="1440" height="1024" fill="white"/>
<path d="M895.757 897.368C880.709 905.17 841.464 910.856 799.823 914.692C784.401 916.125 768.626 917.289 753.685 918.241C716.807 920.531 684.662 921.351 673.681 920.892C673.161 920.858 672.564 920.792 671.965 920.69L671.928 920.693C670.356 920.443 668.504 919.918 666.378 919.192C641.725 910.604 583.15 872.205 566.064 858.086C550.24 845.016 513.893 801.819 513.893 801.819C512.175 790.413 537.486 785.306 563.917 811.434C565.596 813.082 588.379 824.807 603.539 832.565C603.845 832.69 604.153 832.851 604.461 833.013C605.69 833.622 606.846 834.237 607.924 834.783C612.732 837.228 616.152 838.927 616.885 839.315C616.254 838.808 613.906 837.101 610.503 834.66C609.72 834.091 608.898 833.489 608.036 832.852C607.762 832.651 607.485 832.413 607.174 832.215C596.052 824.076 578.58 811.206 571.976 805.57C562.289 797.322 530.495 760.027 536.616 756.381C552.966 746.743 573.468 768.331 593.965 785.962C601.086 792.076 635.096 808.938 647.099 817.01C639.449 810.27 623.528 795.915 618.543 789.194C611.904 780.196 600.574 757.17 604.953 755.432C612.959 752.271 620.824 757.959 640.263 779.183C656.677 797.089 694.733 805.914 704.52 811.086C724.166 821.423 761.393 810.121 821.669 804.794C847.443 802.473 870.036 807.522 882.788 830.038C893.121 848.283 894.542 872.332 901.822 888.624C903.247 891.806 900.918 894.72 895.757 897.368Z" fill="#FFCFBF"/>
<path d="M654.042 794.933C654.042 794.933 635.694 764.026 651.992 768.007C668.291 771.989 701.493 816.206 736.891 814.828L717.34 828.76L654.042 794.933Z" fill="#FFCFBF"/>
<path d="M995.239 1026.25L832.075 1038.67C824.546 1022.34 791.189 936.316 786.981 932.532L786.942 932.498C786.781 932.325 786.662 932.223 786.504 932.087C785.436 931.17 784.537 930.536 783.799 930.074C782.366 929.222 781.541 929.063 781.501 929.029C773.793 924.439 764.169 920.919 753.686 918.241L753.646 918.207C713.628 907.904 661.689 909.565 661.531 909.429C649.567 897.028 672.819 881.829 706.94 869.063L711.527 866.015C731.337 858.591 744.797 854.897 763.112 849.694C765.609 848.986 776.02 848.759 778.336 848.102C778.373 848.099 778.373 848.099 778.373 848.099C780.328 847.544 782.248 847.028 784.095 846.518C795.288 843.447 817.15 849.337 821.06 849.214C875.709 847.499 875.713 841.466 883.495 848.492L883.498 848.528C885.799 850.572 886.832 852.009 886.832 852.009C886.18 854.13 993.909 1023.84 995.239 1026.25Z" fill="#FFCFBF"/>
<path d="M823.557 926.767C790.686 936.549 731.712 933.92 697.705 927.112C688.824 925.334 679.511 924.842 671.572 920.481C664.436 916.561 658.655 910.625 653.001 904.767C636.147 887.31 619.387 869.762 602.722 852.125C598.1 847.233 593.619 838.843 598.95 834.735C600.868 833.256 603.45 833.063 605.869 832.928C621.137 832.075 637.758 831.596 650.154 840.549C658.367 846.481 663.555 855.831 671.584 862.009C681.256 869.451 694.831 871.484 706.258 867.202L823.557 926.767Z" fill="#FFCFBF"/>
<path d="M801.229 926.087C777.732 933.002 753.091 933.731 728.85 931.262C716.418 929.996 704.21 927.615 691.886 925.638C685.7 924.646 679.387 923.655 673.694 920.902C668.059 918.176 663.234 913.928 658.814 909.566C649.604 900.479 640.79 890.957 631.848 881.607C622.691 872.031 613.533 862.453 604.459 852.798C601.381 849.523 596.482 843.778 598.148 838.833C599.113 835.969 602.095 835.226 604.787 834.986C607.86 834.712 610.971 834.628 614.055 834.541C625.164 834.228 637.128 834.753 646.941 840.565C657.625 846.893 663.13 858.948 673.591 865.556C683.5 871.813 695.957 873.035 706.94 869.064C708.41 868.533 707.345 866.344 705.883 866.872C694.491 870.991 681.287 868.887 671.82 861.296C662.836 854.091 657.341 843.378 646.954 837.793C636.745 832.303 624.771 831.773 613.43 832.141C608.893 832.288 602.516 831.619 598.611 834.372C595.031 836.895 594.981 841.302 596.383 845.077C598.393 850.482 602.685 854.463 606.557 858.552C611.386 863.653 616.223 868.746 621.068 873.831C630.758 884.003 640.479 894.144 650.232 904.255C658.696 913.03 667.244 922.184 679.356 925.597C685.376 927.293 691.624 927.962 697.761 929.091C704.182 930.273 710.611 931.385 717.079 932.286C745.225 936.206 774.21 936.564 801.687 928.477C803.173 928.039 802.734 925.644 801.229 926.087Z" fill="#EF9F8A"/>
<path d="M863.248 877.261C862.219 859.859 842.575 853.723 828.502 850.405C811.521 846.402 793.832 845.301 776.482 847.105C766.788 848.113 757.2 850.037 747.861 852.824C746.437 853.249 747.219 855.425 748.643 854.999C764.54 850.257 781.16 848.129 797.74 848.654C806.019 848.916 814.277 849.862 822.405 851.454C830.323 853.006 838.527 854.913 845.839 858.409C853.438 862.044 860.416 868.54 860.943 877.436C861.031 878.922 863.336 878.747 863.248 877.261Z" fill="#EF9F8A"/>
<path d="M871.301 908.145C873.162 913.855 875.941 919.292 879.484 924.143C880.482 925.51 881.545 926.831 882.663 928.102C882.933 928.409 883.198 928.644 883.616 928.726C883.985 928.798 884.461 928.717 884.765 928.486C885.356 928.038 885.708 927.018 885.149 926.383C883.206 924.174 881.436 921.815 879.864 919.327C879.084 918.092 878.352 916.827 877.671 915.535C877.632 915.461 877.408 915.03 877.557 915.321C877.47 915.151 877.384 914.981 877.299 914.811C877.128 914.47 876.962 914.128 876.798 913.784C876.48 913.114 876.176 912.439 875.885 911.758C875.237 910.239 874.658 908.692 874.146 907.123C873.901 906.371 872.952 905.908 872.213 906.211C871.436 906.529 871.038 907.339 871.301 908.145Z" fill="#F18E7B"/>
<path d="M1219.57 1033.51C1259.57 997.615 1281.93 944.02 1280.83 890.413C1280.52 875.231 1278.29 860.173 1274.17 845.56C1273.61 843.583 1276.64 842.564 1277.2 844.546C1292.02 897.056 1282.12 955.273 1252.08 1000.68C1243.55 1013.57 1233.45 1025.33 1221.94 1035.66C1220.43 1037.02 1218.04 1034.89 1219.57 1033.51Z" fill="#4C99AF"/>
<path d="M1268.73 968.49C1272.76 968.504 1276.79 968.522 1280.8 968.152C1284.46 967.814 1290.12 967.522 1293.14 965.166C1294.89 964.746 1295.29 963.454 1294.34 961.288C1292.79 960.971 1291.27 961.064 1289.76 961.568C1287.53 962.191 1285.47 963.382 1283.41 964.422C1279.3 966.499 1275.21 968.619 1271.12 970.716C1269.3 971.645 1267.54 968.981 1269.37 968.044C1273.62 965.866 1296.24 950.773 1298.99 961.604C1301.7 972.297 1274.17 971.698 1268.93 971.679C1266.88 971.671 1266.67 968.482 1268.73 968.49Z" fill="#4C99AF"/>
<path d="M1275.28 945.618C1281.57 944.191 1287.83 942.587 1294 940.667C1298.52 939.26 1307.72 936.781 1309.59 931.717C1310.98 930.447 1310.3 929.657 1307.55 929.345C1306.78 929.305 1306.01 929.264 1305.24 929.223C1303.58 929.344 1301.94 929.991 1300.42 930.641C1297.52 931.885 1294.74 933.504 1292.09 935.219C1286.74 938.687 1282.02 942.916 1277.84 947.714C1276.48 949.263 1274.11 947.124 1275.46 945.571C1281.2 939.006 1287.98 933.458 1295.71 929.412C1300.29 927.017 1308.68 923.301 1312.78 928.751C1316.26 933.373 1306.38 939.092 1303.26 940.596C1294.91 944.624 1285.29 946.609 1276.3 948.648C1274.3 949.1 1273.28 946.073 1275.28 945.618Z" fill="#4C99AF"/>
<path d="M1281.73 915.859C1288.25 914.769 1294.6 912.937 1300.65 910.282C1303.61 908.985 1306.48 907.493 1309.25 905.83C1310.58 905.03 1311.89 904.196 1313.17 903.314C1313.79 902.897 1314.4 902.462 1315 902.009C1318.33 899.902 1318.48 898.291 1315.45 897.176C1313.34 895.679 1312.83 895.613 1310.53 895.953C1308.77 896.212 1307.04 896.673 1305.37 897.283C1302.33 898.397 1299.48 899.991 1296.88 901.914C1291.55 905.842 1287.36 911.04 1283.47 916.334C1282.25 917.989 1279.89 915.838 1281.1 914.191C1286.58 906.732 1292.82 899.585 1301.32 895.535C1305.71 893.446 1316.71 889.497 1320.01 895.125C1324.08 902.056 1312.8 907.59 1308.31 910.049C1300.07 914.562 1291.19 917.5 1281.94 919.048C1279.91 919.387 1279.73 916.195 1281.73 915.859Z" fill="#4C99AF"/>
<path d="M1282.79 883.926C1287.18 879.468 1292.46 876.344 1297.64 872.914C1302.99 869.364 1313.88 861.328 1310.78 853.755C1310.67 851.984 1309.72 851.298 1307.93 851.697C1306.76 851.7 1305.63 851.895 1304.51 852.281C1302.69 852.887 1300.94 853.968 1299.54 855.278C1296.67 857.978 1295.01 861.683 1293.74 865.346C1291.45 871.943 1290.33 878.779 1286.55 884.776C1285.47 886.5 1282.61 885.059 1283.71 883.315C1288.9 875.072 1288.93 864.694 1294.36 856.592C1297.85 851.374 1306.61 845.381 1312.94 849.792C1318.66 853.779 1311.76 864.58 1308.56 868.105C1301.86 875.475 1292.12 878.991 1285.16 886.069C1283.73 887.53 1281.35 885.398 1282.79 883.926Z" fill="#4C99AF"/>
<path d="M1275.16 847.43C1279.15 841.63 1281.41 835.104 1282.4 828.156C1283.36 821.434 1283.93 812.705 1280.12 806.671C1279.44 804.647 1278.31 804.371 1276.74 805.841C1275.11 805.858 1274.37 806.556 1274.52 807.935C1273.88 809.468 1274.16 812.271 1274.1 813.923C1273.98 817.137 1274.05 820.359 1274.28 823.566C1274.82 830.94 1276.32 838.154 1278.59 845.183C1279.23 847.142 1276.2 848.155 1275.56 846.197C1272.38 836.356 1270.7 826.089 1270.87 815.732C1270.94 811.312 1270.43 798.586 1278.29 800.961C1285.64 803.182 1286.35 815.326 1286.17 821.404C1285.88 831.13 1283.56 840.805 1278 848.892C1276.85 850.561 1273.99 849.125 1275.16 847.43Z" fill="#4C99AF"/>
<path d="M1279.15 883.178C1277.38 877.92 1274.65 873.22 1271.38 868.758C1269.92 866.767 1268.38 864.838 1266.81 862.929C1266.14 862.104 1264.87 859.85 1263.88 859.446C1260.6 859.894 1259.41 861.005 1260.32 862.78C1260.58 863.514 1260.87 864.233 1261.21 864.936C1262.45 867.662 1264.15 871.03 1266.5 873C1268.48 874.666 1271.13 875.085 1273.43 876.128C1277.57 878.003 1280.89 881.005 1283.51 884.678C1284.71 886.355 1282.03 888.099 1280.84 886.427C1277.81 882.181 1274.03 879.761 1269.21 877.925C1266.55 876.912 1264.5 875.786 1262.67 873.54C1259.67 869.85 1253.57 860.688 1258.14 856.145C1262.65 851.661 1267.41 858.624 1269.96 861.751C1275.02 867.973 1279.6 874.504 1282.18 882.163C1282.84 884.116 1279.81 885.127 1279.15 883.178Z" fill="#4C99AF"/>
<path d="M1278.24 919.361C1276.34 916.005 1274.44 912.607 1272.1 909.522C1270.59 907.526 1265.19 900.533 1262.18 901.269C1260.24 901.741 1264.68 910.567 1265.65 911.76C1268.47 915.199 1273.45 916.056 1277.56 917.213C1279.52 917.768 1278.89 920.899 1276.9 920.34C1271.62 918.852 1265.44 917.625 1262.32 912.641C1260.43 909.62 1256.71 902.476 1258.79 898.887C1260.93 895.192 1265.97 899.182 1268.27 900.962C1273.87 905.296 1277.48 911.561 1280.92 917.612C1281.93 919.393 1279.26 921.152 1278.24 919.361Z" fill="#4C99AF"/>
<path d="M1272.17 951.312C1266.86 947.326 1262.22 942.545 1258.55 937.006C1256.51 933.921 1251.71 927.956 1256.87 925.343C1261.82 922.835 1266.44 927.793 1269.01 931.398C1272.56 936.377 1274.53 942.201 1275.14 948.256C1275.35 950.307 1272.15 950.499 1271.95 948.457C1271.53 944.291 1270.43 940.244 1268.44 936.541C1267.61 934.979 1266.63 933.474 1265.54 932.078C1264.84 931.191 1264.08 930.266 1263.22 929.536C1261.54 928.128 1258.16 928.061 1258.73 931.09C1259.32 934.221 1263.28 938.277 1265.3 940.621C1267.99 943.739 1271.02 946.472 1274.31 948.943C1275.95 950.176 1273.8 952.541 1272.17 951.312Z" fill="#4C99AF"/>
<path d="M1263.53 971.55C1259.3 966.653 1255.45 961.394 1252.45 955.642C1251.08 953.015 1248.76 948.15 1252.14 945.946C1255.54 943.726 1259.27 947.739 1260.93 950.376C1264.09 955.372 1265.11 961.885 1266.24 967.566C1266.64 969.56 1263.62 970.592 1263.21 968.581C1262.52 965.129 1261.78 961.673 1260.78 958.295C1260.26 956.537 1259.7 954.762 1258.84 953.136C1257.96 951.468 1257.15 949.197 1255.12 950.441C1253.81 950.641 1253.53 951.225 1254.29 952.194C1254.76 953.211 1255.27 954.206 1255.83 955.178C1256.65 956.673 1257.54 958.133 1258.46 959.569C1260.63 962.948 1263.05 966.143 1265.67 969.18C1267 970.715 1264.87 973.107 1263.53 971.55Z" fill="#4C99AF"/>
<path d="M1158.54 1048.47C1189.79 992.881 1194.41 924.262 1172.89 864.42C1166.73 847.287 1158.36 831.075 1148.06 816.072C1146.05 813.156 1150.73 810.276 1152.73 813.189C1189.77 867.101 1200.78 937.122 1184.05 1000.18C1179.33 1017.94 1172.39 1035.04 1163.39 1051.05C1161.66 1054.13 1156.81 1051.56 1158.54 1048.47Z" fill="#F28A75"/>
<path d="M1189.76 955.857C1194.68 954.205 1199.66 952.572 1204.36 950.343C1206.31 949.418 1216.6 944.564 1216.52 942.09C1216.32 935.769 1206.26 946.283 1205.17 947.404C1201.4 951.277 1197.64 955.162 1193.88 959.04C1191.42 961.573 1187.41 957.805 1189.89 955.259C1193.67 951.36 1216.07 923.308 1222.53 937.727C1224.78 942.746 1219.43 947.278 1215.91 949.897C1208.63 955.308 1199.86 958.263 1191.36 961.113C1188 962.24 1186.4 956.981 1189.76 955.857Z" fill="#F28A75"/>
<path d="M1188.18 927.558C1194.09 923.932 1199.89 920.152 1205.55 916.138C1208.81 913.819 1212.1 911.459 1214.95 908.632C1216.85 906.746 1221.13 902.67 1220.78 899.82C1221.53 898.431 1221.05 898.038 1219.36 898.643C1218.25 898.46 1217.23 898.679 1216.3 899.302C1214.16 900.152 1212.44 901.776 1210.78 903.329C1208.37 905.601 1206.13 908.161 1204.09 910.765C1199.39 916.739 1195.74 923.296 1192.83 930.305C1191.48 933.569 1186.64 930.963 1187.98 927.72C1192.32 917.256 1198.57 907.406 1206.8 899.548C1211.1 895.437 1219.09 889.812 1225.08 894.466C1230.85 898.949 1222.3 909.067 1218.94 912.413C1210.96 920.359 1200.6 926.385 1191.06 932.237C1188.05 934.085 1185.16 929.413 1188.18 927.558Z" fill="#F28A75"/>
<path d="M1183.64 891.715C1190.3 888.131 1196.55 883.93 1202.19 878.87C1204.71 876.609 1207.1 874.217 1209.36 871.699C1211.03 869.845 1216.63 864.799 1216.6 862.283C1215.76 860.761 1214.92 859.239 1214.08 857.717C1213.01 858.022 1211.97 858.424 1210.97 858.924C1209.39 859.633 1207.89 860.454 1206.46 861.429C1203.6 863.377 1201.04 865.815 1198.85 868.497C1193.28 875.34 1190.07 883.687 1187.43 892.009C1186.37 895.359 1181 894.177 1182.07 890.806C1185.47 880.093 1189.8 869.276 1198.02 861.305C1202.51 856.959 1213.92 848.009 1220.29 853.575C1227.53 859.915 1218.26 869.899 1214.03 874.725C1206.27 883.577 1196.87 890.824 1186.52 896.394C1183.42 898.063 1180.51 893.398 1183.64 891.715Z" fill="#F28A75"/>
<path d="M1172.64 855.28C1176.67 847.063 1183.05 840.707 1188.16 833.217C1190.27 830.125 1192.14 826.77 1193.26 823.185C1194.22 820.13 1195.92 812.888 1192.71 810.82C1189.12 808.501 1184.02 814.046 1182.34 816.888C1179.85 821.081 1179.4 826.16 1179.4 830.924C1179.4 839.278 1180.63 847.412 1178.69 855.657C1177.87 859.102 1172.51 857.898 1173.32 854.454C1176.22 842.178 1171.31 829.064 1176.16 817.109C1178.81 810.559 1186.7 802.485 1194.62 804.912C1202.37 807.29 1199.99 820.789 1197.94 826.353C1193.54 838.329 1183.05 846.53 1177.49 857.865C1175.93 861.042 1171.09 858.454 1172.64 855.28Z" fill="#F28A75"/>
<path d="M1149.92 817.197C1152.34 808.558 1152.19 799.73 1150.25 791C1148.9 784.892 1145.71 771.363 1138.62 769.32C1136.64 767.645 1135.63 768.731 1135.6 772.579C1135.75 773.229 1135.9 773.878 1136.05 774.528C1136.25 776.443 1137.07 778.467 1137.64 780.318C1138.81 784.147 1140.18 787.914 1141.77 791.588C1145.13 799.353 1149.51 806.598 1154.55 813.375C1156.66 816.21 1151.97 819.082 1149.87 816.258C1142.75 806.679 1137.1 796.109 1133.3 784.778C1131.48 779.341 1125.34 762.786 1136.67 763.002C1146.23 763.184 1151.68 776.122 1154 783.67C1157.46 794.94 1158.49 806.964 1155.28 818.4C1154.32 821.796 1148.96 820.605 1149.92 817.197Z" fill="#F28A75"/>
<path d="M1168.1 856.653C1163.92 851.217 1158.72 846.878 1153.09 843.013C1150.78 841.431 1148.41 839.949 1146.03 838.478C1145.3 838.025 1143.55 836.463 1142.7 836.462C1141.8 835.664 1141.26 836.118 1141.07 837.824C1139.51 839.341 1139.83 840.665 1142.03 841.795C1144.03 843.933 1146.34 846.199 1148.84 847.734C1152.32 849.876 1155.91 849.408 1159.78 849.776C1165.22 850.292 1170.11 852.334 1174.53 855.465C1177.38 857.481 1174.83 862.355 1171.95 860.315C1166.06 856.144 1160.68 855.64 1153.71 855.043C1149.81 854.709 1146.92 853.221 1143.85 850.862C1139.28 847.349 1130.35 839.962 1134.2 833.126C1138.23 825.988 1146.86 832.486 1151.28 835.292C1159.38 840.436 1166.88 846.108 1172.78 853.77C1174.93 856.57 1170.24 859.437 1168.1 856.653Z" fill="#F28A75"/>
<path d="M1181.04 898.078C1177.04 894.526 1173.04 890.913 1168.43 888.15C1166.19 886.806 1157.93 881.928 1155.27 884.004C1155.71 883.188 1156.14 882.372 1156.58 881.557C1156.5 885.863 1162.25 891.354 1165.6 893.212C1169.93 895.608 1175.44 894.82 1180.28 894.567C1183.82 894.382 1184.03 899.874 1180.5 900.058C1173.29 900.436 1165.65 901.245 1159.89 896.075C1156.68 893.186 1149.77 886.387 1151.12 881.418C1152.6 875.957 1160.54 878.703 1164.11 879.988C1172.1 882.862 1178.57 888.538 1184.82 894.089C1187.47 896.436 1183.69 900.429 1181.04 898.078Z" fill="#F28A75"/>
<path d="M1187.29 936.936C1179.46 934.335 1172.2 930.673 1165.65 925.621C1161.82 922.671 1154.19 917.516 1159.06 912.157C1169.34 900.844 1186.25 922.819 1189.89 930.697C1191.36 933.866 1186.7 936.792 1185.22 933.579C1183.35 929.543 1181.08 925.855 1177.97 922.63C1176.48 921.081 1163.88 911.689 1164.5 916.357C1164.97 919.817 1172.19 923.708 1174.89 925.345C1179.19 927.954 1183.72 929.987 1188.49 931.573C1191.82 932.679 1190.64 938.051 1187.29 936.936Z" fill="#F28A75"/>
<path d="M1184.59 962.849C1179.28 959.71 1153.99 945.458 1162.08 936.691C1165.16 933.357 1170.44 935.644 1173.42 937.731C1179.72 942.145 1183.73 949.857 1187.49 956.347C1189.26 959.4 1184.59 962.3 1182.81 959.229C1180.94 956.001 1179.03 952.784 1176.92 949.705C1175.6 947.779 1174.24 945.79 1172.56 944.152C1171.46 943.077 1168.69 939.344 1168.44 942.443C1168.21 945.324 1173.44 948.417 1175.6 950.14C1179.27 953.058 1183.15 955.618 1187.18 958.001C1190.21 959.794 1187.65 964.653 1184.59 962.849Z" fill="#F28A75"/>
<path d="M383.199 1042.31C347.068 1021.75 321.353 984.916 313.367 944.215C311.105 932.689 310.315 920.94 311.03 909.216C311.127 907.631 308.67 907.358 308.574 908.948C306.001 951.077 323.058 993.453 353.23 1022.83C361.8 1031.18 371.362 1038.4 381.76 1044.32C383.127 1045.1 384.584 1043.1 383.199 1042.31Z" fill="#4C99AF"/>
<path d="M335.351 1001.24C332.312 1001.92 329.265 1002.59 326.172 1002.97C323.352 1003.32 319.029 1004.03 316.351 1002.74C314.964 1002.71 314.45 1001.8 314.807 1000.01C315.927 999.515 317.097 999.334 318.315 999.468C320.109 999.571 321.859 1000.13 323.586 1000.58C327.033 1001.48 330.472 1002.41 333.915 1003.32C335.438 1003.72 336.336 1001.42 334.798 1001.01C331.225 1000.06 311.644 992.374 311.348 1001.01C311.055 1009.54 331.771 1004.56 335.723 1003.69C337.271 1003.34 336.905 1000.9 335.351 1001.24Z" fill="#4C99AF"/>
<path d="M326.64 985.032C321.648 984.988 316.653 984.804 311.679 984.366C308.031 984.046 300.664 983.686 298.424 980.164C297.161 979.434 297.544 978.725 299.574 978.037C300.149 977.88 300.724 977.722 301.299 977.565C302.573 977.383 303.923 977.602 305.175 977.844C307.573 978.308 309.939 979.075 312.222 979.936C316.838 981.677 321.1 984.098 325.053 987.036C326.33 987.985 327.772 985.978 326.493 985.027C321.082 981.007 315.045 977.928 308.532 976.141C304.677 975.084 297.724 973.655 295.521 978.448C293.653 982.514 302.063 985.211 304.667 985.835C311.642 987.507 319.24 987.426 326.372 987.489C327.951 987.503 328.23 985.046 326.64 985.032Z" fill="#4C99AF"/>
<path d="M316.87 963.598C311.766 963.845 306.664 963.505 301.651 962.493C299.201 961.999 296.788 961.343 294.422 960.541C293.283 960.156 292.156 959.741 291.044 959.284C290.506 959.071 289.974 958.843 289.449 958.598C286.587 957.552 286.208 956.359 288.314 955.019C289.659 953.541 290.034 953.407 291.835 953.286C293.203 953.193 294.589 953.256 295.947 953.443C298.432 953.785 300.847 954.522 303.133 955.547C307.802 957.641 311.828 960.88 315.637 964.243C316.827 965.294 318.261 963.279 317.076 962.234C311.71 957.496 305.813 953.12 298.721 951.457C295.063 950.599 286.101 949.421 284.528 954.219C282.591 960.127 292.032 962.455 295.83 963.575C302.8 965.632 309.992 966.393 317.242 966.042C318.831 965.964 318.444 963.522 316.87 963.598Z" fill="#4C99AF"/>
<path d="M310.82 939.634C306.774 936.985 302.265 935.492 297.79 933.75C293.159 931.947 283.608 927.663 284.701 921.43C284.499 920.073 285.105 919.398 286.518 919.406C287.401 919.216 288.295 919.176 289.198 919.285C290.677 919.443 292.179 919.972 293.448 920.733C296.067 922.301 297.928 924.83 299.491 927.389C302.308 931.999 304.275 936.983 308.117 940.894C309.222 942.019 311.142 940.461 310.025 939.323C304.743 933.946 303.02 926.105 297.584 920.873C294.083 917.505 286.476 914.415 282.417 918.789C278.749 922.743 285.745 929.773 288.745 931.91C295.017 936.381 302.957 937.437 309.38 941.643C310.706 942.511 312.156 940.508 310.82 939.634Z" fill="#4C99AF"/>
<path d="M310.59 910.792C306.622 907.064 303.838 902.503 301.948 897.414C300.118 892.49 298.249 885.986 300.136 880.799C300.319 879.158 301.126 878.763 302.558 879.616C303.796 879.36 304.469 879.766 304.579 880.834C305.313 881.888 305.566 884.051 305.883 885.291C306.498 887.701 306.978 890.147 307.33 892.61C308.138 898.271 308.19 903.971 307.626 909.658C307.468 911.243 309.925 911.51 310.083 909.926C310.873 901.964 310.455 893.927 308.622 886.127C307.839 882.798 306.133 873.095 300.582 876.182C295.392 879.069 296.85 888.366 297.987 892.93C299.807 900.234 303.15 907.166 308.682 912.364C309.824 913.437 311.75 911.882 310.59 910.792Z" fill="#4C99AF"/>
<path d="M313.447 938.47C313.922 934.205 315.218 930.202 316.955 926.292C317.731 924.547 318.578 922.836 319.447 921.135C319.822 920.4 320.406 918.489 321.092 918.02C323.645 917.82 324.724 918.465 324.328 919.956C324.256 920.553 324.151 921.145 324.014 921.731C323.525 923.995 322.788 926.821 321.341 928.696C320.118 930.281 318.183 931.034 316.612 932.201C313.79 934.298 311.778 937.113 310.4 940.32C309.771 941.784 312.081 942.662 312.709 941.203C314.302 937.495 316.755 935.045 320.102 932.864C321.947 931.661 323.307 930.474 324.32 928.475C325.983 925.193 329.086 917.265 324.888 914.582C320.745 911.933 318.287 917.98 316.877 920.762C314.074 926.297 311.681 931.988 310.99 938.202C310.814 939.785 313.271 940.052 313.447 938.47Z" fill="#4C99AF"/>
<path d="M320.083 965.67C320.974 962.82 321.849 959.939 323.108 957.224C323.924 955.466 326.853 949.293 329.254 949.353C330.794 949.392 328.894 956.793 328.352 957.855C326.788 960.918 323.164 962.384 320.25 963.934C318.854 964.676 319.851 966.938 321.258 966.19C325.007 964.196 329.476 962.253 331.016 957.973C331.95 955.378 333.587 949.367 331.424 946.996C329.196 944.555 326.046 948.399 324.599 950.123C321.079 954.32 319.382 959.648 317.775 964.788C317.301 966.301 319.607 967.192 320.083 965.67Z" fill="#4C99AF"/>
<path d="M329.931 988.823C333.286 984.937 336.005 980.561 337.869 975.771C338.907 973.103 341.555 967.804 337.224 966.677C333.068 965.597 330.393 970.103 329.045 973.25C327.181 977.597 326.649 982.323 327.183 987.001C327.363 988.585 329.806 988.206 329.626 986.628C329.259 983.41 329.422 980.172 330.316 977.045C330.693 975.727 331.183 974.429 331.779 973.194C332.158 972.409 332.581 971.584 333.117 970.891C334.153 969.551 336.698 968.944 336.764 971.327C336.832 973.791 334.509 977.508 333.366 979.612C331.846 982.411 330.002 984.975 327.922 987.383C326.883 988.586 328.896 990.02 329.931 988.823Z" fill="#4C99AF"/>
<path d="M339.786 1002.7C342.18 998.302 344.221 993.695 345.542 988.854C346.146 986.643 347.103 982.584 344.187 981.473C341.25 980.354 339.094 984 338.266 986.268C336.7 990.564 337.005 995.653 337.081 1000.13C337.107 1001.71 339.564 1001.99 339.538 1000.4C339.492 997.68 339.488 994.946 339.685 992.228C339.787 990.814 339.921 989.38 340.302 988.009C340.694 986.604 340.936 984.753 342.67 985.361C343.697 985.296 344.001 985.692 343.585 986.55C343.398 987.395 343.175 988.231 342.916 989.057C342.54 990.323 342.108 991.572 341.647 992.809C340.563 995.72 339.262 998.532 337.777 1001.26C337.026 1002.64 339.025 1004.1 339.786 1002.7Z" fill="#4C99AF"/>
<path d="M249.294 1027.95C230.912 995.247 228.192 954.877 240.854 919.669C244.48 909.589 249.401 900.051 255.465 891.225C256.644 889.509 253.89 887.814 252.713 889.529C230.923 921.247 224.446 962.443 234.291 999.541C237.063 1009.99 241.146 1020.05 246.441 1029.47C247.459 1031.28 250.316 1029.77 249.294 1027.95Z" fill="#F28A75"/>
<path d="M230.93 973.465C228.031 972.493 225.107 971.532 222.339 970.22C221.191 969.676 215.137 966.821 215.183 965.365C215.301 961.646 221.218 967.832 221.86 968.491C224.079 970.77 226.291 973.055 228.507 975.337C229.954 976.827 232.309 974.611 230.854 973.113C228.627 970.818 215.452 954.315 211.648 962.798C210.324 965.751 213.475 968.417 215.546 969.958C219.825 973.142 224.986 974.88 229.988 976.557C231.964 977.22 232.902 974.126 230.93 973.465Z" fill="#F28A75"/>
<path d="M231.857 956.815C228.382 954.683 224.966 952.458 221.641 950.096C219.72 948.732 217.786 947.344 216.108 945.681C214.988 944.571 212.47 942.172 212.676 940.497C212.237 939.679 212.516 939.448 213.514 939.804C214.168 939.696 214.769 939.825 215.314 940.191C216.571 940.692 217.586 941.647 218.558 942.561C219.981 943.898 221.294 945.403 222.499 946.935C225.262 950.45 227.411 954.309 229.12 958.432C229.916 960.352 232.764 958.819 231.973 956.911C229.421 950.754 225.747 944.959 220.905 940.336C218.373 937.918 213.671 934.608 210.147 937.346C206.752 939.984 211.784 945.937 213.761 947.906C218.454 952.58 224.551 956.126 230.161 959.569C231.933 960.655 233.636 957.906 231.857 956.815Z" fill="#F28A75"/>
<path d="M234.529 935.727C230.611 933.619 226.93 931.147 223.615 928.17C222.133 926.84 220.726 925.433 219.396 923.952C218.417 922.861 215.122 919.892 215.139 918.412C215.633 917.517 216.126 916.621 216.62 915.726C217.251 915.905 217.86 916.142 218.447 916.436C219.376 916.853 220.26 917.336 221.103 917.91C222.786 919.056 224.292 920.49 225.578 922.068C228.86 926.094 230.744 931.005 232.298 935.901C232.924 937.872 236.083 937.177 235.454 935.193C233.453 928.891 230.907 922.526 226.068 917.837C223.43 915.28 216.713 910.014 212.969 913.289C208.705 917.019 214.161 922.893 216.651 925.732C221.216 930.94 226.745 935.204 232.833 938.48C234.656 939.462 236.368 936.717 234.529 935.727Z" fill="#F28A75"/>
<path d="M240.999 914.291C238.629 909.457 234.877 905.718 231.869 901.311C230.628 899.492 229.528 897.518 228.868 895.409C228.306 893.612 227.306 889.351 229.191 888.134C231.303 886.77 234.302 890.032 235.295 891.704C236.759 894.171 237.023 897.159 237.022 899.962C237.022 904.877 236.298 909.663 237.442 914.513C237.92 916.54 241.075 915.832 240.598 913.806C238.894 906.583 241.781 898.868 238.932 891.834C237.37 887.98 232.727 883.23 228.071 884.658C223.508 886.057 224.909 893.999 226.113 897.273C228.703 904.319 234.877 909.144 238.146 915.812C239.063 917.682 241.914 916.159 240.999 914.291Z" fill="#F28A75"/>
<path d="M254.369 891.886C252.941 886.804 253.034 881.61 254.171 876.474C254.967 872.88 256.844 864.921 261.014 863.719C262.18 862.733 262.773 863.373 262.794 865.636C262.704 866.018 262.615 866.4 262.525 866.783C262.41 867.909 261.924 869.1 261.592 870.189C260.904 872.442 260.095 874.658 259.161 876.82C257.187 881.388 254.609 885.65 251.642 889.637C250.4 891.305 253.158 892.995 254.394 891.333C258.588 885.698 261.908 879.479 264.143 872.813C265.216 869.614 268.83 859.874 262.163 860.001C256.538 860.108 253.329 867.72 251.967 872.161C249.933 878.791 249.324 885.865 251.214 892.594C251.775 894.592 254.932 893.891 254.369 891.886Z" fill="#F28A75"/>
<path d="M243.672 915.1C246.132 911.902 249.189 909.349 252.505 907.075C253.862 906.145 255.258 905.272 256.657 904.407C257.088 904.14 258.113 903.221 258.617 903.22C259.142 902.751 259.462 903.018 259.575 904.022C260.493 904.915 260.304 905.693 259.007 906.359C257.832 907.616 256.473 908.949 255.004 909.853C252.955 911.113 250.842 910.838 248.564 911.054C245.368 911.358 242.489 912.559 239.886 914.401C238.211 915.587 239.71 918.455 241.407 917.254C244.873 914.801 248.039 914.504 252.138 914.153C254.43 913.956 256.131 913.081 257.937 911.693C260.627 909.626 265.882 905.28 263.614 901.258C261.245 897.059 256.167 900.882 253.567 902.533C248.801 905.559 244.386 908.896 240.92 913.404C239.653 915.05 242.412 916.738 243.672 915.1Z" fill="#F28A75"/>
<path d="M236.058 939.471C238.411 937.382 240.765 935.255 243.475 933.63C244.793 932.839 249.655 929.969 251.219 931.191C250.963 930.711 250.707 930.231 250.452 929.751C250.496 932.285 247.115 935.515 245.141 936.608C242.596 938.018 239.352 937.554 236.507 937.405C234.424 937.296 234.302 940.527 236.38 940.636C240.618 940.858 245.115 941.334 248.5 938.293C250.391 936.593 254.457 932.593 253.664 929.669C252.793 926.457 248.122 928.072 246.019 928.829C241.319 930.519 237.511 933.858 233.834 937.124C232.278 938.505 234.5 940.855 236.058 939.471Z" fill="#F28A75"/>
<path d="M232.383 962.333C236.991 960.802 241.261 958.648 245.115 955.676C247.366 953.941 251.853 950.907 248.989 947.754C242.944 941.099 232.991 954.027 230.849 958.662C229.987 960.526 232.728 962.248 233.602 960.358C234.699 957.983 236.036 955.813 237.863 953.916C238.741 953.005 246.153 947.479 245.787 950.225C245.515 952.26 241.266 954.55 239.679 955.513C237.148 957.048 234.485 958.244 231.675 959.177C229.716 959.829 230.41 962.988 232.383 962.333Z" fill="#F28A75"/>
<path d="M233.967 977.578C237.092 975.731 251.975 967.346 247.211 962.188C245.399 960.226 242.294 961.572 240.541 962.8C236.833 965.397 234.477 969.934 232.263 973.752C231.221 975.548 233.968 977.254 235.016 975.448C236.117 973.548 237.242 971.656 238.484 969.844C239.261 968.711 240.057 967.541 241.045 966.577C241.693 965.944 243.326 963.748 243.47 965.571C243.604 967.266 240.532 969.086 239.259 970.1C237.102 971.817 234.818 973.323 232.446 974.724C230.661 975.78 232.171 978.639 233.967 977.578Z" fill="#F28A75"/>
<path d="M711.761 564.766C788.224 564.766 850.209 506.557 850.209 434.754C850.209 362.95 788.224 304.741 711.761 304.741C635.299 304.741 573.314 362.95 573.314 434.754C573.314 506.557 635.299 564.766 711.761 564.766Z" fill="white"/>
<path d="M851.281 559.688C904.986 559.688 948.522 523.995 948.522 479.965C948.522 435.935 904.986 400.241 851.281 400.241C797.576 400.241 754.04 435.935 754.04 479.965C754.04 523.995 797.576 559.688 851.281 559.688Z" fill="#4A61E4" fill-opacity="0.05"/>
<path d="M582.61 559.688C636.315 559.688 679.851 523.995 679.851 479.965C679.851 435.935 636.315 400.241 582.61 400.241C528.905 400.241 485.369 435.935 485.369 479.965C485.369 523.995 528.905 559.688 582.61 559.688Z" fill="white"/>
<path d="M612.213 446.768C612.213 390.861 652.655 341.468 714.416 341.468C769.894 341.468 814.867 386.789 814.867 442.696C814.867 498.602 769.894 543.923 714.416 543.923C658.939 543.923 612.213 502.674 612.213 446.768Z" fill="#4A61E4"/>
<path d="M770.855 499.684H660.043C657.417 499.684 655.289 497.539 655.289 494.893V474.36C655.289 471.714 657.417 469.569 660.043 469.569C662.669 469.569 664.798 471.714 664.798 474.36V485.31C664.798 487.956 666.926 490.101 669.552 490.101H761.346C763.971 490.101 766.1 487.956 766.1 485.31V474.36C766.1 471.714 768.229 469.569 770.855 469.569H770.855C773.481 469.569 775.61 471.714 775.61 474.36V494.893C775.609 497.539 773.48 499.684 770.855 499.684Z" fill="white"/>
<path d="M730.359 431.982V373.802C730.359 371.591 728.58 369.799 726.386 369.799H706.399C704.204 369.799 702.426 371.591 702.426 373.802V431.982C702.426 434.193 700.647 435.985 698.453 435.985H688.394C684.887 435.985 683.1 440.232 685.539 442.772L713.352 471.742C714.938 473.394 717.575 473.364 719.124 471.676L745.706 442.706C748.059 440.143 746.254 435.985 742.789 435.985H734.33C732.137 435.985 730.359 434.193 730.359 431.982Z" fill="white"/>
<path d="M624.409 387.73C631.093 371.622 643.112 358.909 658.597 351.146C660.793 350.045 658.864 346.731 656.673 347.83C640.238 356.07 627.805 369.669 620.734 386.708C619.789 388.986 623.475 389.98 624.409 387.73Z" fill="#FF8D67"/>
<path d="M818.436 457.966C817.837 463.77 816.378 469.344 814.169 474.733C813.234 477.015 816.92 478.01 817.844 475.754C820.193 470.021 821.611 464.129 822.247 457.966C822.501 455.51 818.688 455.528 818.436 457.966Z" fill="#FF8D67"/>
<path d="M584.342 232.67C584.342 232.67 563.918 221.067 551.246 232.676C538.573 244.285 562.463 261.727 529.453 259.343C496.443 256.959 490.286 277.657 502.464 283.663C514.642 289.669 603.188 288.546 608.218 284.289C613.247 280.032 605.119 278.509 600.98 271.342C596.841 264.175 617.098 272.295 616.584 259.329C616.071 246.363 588.994 250.165 589.064 243.6C589.134 237.035 589.346 234.96 584.342 232.67Z" fill="#4A61E4" fill-opacity="0.2"/>
<path d="M495.732 267.086C495.624 267.113 495.508 267.113 495.394 267.082C495.047 266.988 494.85 266.637 494.953 266.299C496.426 261.478 510.67 251.67 524.611 254.29C532.467 255.767 538.763 254.884 541.452 251.929C542.852 250.391 543.172 248.344 542.378 246.009C539.857 238.596 543.902 231.86 544.075 231.577C544.261 231.273 544.662 231.17 544.972 231.345C545.282 231.52 545.383 231.908 545.198 232.212C545.158 232.276 541.291 238.741 543.622 245.595C544.57 248.382 544.157 250.86 542.428 252.76C539.377 256.112 532.786 257.124 524.342 255.537C511.318 253.089 497.542 262.271 496.207 266.641C496.138 266.869 495.952 267.032 495.732 267.086Z" fill="#4A61E4" fill-opacity="0.2"/>
<path d="M533.944 292.154C533.908 292.163 533.871 292.169 533.833 292.172C532.972 292.239 512.63 293.782 503.614 291.471C494.291 289.081 493.222 281.755 493.182 281.444C493.136 281.098 493.392 280.776 493.748 280.725C494.107 280.675 494.434 280.916 494.48 281.263C494.52 281.55 495.514 288.076 503.967 290.243C512.769 292.5 533.541 290.923 533.75 290.907C534.11 290.879 534.421 291.14 534.444 291.489C534.465 291.801 534.248 292.079 533.944 292.154Z" fill="#4A61E4" fill-opacity="0.2"/>
<path d="M1047.11 366.977C1047.11 366.977 1030.78 357.697 1020.65 366.981C1010.51 376.265 1029.62 390.214 1003.22 388.308C976.819 386.401 971.896 402.954 981.634 407.757C991.373 412.56 1062.19 411.662 1066.21 408.258C1070.23 404.854 1063.73 403.635 1060.42 397.904C1057.11 392.172 1073.31 398.666 1072.9 388.297C1072.49 377.927 1050.83 380.968 1050.89 375.718C1050.95 370.468 1051.12 368.808 1047.11 366.977Z" fill="#4A61E4" fill-opacity="0.2"/>
<path d="M976.25 394.501C976.164 394.522 976.071 394.522 975.98 394.497C975.703 394.422 975.545 394.141 975.627 393.871C976.806 390.015 988.197 382.172 999.346 384.268C1005.63 385.448 1010.66 384.742 1012.81 382.379C1013.93 381.15 1014.19 379.513 1013.55 377.645C1011.54 371.716 1014.77 366.329 1014.91 366.103C1015.06 365.86 1015.38 365.778 1015.63 365.918C1015.88 366.058 1015.96 366.368 1015.81 366.611C1015.78 366.663 1012.69 371.832 1014.55 377.313C1015.31 379.543 1014.98 381.525 1013.59 383.044C1011.15 385.724 1005.88 386.534 999.131 385.265C988.716 383.307 977.699 390.651 976.631 394.145C976.575 394.327 976.426 394.457 976.25 394.501Z" fill="#4A61E4" fill-opacity="0.2"/>
<path d="M1006.81 414.547C1006.78 414.555 1006.75 414.559 1006.72 414.561C1006.03 414.615 989.764 415.849 982.554 414C975.098 412.089 974.243 406.23 974.211 405.982C974.174 405.704 974.379 405.447 974.664 405.407C974.95 405.367 975.212 405.559 975.249 405.836C975.28 406.066 976.076 411.285 982.836 413.018C989.875 414.823 1006.49 413.562 1006.65 413.55C1006.94 413.527 1007.19 413.735 1007.21 414.015C1007.23 414.265 1007.05 414.487 1006.81 414.547Z" fill="#4A61E4" fill-opacity="0.2"/>
<path d="M440.875 547.469C440.875 547.469 412.239 528.222 392.399 543.829C372.558 559.435 405.627 587.616 357.541 580.486C309.455 573.356 298.157 602.993 315.331 613.132C332.505 623.27 462.321 631.384 470.157 625.704C477.992 620.024 466.255 616.896 460.982 605.943C455.709 594.99 484.485 609.116 485.162 590.068C485.839 571.02 445.762 573.605 446.587 563.997C447.412 554.39 447.952 551.375 440.875 547.469Z" fill="#4A61E4" fill-opacity="0.2"/>
<path d="M307.297 588.112C307.135 588.139 306.966 588.127 306.802 588.069C306.305 587.892 306.054 587.357 306.242 586.873C308.931 579.974 330.875 567.179 351.006 572.553C362.349 575.581 371.668 574.982 375.933 570.95C378.152 568.853 378.847 565.89 377.942 562.383C375.065 551.246 381.732 541.826 382.017 541.431C382.323 541.006 382.923 540.899 383.358 541.19C383.792 541.481 383.897 542.06 383.592 542.485C383.527 542.575 377.15 551.617 379.809 561.912C380.891 566.1 380.013 569.684 377.27 572.276C372.433 576.849 362.667 577.605 350.475 574.35C331.669 569.329 310.479 581.26 308.043 587.514C307.916 587.838 307.625 588.057 307.297 588.112Z" fill="#4A61E4" fill-opacity="0.2"/>
<path d="M360.503 629.039C360.449 629.048 360.395 629.053 360.338 629.053C359.069 629.056 329.105 629.074 316.155 624.694C302.762 620.166 302.005 609.318 301.98 608.859C301.951 608.346 302.361 607.903 302.888 607.868C303.419 607.835 303.872 608.223 303.901 608.736C303.928 609.161 304.664 618.828 316.807 622.935C329.449 627.211 360.048 627.191 360.355 627.19C360.887 627.188 361.314 627.605 361.309 628.119C361.305 628.579 360.956 628.963 360.503 629.039Z" fill="#4A61E4" fill-opacity="0.2"/>
</g>
<defs>
<clipPath id="clip0_522_1076">
<rect width="1440" height="1024" fill="white"/>
</clipPath>
</defs>
</svg>
