<svg width="294" height="165" viewBox="0 0 294 165" fill="none" xmlns="http://www.w3.org/2000/svg">
<path d="M232.56 87.2942C223.398 92.0446 199.502 95.507 174.148 97.8425C164.758 98.7149 155.153 99.4235 146.055 100.004C123.601 101.398 104.028 101.897 97.3423 101.618C97.0255 101.597 96.6622 101.557 96.2973 101.495L96.2748 101.496C95.3177 101.344 94.19 101.025 92.8956 100.583C77.8849 95.3535 42.2195 71.9729 31.8159 63.3759C22.1814 55.4182 0.0504314 29.1162 0.0504314 29.1162C-0.996126 22.171 14.4154 19.0615 30.5091 34.9708C31.5311 35.9739 45.4036 43.1132 54.6342 47.8369C54.8203 47.9129 55.0076 48.0111 55.1952 48.1096C55.9438 48.4804 56.6478 48.8546 57.3039 49.1874C60.2316 50.6758 62.3142 51.7105 62.7599 51.9467C62.3762 51.6382 60.9464 50.5988 58.8742 49.1127C58.3977 48.7662 57.8969 48.3993 57.3721 48.0114C57.2052 47.8889 57.0364 47.7442 56.8473 47.6235C50.0756 42.6677 39.4372 34.8315 35.4161 31.4001C29.5173 26.3779 10.1591 3.66987 13.8857 1.44988C23.8411 -4.41886 36.3244 8.72567 48.8045 19.461C53.1406 23.1837 73.8485 33.4505 81.1571 38.3655C76.4993 34.2619 66.805 25.521 63.7695 21.4288C59.7275 15.95 52.8287 1.93028 55.495 0.871834C60.3696 -1.0528 65.1587 2.41039 76.9949 15.3337C86.9886 26.236 110.161 31.6094 116.119 34.7584C128.081 41.0527 150.749 34.1712 187.449 30.9274C203.143 29.5144 216.899 32.5887 224.664 46.2984C230.955 57.4074 231.82 72.0504 236.253 81.97C237.121 83.9075 235.703 85.6818 232.56 87.2942Z" fill="#FFCFBF"/>
<path d="M85.3845 24.9234C85.3845 24.9234 74.2127 6.10471 84.1367 8.52911C94.0606 10.9535 114.277 37.8764 135.83 37.0374L123.926 45.5204L85.3845 24.9234Z" fill="#FFCFBF"/>
<path d="M293.133 165.768L193.786 173.33C189.201 163.389 168.891 111.009 166.329 108.704L166.305 108.684C166.207 108.578 166.135 108.516 166.038 108.434C165.388 107.875 164.841 107.489 164.391 107.208C163.519 106.689 163.016 106.592 162.992 106.572C158.299 103.777 152.439 101.633 146.056 100.003L146.032 99.9822C121.665 93.709 90.0406 94.7202 89.9442 94.6375C82.6599 87.0865 96.8176 77.8326 117.593 70.0594L120.386 68.2035C132.448 63.6829 140.644 61.4337 151.795 58.2659C153.316 57.8348 159.654 57.6969 161.065 57.2968C161.088 57.295 161.088 57.295 161.088 57.295C162.278 56.9568 163.447 56.6425 164.572 56.3319C171.387 54.4623 184.698 58.0483 187.079 57.9736C220.354 56.9296 220.356 53.2563 225.095 57.5338L225.096 57.556C226.497 58.8003 227.126 59.6755 227.126 59.6755C226.729 60.967 292.323 164.298 293.133 165.768Z" fill="#FFCFBF"/>
<path d="M188.599 105.194C168.585 111.15 132.677 109.55 111.971 105.404C106.563 104.322 100.892 104.022 96.0584 101.367C91.7133 98.9802 88.1937 95.3656 84.7507 91.799C74.489 81.1696 64.2842 70.4851 54.1369 59.7462C51.3223 56.7675 48.5943 51.659 51.8399 49.1574C53.0082 48.2568 54.5801 48.1392 56.0528 48.057C65.3493 47.5381 75.4694 47.2461 83.0175 52.6978C88.018 56.3096 91.1768 62.0026 96.0657 65.7643C101.955 70.2955 110.22 71.5333 117.178 68.9262L188.599 105.194Z" fill="#FFCFBF"/>
<path d="M175.004 104.78C160.697 108.99 145.694 109.434 130.934 107.931C123.364 107.16 115.931 105.71 108.427 104.507C104.661 103.902 100.816 103.299 97.3502 101.623C93.9193 99.9634 90.9814 97.3765 88.2901 94.7208C82.6824 89.1875 77.3155 83.3901 71.871 77.6968C66.2953 71.8663 60.7194 66.0345 55.1943 60.156C53.3201 58.1618 50.3372 54.6635 51.3515 51.6527C51.9391 49.909 53.7552 49.4565 55.3938 49.3105C57.2655 49.1436 59.1596 49.0924 61.0375 49.0394C67.8011 48.8487 75.0856 49.1681 81.0611 52.7073C87.566 56.5602 90.9184 63.9006 97.2879 67.9235C103.321 71.7337 110.906 72.4774 117.593 70.0597C118.488 69.7362 117.84 68.4033 116.949 68.7253C110.014 71.2329 101.974 69.952 96.2096 65.3298C90.7388 60.9431 87.3932 54.42 81.0691 51.0194C74.8526 47.6768 67.5618 47.3538 60.6568 47.5781C57.8939 47.6678 54.0116 47.26 51.6337 48.9364C49.454 50.4729 49.4233 53.1559 50.2773 55.4542C51.5006 58.7455 54.1144 61.1692 56.4716 63.659C59.4121 66.7648 62.3572 69.8659 65.3072 72.9625C71.2072 79.1558 77.1266 85.3304 83.0648 91.4871C88.218 96.8297 93.4231 102.403 100.798 104.482C104.463 105.515 108.268 105.922 112.004 106.609C115.914 107.329 119.829 108.006 123.767 108.554C140.904 110.941 158.553 111.159 175.283 106.235C176.188 105.969 175.921 104.51 175.004 104.78Z" fill="#EF9F8A"/>
<path d="M212.767 75.0508C212.14 64.455 200.179 60.7189 191.61 58.6989C181.271 56.2613 170.5 55.591 159.936 56.6893C154.034 57.303 148.196 58.4749 142.51 60.1713C141.642 60.4303 142.118 61.7551 142.986 61.4962C152.665 58.6085 162.785 57.3131 172.88 57.6325C177.921 57.7919 182.949 58.3679 187.898 59.3377C192.719 60.2825 197.714 61.4435 202.167 63.5725C206.793 65.7853 211.042 69.741 211.363 75.1575C211.417 76.0622 212.82 75.9555 212.767 75.0508Z" fill="#EF9F8A"/>
<path d="M217.67 93.8555C218.803 97.3327 220.495 100.643 222.652 103.597C223.26 104.429 223.907 105.233 224.588 106.007C224.753 106.194 224.914 106.337 225.168 106.387C225.393 106.431 225.683 106.381 225.868 106.241C226.228 105.968 226.442 105.347 226.102 104.961C224.918 103.615 223.841 102.179 222.884 100.664C222.409 99.9124 221.963 99.1423 221.548 98.3557C221.524 98.3105 221.388 98.0482 221.479 98.225C221.426 98.1219 221.374 98.0183 221.322 97.9146C221.218 97.7071 221.116 97.4986 221.017 97.289C220.823 96.8815 220.638 96.4704 220.461 96.0556C220.066 95.131 219.714 94.1889 219.402 93.2333C219.253 92.7754 218.675 92.4937 218.225 92.6785C217.752 92.872 217.51 93.3648 217.67 93.8555Z" fill="#F18E7B"/>
</svg>
