<svg width="110" height="102" viewBox="0 0 110 102" fill="none" xmlns="http://www.w3.org/2000/svg">
<path d="M109.051 114.129C86.432 101.258 70.3343 78.1989 65.3348 52.7201C63.919 45.5043 63.4243 38.1498 63.8722 30.8104C63.9328 29.8178 62.3948 29.6472 62.3342 30.6422C60.724 57.0156 71.4015 83.5436 90.2897 101.936C95.6548 107.16 101.641 111.683 108.149 115.387C109.006 115.874 109.917 114.622 109.051 114.129Z" fill="#4C99AF"/>
<path d="M79.097 88.4195C77.1945 88.8406 75.2869 89.2643 73.3509 89.5019C71.5857 89.7184 68.879 90.1623 67.2031 89.3592C66.3349 89.3401 66.0129 88.7696 66.2366 87.648C66.9377 87.3382 67.6696 87.225 68.4321 87.3087C69.5551 87.3732 70.6511 87.725 71.7319 88.0056C73.89 88.5656 76.0425 89.1477 78.1979 89.7187C79.1517 89.9713 79.7134 88.5289 78.7505 88.2739C76.5143 87.6814 64.2562 82.8676 64.0708 88.2755C63.8877 93.6146 76.856 90.4971 79.33 89.9495C80.2987 89.7346 80.0699 88.204 79.097 88.4195Z" fill="#4C99AF"/>
<path d="M73.6439 78.271C70.519 78.2433 67.392 78.1283 64.2782 77.8544C61.9942 77.6535 57.3825 77.4282 55.9803 75.2236C55.1894 74.7664 55.4293 74.3225 56.7 73.8918C57.06 73.7935 57.42 73.6949 57.7803 73.5966C58.5778 73.4829 59.4227 73.62 60.2064 73.7714C61.7078 74.0616 63.1889 74.5416 64.618 75.081C67.5075 76.171 70.1755 77.6865 72.6505 79.5257C73.4497 80.1195 74.3525 78.8632 73.5517 78.2681C70.1646 75.7513 66.3853 73.8238 62.3077 72.7053C59.8945 72.0434 55.5419 71.1487 54.1631 74.1492C52.9935 76.6944 58.2582 78.3833 59.8881 78.7739C64.2551 79.8204 69.0113 79.7694 73.4758 79.809C74.4643 79.8177 74.6391 78.2797 73.6439 78.271Z" fill="#4C99AF"/>
<path d="M67.5276 64.853C64.3325 65.0076 61.1385 64.7948 58.0006 64.1614C56.4668 63.8519 54.9564 63.4412 53.4748 62.9393C52.7622 62.6981 52.0563 62.4385 51.3605 62.1523C51.0233 62.0192 50.6905 61.8761 50.3621 61.7228C48.5701 61.0684 48.3331 60.3216 49.6514 59.4823C50.4936 58.5575 50.7282 58.4735 51.8555 58.3973C52.7117 58.3394 53.5797 58.3789 54.4299 58.4961C55.9851 58.7102 57.4971 59.1712 58.9281 59.8131C61.8511 61.1239 64.3713 63.1516 66.7555 65.2566C67.5007 65.9146 68.3982 64.6535 67.6567 63.9988C64.2974 61.0328 60.6056 58.2939 56.1661 57.2524C53.8762 56.7152 48.2659 55.9783 47.2813 58.9818C46.0687 62.68 51.9787 64.1373 54.3563 64.8386C58.7198 66.1261 63.2222 66.6027 67.7605 66.383C68.7555 66.3344 68.5127 64.8052 67.5276 64.853Z" fill="#4C99AF"/>
<path d="M63.7402 49.8511C61.2075 48.1928 58.3849 47.2586 55.5836 46.168C52.6848 45.0394 46.7057 42.3574 47.3898 38.4557C47.2633 37.6058 47.6424 37.1833 48.5269 37.1884C49.08 37.0696 49.6395 37.0444 50.2052 37.1129C51.1308 37.2115 52.0713 37.543 52.8657 38.0191C54.5047 39.0008 55.6697 40.5837 56.6487 42.186C58.412 45.0718 59.6431 48.1917 62.0483 50.6404C62.7399 51.3445 63.9423 50.3689 63.2425 49.6564C59.9364 46.2905 58.8578 41.3821 55.4545 38.1071C53.2629 35.9981 48.5008 34.0637 45.9602 36.8023C43.6639 39.2777 48.0434 43.6781 49.9212 45.0163C53.8474 47.8147 58.8179 48.476 62.8387 51.1089C63.6692 51.6524 64.5765 50.3984 63.7402 49.8511Z" fill="#4C99AF"/>
<path d="M63.5966 31.7965C61.1125 29.4625 59.3699 26.6072 58.1863 23.4215C57.041 20.3393 55.8709 16.2678 57.0524 13.0204C57.1666 11.9931 57.6719 11.746 58.5683 12.2797C59.3433 12.1198 59.7649 12.3741 59.8338 13.0425C60.2931 13.7024 60.4517 15.0566 60.6497 15.8324C61.0346 17.3412 61.3354 18.8725 61.5556 20.414C62.0618 23.9584 62.0939 27.5265 61.7408 31.0863C61.6423 32.0786 63.1805 32.246 63.2788 31.2545C63.7735 26.2698 63.5121 21.2389 62.3644 16.356C61.8744 14.272 60.8061 8.19757 57.3316 10.1304C54.0826 11.9378 54.995 17.7575 55.707 20.6149C56.8462 25.1872 58.9392 29.5265 62.4024 32.7808C63.117 33.4522 64.3224 32.4785 63.5966 31.7965Z" fill="#4C99AF"/>
<path d="M65.3852 49.1229C65.6822 46.4525 66.4936 43.9469 67.5813 41.4992C68.067 40.4068 68.5973 39.3356 69.1408 38.271C69.3757 37.8108 69.7413 36.6145 70.1712 36.3209C71.7692 36.1955 72.4443 36.5993 72.197 37.5327C72.1515 37.9065 72.0859 38.2768 72.0001 38.6437C71.694 40.0614 71.2328 41.8305 70.3271 43.004C69.5614 43.9961 68.3497 44.4677 67.3661 45.1983C65.5999 46.5113 64.3401 48.2732 63.4779 50.2807C63.0842 51.1976 64.5303 51.7472 64.9229 50.8333C65.92 48.5121 67.4562 46.9786 69.5511 45.6133C70.7062 44.8603 71.5575 44.117 72.1916 42.8659C73.2328 40.8111 75.1755 35.848 72.5474 34.1684C69.9536 32.5103 68.4148 36.2957 67.5324 38.0374C65.7776 41.5024 64.2795 45.0647 63.847 48.9547C63.737 49.9462 65.2752 50.1128 65.3852 49.1229Z" fill="#4C99AF"/>
<path d="M69.5391 66.151C70.097 64.3667 70.6448 62.5633 71.4331 60.8635C71.9435 59.763 73.7775 55.8985 75.2804 55.9365C76.2445 55.9607 75.0551 60.5936 74.7155 61.2583C73.7365 63.1757 71.4676 64.0936 69.6437 65.0639C68.7697 65.5288 69.394 66.9449 70.2747 66.4765C72.6215 65.2281 75.4193 64.0115 76.3835 61.3324C76.968 59.708 77.9927 55.9447 76.6385 54.4609C75.244 52.9327 73.2721 55.3387 72.3664 56.4184C70.1626 59.0455 69.1004 62.381 68.094 65.5987C67.7978 66.5455 69.241 67.1035 69.5391 66.151Z" fill="#4C99AF"/>
<path d="M75.7043 80.6444C77.8047 78.2121 79.5064 75.4724 80.6733 72.4737C81.3231 70.8036 82.9812 67.4866 80.27 66.7812C77.6682 66.1046 75.9936 68.9255 75.1493 70.8958C73.983 73.6172 73.6498 76.5755 73.9837 79.5038C74.0966 80.4953 75.6262 80.258 75.5135 79.2708C75.2837 77.2559 75.3855 75.2288 75.9453 73.2715C76.1812 72.4463 76.4878 71.6336 76.861 70.8605C77.0983 70.369 77.3629 69.853 77.6985 69.4189C78.347 68.5799 79.9405 68.2002 79.9817 69.692C80.0242 71.2343 78.5699 73.5611 77.8547 74.8783C76.9033 76.6305 75.7486 78.2357 74.4468 79.7432C73.7962 80.4961 75.0566 81.3941 75.7043 80.6444Z" fill="#4C99AF"/>
<path d="M81.8732 89.3316C83.3719 86.5787 84.6498 83.6947 85.4769 80.6641C85.8547 79.28 86.4538 76.7388 84.6286 76.0435C82.7898 75.3432 81.4399 77.6253 80.9221 79.0451C79.9415 81.7343 80.1325 84.9203 80.1798 87.7256C80.1963 88.71 81.7346 88.8872 81.7178 87.8938C81.6891 86.1895 81.687 84.4775 81.81 82.7761C81.874 81.8911 81.9577 80.9936 82.1966 80.1352C82.4418 79.2555 82.5935 78.0969 83.6788 78.4774C84.3215 78.4364 84.5122 78.6846 84.2513 79.2218C84.1344 79.751 83.995 80.2744 83.8326 80.7914C83.5975 81.5837 83.3268 82.3658 83.0385 83.14C82.36 84.9626 81.5451 86.7227 80.6155 88.4305C80.1458 89.2934 81.3969 90.2068 81.8732 89.3316Z" fill="#4C99AF"/>
<path d="M25.2243 105.14C13.7175 84.666 12.0145 59.3936 19.9413 37.3534C22.2107 31.0433 25.2918 25.0724 29.0878 19.5469C29.8256 18.473 28.1019 17.4119 27.3646 18.4852C13.7244 38.3412 9.66938 64.1301 15.8323 87.3538C17.568 93.8938 20.1238 100.194 23.4387 106.092C24.0758 107.225 25.8641 106.278 25.2243 105.14Z" fill="#F28A75"/>
<path d="M13.7284 71.0298C11.914 70.4214 10.0833 69.8199 8.3505 68.999C7.63157 68.6584 3.84167 66.8706 3.87063 65.9596C3.94448 63.6315 7.64884 67.504 8.05081 67.9166C9.44005 69.343 10.8248 70.7737 12.2119 72.2023C13.1173 73.1348 14.5916 71.7474 13.6811 70.8096C12.2868 69.3733 4.03933 59.0419 1.65806 64.3523C0.829139 66.2011 2.80181 67.8699 4.09805 68.8346C6.77662 70.8277 10.0075 71.9159 13.1386 72.9656C14.3758 73.3806 14.9632 71.4438 13.7284 71.0298Z" fill="#F28A75"/>
<path d="M14.309 60.6071C12.1333 59.272 9.99487 57.8793 7.91328 56.4011C6.71055 55.5469 5.50013 54.6779 4.44937 53.6367C3.74825 52.9419 2.1725 51.4406 2.30136 50.3914C2.02638 49.8797 2.2012 49.7352 2.82555 49.9579C3.23549 49.8904 3.61115 49.9711 3.95282 50.2004C4.73922 50.5137 5.37499 51.1117 5.98366 51.6837C6.87421 52.5206 7.69622 53.4632 8.45021 54.4223C10.18 56.6224 11.5255 59.0379 12.5953 61.619C13.0938 62.8215 14.8762 61.8613 14.3812 60.6671C12.7837 56.8129 10.484 53.1853 7.45287 50.291C5.8673 48.7772 2.92438 46.7054 0.718184 48.4193C-1.40751 50.0708 1.7429 53.7972 2.98016 55.0297C5.91857 57.9561 9.73505 60.1756 13.2471 62.3308C14.3565 63.0112 15.4224 61.2901 14.309 60.6071Z" fill="#F28A75"/>
<path d="M15.9813 47.4059C13.5289 46.0858 11.2246 44.5387 9.14887 42.675C8.22166 41.8424 7.3404 40.9614 6.50803 40.0341C5.89511 39.3514 3.83239 37.4929 3.84328 36.5663C4.15227 36.0059 4.46098 35.4454 4.76996 34.885C5.16529 34.9972 5.54654 35.1454 5.91371 35.3293C6.49581 35.5904 7.04869 35.8928 7.57632 36.252C8.63027 36.9693 9.57317 37.8673 10.3782 38.8551C12.4324 41.3753 13.612 44.4497 14.5849 47.5146C14.9765 48.7487 16.9542 48.3132 16.5602 47.0714C15.3078 43.1261 13.7143 39.142 10.685 36.2063C9.03332 34.6056 4.82842 31.309 2.4846 33.359C-0.184936 35.694 3.23115 39.3713 4.78936 41.1487C7.64726 44.4091 11.1083 47.0781 14.9194 49.1294C16.061 49.7436 17.1325 48.0255 15.9813 47.4059Z" fill="#F28A75"/>
<path d="M20.0314 33.9868C18.5479 30.9604 16.1993 28.6195 14.3164 25.861C13.5393 24.7223 12.8509 23.4866 12.4375 22.1659C12.0855 21.041 11.4598 18.3736 12.6394 17.6119C13.9617 16.7578 15.8395 18.8 16.4607 19.8468C17.3773 21.3912 17.5425 23.2616 17.5423 25.0164C17.5417 28.0932 17.0888 31.089 17.805 34.1257C18.1042 35.3946 20.0795 34.9512 19.7803 33.6826C18.7139 29.1612 20.5213 24.3315 18.7376 19.9284C17.7601 17.5158 14.8533 14.542 11.9383 15.436C9.08227 16.312 9.95928 21.2834 10.7127 23.3331C12.3344 27.7436 16.199 30.7644 18.2455 34.9387C18.8194 36.109 20.6045 35.1558 20.0314 33.9868Z" fill="#F28A75"/>
<path d="M28.4015 19.9609C27.5075 16.7794 27.5656 13.5278 28.2774 10.3128C28.7755 8.06304 29.9509 3.08049 32.5615 2.32782C33.291 1.71092 33.6622 2.11131 33.6752 3.52818C33.6191 3.76755 33.5633 4.00664 33.5073 4.24601C33.4353 4.95139 33.1308 5.69691 32.9228 6.37864C32.4924 7.78859 31.986 9.17621 31.4012 10.5293C30.1653 13.3891 28.5513 16.0573 26.694 18.5533C25.9169 19.5975 27.6432 20.6551 28.4171 19.615C31.0423 16.087 33.1207 12.1941 34.52 8.02107C35.1914 6.01865 37.4539 -0.0786689 33.2804 0.000768977C29.7593 0.0677199 27.75 4.83263 26.8975 7.61269C25.6246 11.7634 25.2428 16.192 26.4261 20.4041C26.7776 21.6552 28.754 21.2162 28.4015 19.9609Z" fill="#F28A75"/>
<path d="M21.7054 34.4929C23.2453 32.4907 25.159 30.8927 27.2347 29.4692C28.0841 28.8868 28.9584 28.3408 29.8341 27.7988C30.1037 27.632 30.7454 27.0568 31.061 27.0563C31.3899 26.7622 31.59 26.9295 31.6609 27.5581C32.2356 28.1169 32.1171 28.6044 31.3052 29.0207C30.5695 29.8082 29.7188 30.6426 28.7993 31.208C27.5166 31.9968 26.1935 31.8247 24.7676 31.9602C22.7668 32.1504 20.9644 32.9025 19.3353 34.0556C18.2866 34.7979 19.2253 36.5933 20.2872 35.8415C22.457 34.3056 24.4392 34.1199 27.0052 33.8999C28.4398 33.7769 29.5046 33.2288 30.6351 32.3603C32.3192 31.0661 35.6086 28.3456 34.1888 25.828C32.7064 23.1991 29.527 25.5921 27.8997 26.6256C24.9158 28.5204 22.1525 30.6092 19.9822 33.4312C19.1892 34.4618 20.9166 35.5181 21.7054 34.4929Z" fill="#F28A75"/>
<path d="M16.9386 49.7496C18.4115 48.4414 19.8853 47.1104 21.5816 46.0928C22.4068 45.5979 25.4504 43.8014 26.4297 44.566C26.2695 44.2655 26.1093 43.965 25.9494 43.6646C25.977 45.2507 23.8606 47.273 22.6249 47.9574C21.0314 48.8397 19.0008 48.5496 17.2194 48.4563C15.9155 48.388 15.8395 50.4106 17.14 50.4789C19.7931 50.6179 22.6085 50.916 24.7273 49.0119C25.9111 47.9478 28.4566 45.4438 27.9603 43.6135C27.4148 41.6026 24.4908 42.6135 23.1744 43.0872C20.232 44.1454 17.848 46.2358 15.5462 48.2804C14.5725 49.1449 15.9636 50.6157 16.9386 49.7496Z" fill="#F28A75"/>
<path d="M14.6383 64.0616C17.5228 63.1033 20.196 61.755 22.6087 59.8942C24.0176 58.8078 26.8263 56.909 25.0335 54.935C21.2495 50.7686 15.0188 58.862 13.6776 61.7632C13.138 62.9306 14.854 64.0082 15.4011 62.8249C16.0881 61.3384 16.9247 59.9802 18.0687 58.7924C18.6182 58.222 23.2585 54.7626 23.029 56.4818C22.8589 57.756 20.199 59.1896 19.2053 59.7921C17.6211 60.7531 15.9537 61.5018 14.1952 62.086C12.9688 62.4938 13.4029 64.4718 14.6383 64.0616Z" fill="#F28A75"/>
<path d="M15.6297 73.6051C17.5859 72.4489 26.9029 67.1999 23.9207 63.9711C22.7865 62.7431 20.8428 63.5853 19.7453 64.3539C17.4238 65.9799 15.949 68.8203 14.563 71.21C13.9107 72.3344 15.6302 73.4027 16.2862 72.2717C16.9756 71.0828 17.6799 69.8979 18.4576 68.7637C18.944 68.0543 19.4419 67.3218 20.0604 66.7185C20.4661 66.3226 21.4887 64.9475 21.579 66.0888C21.6627 67.1502 19.7394 68.2894 18.9424 68.9239C17.592 69.9988 16.1623 70.9417 14.6777 71.819C13.56 72.4797 14.5056 74.2693 15.6297 73.6051Z" fill="#F28A75"/>
</svg>
