<svg width="63" height="86" viewBox="0 0 63 86" fill="none" xmlns="http://www.w3.org/2000/svg">
<path d="M29.5363 89.2008C42.7236 77.3632 50.0976 59.6903 49.7369 42.0138C49.6348 37.0076 48.8995 32.0424 47.5392 27.2237C47.3553 26.572 48.3538 26.236 48.5383 26.8893C53.4265 44.2045 50.1609 63.4011 40.2548 78.3725C37.4411 82.625 34.1128 86.5009 30.3179 89.9072C29.8187 90.3555 29.0309 89.6545 29.5363 89.2008Z" fill="#4C99AF"/>
<path d="M45.7459 67.7587C47.0727 67.7636 48.4033 67.7695 49.7258 67.6473C50.9315 67.5359 52.797 67.4396 53.7958 66.6627C54.3706 66.5242 54.5025 66.0981 54.1911 65.3841C53.6796 65.2795 53.1764 65.3101 52.6811 65.4762C51.9432 65.6817 51.265 66.0743 50.5865 66.4175C49.2315 67.1024 47.8834 67.8012 46.532 68.493C45.9339 68.7992 45.3514 67.9206 45.9552 67.6116C47.3574 66.8937 54.8171 61.9168 55.7232 65.4881C56.6177 69.0143 47.5376 68.8167 45.8121 68.8104C45.1367 68.8077 45.0673 67.7562 45.7459 67.7587Z" fill="#4C99AF"/>
<path d="M47.9056 60.2175C49.9808 59.7469 52.0449 59.2178 54.0771 58.585C55.5678 58.1208 58.6038 57.3035 59.2178 55.6337C59.678 55.215 59.4541 54.9543 58.5461 54.8516C58.2922 54.8381 58.0385 54.8248 57.7846 54.8114C57.2376 54.8511 56.6952 55.0645 56.1956 55.2788C55.2385 55.6891 54.3226 56.2229 53.4496 56.7885C51.6848 57.932 50.1289 59.3264 48.7481 60.9084C48.3022 61.4192 47.5197 60.7139 47.9665 60.202C49.856 58.0371 52.0918 56.2076 54.6431 54.8735C56.1529 54.084 58.9196 52.8586 60.2713 54.6556C61.4179 56.1798 58.1593 58.0656 57.1313 58.5615C54.377 59.8897 51.2049 60.5442 48.2402 61.2166C47.5836 61.3655 47.2447 60.3676 47.9056 60.2175Z" fill="#4C99AF"/>
<path d="M50.0336 50.4047C52.182 50.0451 54.2763 49.4413 56.2725 48.5658C57.2484 48.1379 58.1938 47.646 59.1071 47.0977C59.5463 46.834 59.9784 46.559 60.4001 46.2679C60.6052 46.1306 60.8059 45.9872 61.0022 45.8376C62.1 45.1429 62.1495 44.6117 61.1509 44.2439C60.4567 43.7503 60.2882 43.7285 59.5272 43.8409C58.9491 43.9262 58.3773 44.0782 57.8286 44.2792C56.8248 44.6467 55.8855 45.1723 55.0262 45.8064C53.271 47.1016 51.8874 48.8155 50.6058 50.5613C50.2052 51.1069 49.4255 50.3977 49.8242 49.8548C51.6302 47.395 53.6902 45.0384 56.4934 43.703C57.9393 43.0142 61.5656 41.7119 62.6555 43.5679C63.9976 45.8531 60.2759 47.678 58.7955 48.4888C56.0783 49.977 53.1514 50.9457 50.0999 51.4563C49.431 51.5682 49.3712 50.5155 50.0336 50.4047Z" fill="#4C99AF"/>
<path d="M50.3828 39.8743C51.8278 38.4043 53.5708 37.3742 55.277 36.2432C57.0425 35.0727 60.6328 32.4229 59.6129 29.9256C59.5741 29.3417 59.2608 29.1156 58.6727 29.247C58.2875 29.248 57.9116 29.3122 57.5451 29.4397C56.9433 29.6393 56.3658 29.996 55.9059 30.4277C54.9575 31.3181 54.4113 32.5399 53.9917 33.7477C53.236 35.923 52.8684 38.1772 51.6224 40.1546C51.2641 40.7231 50.3228 40.2479 50.6853 39.6728C52.3981 36.9546 52.4054 33.5326 54.1961 30.861C55.3492 29.1406 58.2376 27.1642 60.3245 28.6188C62.2106 29.9336 59.9333 33.4953 58.8777 34.6575C56.6703 37.0876 53.4587 38.247 51.1642 40.5809C50.6906 41.0627 49.9057 40.3596 50.3828 39.8743Z" fill="#4C99AF"/>
<path d="M47.8653 27.8405C49.1804 25.9279 49.9267 23.776 50.2533 21.485C50.5693 19.2684 50.7586 16.3899 49.5025 14.4002C49.2779 13.7331 48.9059 13.642 48.3866 14.1266C47.8478 14.1324 47.6039 14.3626 47.655 14.8173C47.4449 15.3227 47.5352 16.2469 47.5159 16.7917C47.4781 17.8515 47.4996 18.9138 47.5762 19.9714C47.7524 22.4029 48.2472 24.7818 48.9976 27.0994C49.2067 27.7454 48.2075 28.0794 47.9985 27.4339C46.948 24.1887 46.3938 20.8035 46.4508 17.3883C46.4751 15.9306 46.3069 11.7343 48.8984 12.5174C51.3218 13.2497 51.5569 17.2542 51.4967 19.2584C51.4004 22.4656 50.6356 25.6559 48.8024 28.3224C48.4238 28.8728 47.481 28.3993 47.8653 27.8405Z" fill="#4C99AF"/>
<path d="M49.1829 39.6279C48.5987 37.8941 47.6964 36.3442 46.6182 34.8731C46.1371 34.2165 45.6291 33.5805 45.1134 32.9509C44.8905 32.6788 44.4742 31.9356 44.1456 31.8024C43.0641 31.9501 42.6733 32.3166 42.9732 32.9019C43.0575 33.144 43.1548 33.3809 43.2649 33.6127C43.6737 34.5118 44.2367 35.6221 45.009 36.2719C45.662 36.8212 46.5367 36.9594 47.2967 37.3034C48.662 37.9214 49.7552 38.9115 50.6194 40.1224C51.014 40.6755 50.1314 41.2505 49.7379 40.6993C48.7385 39.2991 47.4943 38.5012 45.903 37.8958C45.0253 37.5619 44.3515 37.1905 43.7484 36.4497C42.7582 35.2332 40.7474 32.2121 42.253 30.714C43.7391 29.2354 45.3108 31.5313 46.1499 32.5627C47.819 34.6142 49.3313 36.7677 50.1822 39.2934C50.3988 39.9373 49.3994 40.2706 49.1829 39.6279Z" fill="#4C99AF"/>
<path d="M48.8831 51.5593C48.2536 50.4528 47.6281 49.3321 46.8577 48.3151C46.359 47.6567 44.5793 45.3508 43.5847 45.5936C42.9467 45.7493 44.4087 48.6597 44.7307 49.0529C45.6597 50.187 47.3022 50.4695 48.6561 50.851C49.305 51.0339 49.0945 52.0666 48.4406 51.8823C46.6986 51.3914 44.6607 50.9868 43.6314 49.3436C43.0074 48.3473 41.781 45.9916 42.4673 44.8083C43.174 43.5896 44.8343 44.9052 45.5932 45.4925C47.4399 46.9216 48.6294 48.9873 49.7645 50.9826C50.0988 51.5698 49.2193 52.15 48.8831 51.5593Z" fill="#4C99AF"/>
<path d="M46.879 62.0948C45.1294 60.7804 43.6005 59.2037 42.3901 57.3773C41.716 56.3602 40.1327 54.393 41.8347 53.5313C43.4678 52.7044 44.9904 54.3392 45.8373 55.528C47.0073 57.17 47.657 59.0902 47.8587 61.087C47.927 61.7631 46.875 61.8265 46.807 61.1533C46.6684 59.7795 46.3073 58.4452 45.6516 57.224C45.3751 56.709 45.0537 56.2126 44.6935 55.7524C44.4644 55.4597 44.2137 55.1547 43.9275 54.9142C43.3748 54.4499 42.2594 54.4278 42.4479 55.4264C42.6429 56.4588 43.9473 57.7964 44.6138 58.5694C45.5004 59.5976 46.5011 60.4986 47.5855 61.3133C48.127 61.72 47.4183 62.4999 46.879 62.0948Z" fill="#4C99AF"/>
<path d="M44.0309 68.768C42.6354 67.153 41.3676 65.4191 40.3786 63.5223C39.9269 62.6559 39.1606 61.0518 40.2745 60.325C41.3967 59.593 42.6251 60.9161 43.1751 61.7859C44.2167 63.4333 44.5508 65.5809 44.9254 67.4543C45.0568 68.1116 44.059 68.4521 43.9264 67.7888C43.6987 66.6506 43.4525 65.5111 43.1245 64.397C42.9538 63.8173 42.7683 63.2322 42.4849 62.6958C42.1946 62.146 41.9259 61.397 41.2588 61.8073C40.8252 61.8731 40.7341 62.0658 40.9856 62.3854C41.1399 62.7207 41.3084 63.0486 41.4913 63.3692C41.7624 63.8624 42.0557 64.3436 42.3595 64.8171C43.0748 65.9314 43.8718 66.9848 44.7375 67.9865C45.1746 68.4924 44.4744 69.2813 44.0309 68.768Z" fill="#4C99AF"/>
<path d="M9.41216 94.1322C19.7142 75.8021 21.239 53.1753 14.1422 33.4426C12.1104 27.7932 9.35184 22.4474 5.95345 17.5002C5.29291 16.5388 6.8362 15.5889 7.49631 16.5496C19.7085 34.3267 23.339 57.4157 17.8212 78.2083C16.2673 84.0635 13.9789 89.7039 11.0111 94.9843C10.4406 95.9996 8.83952 95.151 9.41216 94.1322Z" fill="#F28A75"/>
<path d="M19.7047 63.5939C21.3292 63.0493 22.9684 62.5106 24.5195 61.7756C25.1631 61.4707 28.5561 59.87 28.5303 59.0544C28.4642 56.97 25.1476 60.4371 24.7876 60.8067C23.5438 62.0837 22.304 63.3647 21.0623 64.6436C20.2516 65.4787 18.9318 64.2364 19.747 63.3968C20.9954 62.111 28.3794 52.8611 30.5113 57.6156C31.2536 59.2708 29.4874 60.765 28.3267 61.6286C25.9286 63.413 23.0359 64.3873 20.2327 65.3271C19.1249 65.6987 18.599 63.9646 19.7047 63.5939Z" fill="#F28A75"/>
<path d="M19.1848 54.2617C21.1327 53.0663 23.0474 51.8195 24.9109 50.4961C25.9877 49.7313 27.0715 48.9532 28.012 48.0211C28.6398 47.399 30.0504 46.055 29.935 45.1154C30.1811 44.6572 30.0247 44.5278 29.4657 44.7272C29.0987 44.6668 28.7623 44.7391 28.4565 44.9444C27.7524 45.2248 27.1833 45.7603 26.6382 46.2725C25.8408 47.0217 25.105 47.8657 24.4299 48.7243C22.8811 50.6941 21.6765 52.8565 20.7187 55.1676C20.2726 56.244 18.6765 55.3846 19.1197 54.3153C20.5498 50.8647 22.6089 47.6168 25.3229 45.0256C26.7423 43.6702 29.3773 41.8153 31.3526 43.3497C33.2557 44.8282 30.4351 48.1646 29.3273 49.268C26.6967 51.888 23.2795 53.875 20.1353 55.8046C19.142 56.4142 18.1878 54.8734 19.1848 54.2617Z" fill="#F28A75"/>
<path d="M17.6877 42.4435C19.8834 41.2617 21.9463 39.8764 23.8047 38.2077C24.6349 37.4622 25.4239 36.6736 26.1691 35.8432C26.7178 35.2318 28.5646 33.568 28.5548 32.7383C28.2783 32.2365 28.0016 31.7347 27.7251 31.2329C27.3711 31.3334 27.0299 31.4659 26.7011 31.6308C26.1798 31.8645 25.685 32.1354 25.2126 32.4568C24.2689 33.099 23.4249 33.903 22.7041 34.7875C20.8649 37.0439 19.8088 39.7963 18.9378 42.5403C18.5871 43.6451 16.8165 43.2553 17.1693 42.1436C18.2905 38.6113 19.7173 35.0444 22.4294 32.416C23.9083 30.9828 27.6729 28.0316 29.7712 29.8669C32.1613 31.9574 29.1027 35.2497 27.7078 36.841C25.149 39.7599 22.0504 42.1496 18.6381 43.9862C17.6163 44.5365 16.6571 42.9982 17.6877 42.4435Z" fill="#F28A75"/>
<path d="M14.0611 30.4289C15.3893 27.7193 17.4921 25.6235 19.1777 23.1538C19.8735 22.1343 20.4898 21.028 20.8599 19.8456C21.175 18.8385 21.7352 16.4505 20.6792 15.7684C19.4954 15.0037 17.8141 16.8321 17.2578 17.7694C16.4372 19.1521 16.2893 20.8266 16.2894 22.3976C16.2899 25.1524 16.6954 27.8344 16.0542 30.5533C15.7862 31.6892 14.0179 31.2923 14.2859 30.1565C15.2407 26.1085 13.6224 21.7844 15.2196 17.8423C16.0948 15.6823 18.6972 13.02 21.307 13.8204C23.864 14.6046 23.079 19.0555 22.4043 20.8905C20.9524 24.8392 17.4922 27.5437 15.6601 31.2811C15.1464 32.3289 13.5481 31.4754 14.0611 30.4289Z" fill="#F28A75"/>
<path d="M6.56721 17.871C7.36755 15.0225 7.31563 12.1115 6.67832 9.23289C6.23232 7.21869 5.17995 2.75771 2.84276 2.08389C2.1895 1.53167 1.85713 1.88991 1.84566 3.15864C1.89576 3.3729 1.94585 3.58701 1.99595 3.80127C2.06047 4.43269 2.33294 5.10023 2.51921 5.71066C2.90461 6.97295 3.35787 8.21536 3.88154 9.42685C4.98821 11.9871 6.43313 14.3761 8.09593 16.6108C8.79159 17.5457 7.24607 18.4927 6.55307 17.5615C4.20272 14.4028 2.34176 10.9174 1.08899 7.18132C0.487789 5.3885 -1.53791 -0.0704034 2.19887 0.000687902C5.35137 0.0605837 7.1502 4.32676 7.91345 6.81579C9.05315 10.532 9.39491 14.497 8.3354 18.2679C8.02095 19.3878 6.25136 18.9949 6.56721 17.871Z" fill="#F28A75"/>
<path d="M12.5628 30.8821C11.1841 29.0896 9.47073 27.6588 7.61228 26.3843C6.85182 25.8628 6.06896 25.3741 5.285 24.8889C5.0436 24.7394 4.46928 24.2244 4.1866 24.2242C3.89216 23.9609 3.71301 24.1107 3.64948 24.6734C3.1349 25.1735 3.24114 25.61 3.96787 25.9827C4.62644 26.6877 5.38829 27.4349 6.21144 27.9411C7.35996 28.6474 8.54443 28.493 9.821 28.6143C11.6123 28.7846 13.226 29.4579 14.6846 30.4904C15.6235 31.155 14.7831 32.7624 13.8325 32.0894C11.8898 30.7143 10.1152 30.5481 7.81785 30.351C6.53331 30.2409 5.58 29.7503 4.56792 28.9726C3.06003 27.814 0.115083 25.3781 1.38619 23.1242C2.71355 20.7705 5.55998 22.913 7.01694 23.8383C9.68832 25.5346 12.1624 27.4049 14.1056 29.9313C14.8154 30.8545 13.2688 31.8001 12.5628 30.8821Z" fill="#F28A75"/>
<path d="M16.8307 44.5417C15.512 43.3704 14.1925 42.1789 12.6737 41.2679C11.9348 40.8247 9.20994 39.2163 8.33306 39.9009C8.47636 39.632 8.6198 39.3629 8.7631 39.0939C8.73847 40.5139 10.6332 42.3246 11.7397 42.9373C13.1663 43.7273 14.9846 43.4674 16.5792 43.384C17.7466 43.3228 17.8148 45.1338 16.6505 45.1947C14.2752 45.3191 11.7544 45.586 9.85761 43.8812C8.79768 42.9286 6.51855 40.6867 6.96301 39.0481C7.45141 37.2476 10.0694 38.1529 11.248 38.5768C13.8823 39.5242 16.0165 41.3958 18.0775 43.2263C18.9489 44.0004 17.7035 45.317 16.8307 44.5417Z" fill="#F28A75"/>
<path d="M18.8901 57.3546C16.3075 56.4968 13.9141 55.2894 11.7541 53.6236C10.4928 52.6509 7.97799 50.951 9.583 49.1838C12.9708 45.4536 18.5493 52.6997 19.7499 55.2972C20.233 56.3423 18.6967 57.3072 18.207 56.2477C17.5918 54.9168 16.8427 53.7007 15.8187 52.6373C15.3268 52.1265 11.1725 49.0294 11.3778 50.5687C11.53 51.7096 13.9114 52.9929 14.8012 53.5325C16.2195 54.3929 17.7123 55.0632 19.2868 55.5862C20.3848 55.951 19.9962 57.7221 18.8901 57.3546Z" fill="#F28A75"/>
<path d="M18.0023 65.8997C16.2509 64.8645 7.90928 60.1651 10.5793 57.2742C11.5947 56.1747 13.3349 56.9289 14.3174 57.617C16.3959 59.0727 17.7162 61.6156 18.9572 63.7554C19.5411 64.7622 18.0016 65.7186 17.4144 64.7059C16.7971 63.6415 16.1665 62.5806 15.4703 61.5653C15.0348 60.9303 14.5891 60.2745 14.0353 59.7343C13.672 59.38 12.7565 58.1489 12.6757 59.1706C12.6007 60.1208 14.3229 61.1407 15.0365 61.7088C16.2454 62.6712 17.5255 63.5153 18.8545 64.3009C19.8553 64.8922 19.0086 66.4944 18.0023 65.8997Z" fill="#F28A75"/>
</svg>
